<?xml version="1.0" encoding="UTF-8"?>
<!DOCTYPE svg PUBLIC "-//W3C//DTD SVG 1.1//EN" "http://www.w3.org/Graphics/SVG/1.1/DTD/svg11.dtd">
<svg xmlns="http://www.w3.org/2000/svg" version="1.1" width="512px" height="512px" style="shape-rendering:geometricPrecision; text-rendering:geometricPrecision; image-rendering:optimizeQuality; fill-rule:evenodd; clip-rule:evenodd" xmlns:xlink="http://www.w3.org/1999/xlink">
<g><path style="opacity:0.978" fill="#72cfff" d="M 29.5,-0.5 C 39.8333,-0.5 50.1667,-0.5 60.5,-0.5C 58.6688,31.8384 42.0022,52.0051 10.5,60C 6.84841,60.4986 3.18174,60.6653 -0.5,60.5C -0.5,50.1667 -0.5,39.8333 -0.5,29.5C 17.8333,27.8333 27.8333,17.8333 29.5,-0.5 Z"/></g>
<g><path style="opacity:0.976" fill="#72d0ff" d="M 89.5,-0.5 C 99.8333,-0.5 110.167,-0.5 120.5,-0.5C 118.35,52.3166 93.3498,89.8166 45.5,112C 30.7772,118.111 15.4438,120.945 -0.5,120.5C -0.5,110.5 -0.5,100.5 -0.5,90.5C 39.6384,87.8457 67.805,68.179 84,31.5C 87.9623,21.1899 89.7956,10.5232 89.5,-0.5 Z"/></g>
<g><path style="opacity:0.977" fill="#72d0ff" d="M 149.5,-0.5 C 159.833,-0.5 170.167,-0.5 180.5,-0.5C 178.877,62.252 152.877,112.085 102.5,149C 71.4654,170.065 37.1321,180.565 -0.5,180.5C -0.5,170.5 -0.5,160.5 -0.5,150.5C 65.1451,146.651 111.645,114.984 139,55.5C 146.291,37.5435 149.791,18.8768 149.5,-0.5 Z"/></g>
<g><path style="opacity:0.974" fill="#66b2ff" d="M 330.5,-0.5 C 340.833,-0.5 351.167,-0.5 361.5,-0.5C 363.388,58.4714 389.721,102.638 440.5,132C 462.771,143.651 486.438,149.817 511.5,150.5C 511.5,160.5 511.5,170.5 511.5,180.5C 448.748,178.877 398.915,152.877 362,102.5C 340.935,71.4654 330.435,37.1321 330.5,-0.5 Z"/></g>
<g><path style="opacity:0.974" fill="#65b3ff" d="M 390.5,-0.5 C 400.833,-0.5 411.167,-0.5 421.5,-0.5C 422.776,36.5903 439.776,63.757 472.5,81C 484.966,86.5334 497.966,89.7 511.5,90.5C 511.5,100.5 511.5,110.5 511.5,120.5C 458.683,118.35 421.183,93.3498 399,45.5C 392.889,30.7772 390.055,15.4438 390.5,-0.5 Z"/></g>
<g><path style="opacity:0.974" fill="#65b3ff" d="M 450.5,-0.5 C 460.833,-0.5 471.167,-0.5 481.5,-0.5C 483.167,17.8333 493.167,27.8333 511.5,29.5C 511.5,39.8333 511.5,50.1667 511.5,60.5C 479.158,58.6645 458.991,41.9979 451,10.5C 450.501,6.84841 450.335,3.18174 450.5,-0.5 Z"/></g>
<g><path style="opacity:0.995" fill="#fed8b3" d="M 255.5,90.5 C 255.5,150.5 255.5,210.5 255.5,270.5C 248.025,269.681 243.191,265.681 241,258.5C 240.5,242.503 240.333,226.503 240.5,210.5C 220.5,210.5 200.5,210.5 180.5,210.5C 180.5,220.5 180.5,230.5 180.5,240.5C 190.5,240.5 200.5,240.5 210.5,240.5C 207.16,259.947 212.493,276.447 226.5,290C 234.836,296.947 244.503,300.447 255.5,300.5C 255.5,310.5 255.5,320.5 255.5,330.5C 246.212,329.879 241.212,324.879 240.5,315.5C 230.5,315.5 220.5,315.5 210.5,315.5C 213.17,342.837 228.17,357.837 255.5,360.5C 255.5,380.5 255.5,400.5 255.5,420.5C 197.621,418.488 156.121,391.488 131,339.5C 125.773,326.923 122.273,313.923 120.5,300.5C 120.552,270.305 120.552,240.305 120.5,210.5C 130.749,148.749 166.082,109.582 226.5,93C 236.071,91.0477 245.737,90.2144 255.5,90.5 Z"/></g>
<g><path style="opacity:1" fill="#ffbb99" d="M 255.5,90.5 C 313.379,92.512 354.879,119.512 380,171.5C 385.227,184.077 388.727,197.077 390.5,210.5C 390.5,240.5 390.5,270.5 390.5,300.5C 380.251,362.251 344.918,401.418 284.5,418C 274.929,419.952 265.263,420.786 255.5,420.5C 255.5,400.5 255.5,380.5 255.5,360.5C 278.786,359.055 293.619,347.055 300,324.5C 300.498,321.518 300.665,318.518 300.5,315.5C 290.478,315.168 280.478,315.501 270.5,316.5C 269.034,324.967 264.034,329.633 255.5,330.5C 255.5,320.5 255.5,310.5 255.5,300.5C 255.5,290.5 255.5,280.5 255.5,270.5C 255.5,210.5 255.5,150.5 255.5,90.5 Z"/></g>
<g><path style="opacity:0.992" fill="#ffbb99" d="M 120.5,210.5 C 120.552,240.305 120.552,270.305 120.5,300.5C 100.687,304.06 83.8537,298.727 70,284.5C 59.7173,269.609 57.7173,253.609 64,236.5C 70.3658,222.9 80.8658,214.4 95.5,211C 103.827,210.5 112.16,210.334 120.5,210.5 Z"/></g>
<g><path style="opacity:1" fill="#4d5e80" d="M 255.5,270.5 C 255.5,280.5 255.5,290.5 255.5,300.5C 244.503,300.447 234.836,296.947 226.5,290C 212.493,276.447 207.16,259.947 210.5,240.5C 200.5,240.5 190.5,240.5 180.5,240.5C 180.5,230.5 180.5,220.5 180.5,210.5C 200.5,210.5 220.5,210.5 240.5,210.5C 240.333,226.503 240.5,242.503 241,258.5C 243.191,265.681 248.025,269.681 255.5,270.5 Z"/></g>
<g><path style="opacity:1" fill="#3d4566" d="M 270.5,210.5 C 290.5,210.5 310.5,210.5 330.5,210.5C 330.5,220.5 330.5,230.5 330.5,240.5C 310.5,240.5 290.5,240.5 270.5,240.5C 270.5,230.5 270.5,220.5 270.5,210.5 Z"/></g>
<g><path style="opacity:0.991" fill="#ff9580" d="M 390.5,210.5 C 410.406,206.676 427.24,212.009 441,226.5C 451.283,241.391 453.283,257.391 447,274.5C 440.634,288.1 430.134,296.6 415.5,300C 407.173,300.5 398.84,300.666 390.5,300.5C 390.5,270.5 390.5,240.5 390.5,210.5 Z"/></g>
<g><path style="opacity:1" fill="#ff8cd8" d="M 255.5,330.5 C 255.5,340.5 255.5,350.5 255.5,360.5C 228.17,357.837 213.17,342.837 210.5,315.5C 220.5,315.5 230.5,315.5 240.5,315.5C 241.212,324.879 246.212,329.879 255.5,330.5 Z"/></g>
<g><path style="opacity:1" fill="#ff73b9" d="M 255.5,360.5 C 255.5,350.5 255.5,340.5 255.5,330.5C 264.034,329.633 269.034,324.967 270.5,316.5C 280.478,315.501 290.478,315.168 300.5,315.5C 300.665,318.518 300.498,321.518 300,324.5C 293.619,347.055 278.786,359.055 255.5,360.5 Z"/></g>
<g><path style="opacity:0.976" fill="#72d0ff" d="M -0.5,330.5 C 62.252,332.123 112.085,358.123 149,408.5C 170.065,439.535 180.565,473.868 180.5,511.5C 170.167,511.5 159.833,511.5 149.5,511.5C 147.612,452.529 121.279,408.362 70.5,379C 48.2288,367.349 24.5621,361.183 -0.5,360.5C -0.5,350.5 -0.5,340.5 -0.5,330.5 Z"/></g>
<g><path style="opacity:0.974" fill="#66b3ff" d="M 511.5,330.5 C 511.5,340.5 511.5,350.5 511.5,360.5C 445.855,364.349 399.355,396.016 372,455.5C 364.709,473.457 361.209,492.123 361.5,511.5C 351.167,511.5 340.833,511.5 330.5,511.5C 332.123,448.748 358.123,398.915 408.5,362C 439.535,340.935 473.868,330.435 511.5,330.5 Z"/></g>
<g><path style="opacity:0.978" fill="#72d0ff" d="M -0.5,390.5 C 52.355,392.53 89.855,417.53 112,465.5C 118.111,480.223 120.945,495.556 120.5,511.5C 110.167,511.5 99.8333,511.5 89.5,511.5C 86.9933,467.159 64.6599,437.992 22.5,424C 14.857,422.339 7.19029,421.172 -0.5,420.5C -0.5,410.5 -0.5,400.5 -0.5,390.5 Z"/></g>
<g><path style="opacity:0.974" fill="#66b3ff" d="M 511.5,390.5 C 511.5,400.5 511.5,410.5 511.5,420.5C 471.358,423.159 443.192,442.826 427,479.5C 423.039,489.805 421.206,500.472 421.5,511.5C 411.167,511.5 400.833,511.5 390.5,511.5C 392.637,458.719 417.637,421.219 465.5,399C 480.223,392.889 495.556,390.055 511.5,390.5 Z"/></g>
<g><path style="opacity:0.977" fill="#72d0ff" d="M -0.5,450.5 C 31.8421,452.335 52.0088,469.002 60,500.5C 60.4986,504.152 60.6653,507.818 60.5,511.5C 50.1667,511.5 39.8333,511.5 29.5,511.5C 27.8333,493.167 17.8333,483.167 -0.5,481.5C -0.5,471.167 -0.5,460.833 -0.5,450.5 Z"/></g>
<g><path style="opacity:0.975" fill="#66b2ff" d="M 511.5,450.5 C 511.5,460.833 511.5,471.167 511.5,481.5C 493.167,483.167 483.167,493.167 481.5,511.5C 471.167,511.5 460.833,511.5 450.5,511.5C 452.335,479.158 469.002,458.991 500.5,451C 504.152,450.501 507.818,450.335 511.5,450.5 Z"/></g>
</svg>
