<?xml version="1.0" encoding="UTF-8"?>
<!DOCTYPE svg PUBLIC "-//W3C//DTD SVG 1.1//EN" "http://www.w3.org/Graphics/SVG/1.1/DTD/svg11.dtd">
<svg xmlns="http://www.w3.org/2000/svg" version="1.1" width="512px" height="512px" style="shape-rendering:geometricPrecision; text-rendering:geometricPrecision; image-rendering:optimizeQuality; fill-rule:evenodd; clip-rule:evenodd" xmlns:xlink="http://www.w3.org/1999/xlink">
<g><path style="opacity:0.929" fill="#000000" d="M 436.5,56.5 C 442.875,55.0489 446.208,57.5489 446.5,64C 445.536,79.7241 440.869,94.2241 432.5,107.5C 445.69,127.288 449.857,148.955 445,172.5C 442.852,182.626 438.686,191.793 432.5,200C 440.662,213.322 445.329,227.822 446.5,243.5C 446.303,249.54 443.303,252.04 437.5,251C 417.34,240.421 397.34,229.588 377.5,218.5C 374.289,223.089 370.955,227.589 367.5,232C 334.5,232.667 301.5,232.667 268.5,232C 263.167,224.333 257.833,216.667 252.5,209C 249.854,208.503 247.187,208.336 244.5,208.5C 244.666,218.839 244.5,229.172 244,239.5C 243.535,240.931 242.701,242.097 241.5,243C 229.935,244.457 218.268,244.957 206.5,244.5C 206.5,247.5 206.5,250.5 206.5,253.5C 220.141,251.54 225.141,257.373 221.5,271C 224.924,284.404 219.924,289.904 206.5,287.5C 206.5,289.5 206.5,291.5 206.5,293.5C 213.175,293.334 219.842,293.5 226.5,294C 227.333,294.833 228.167,295.667 229,296.5C 229.894,307.01 229.561,317.343 228,327.5C 251.667,358.833 275.333,390.167 299,421.5C 301.364,425.474 300.864,428.974 297.5,432C 286.5,432.667 275.5,432.667 264.5,432C 245.333,406.833 226.167,381.667 207,356.5C 206.667,386.5 206.333,416.5 206,446.5C 202.772,453.114 197.439,455.781 190,454.5C 183.034,455.68 177.701,453.347 174,447.5C 173.667,415.833 173.333,384.167 173,352.5C 152.712,378.91 132.545,405.41 112.5,432C 101.5,432.667 90.5,432.667 79.5,432C 76.6508,429.441 75.8175,426.274 77,422.5C 101.243,391.013 125.243,359.346 149,327.5C 150.143,316.885 150.976,306.218 151.5,295.5C 152.025,294.808 152.692,294.308 153.5,294C 160.158,293.5 166.825,293.334 173.5,293.5C 173.5,291.5 173.5,289.5 173.5,287.5C 168.703,287.879 164.036,287.379 159.5,286C 158.009,283.379 157.342,280.545 157.5,277.5C 144.163,277.333 130.829,277.5 117.5,278C 115.022,282.48 111.355,285.48 106.5,287C 96.1667,287.667 85.8333,287.667 75.5,287C 63.8314,280.42 61.3314,271.254 68,259.5C 70.8634,256.485 74.3634,254.651 78.5,254C 88.2278,253.109 97.8945,253.443 107.5,255C 111.756,256.92 115.089,259.92 117.5,264C 130.829,264.5 144.163,264.667 157.5,264.5C 156.971,260.808 157.971,257.642 160.5,255C 164.7,253.633 169.033,253.133 173.5,253.5C 173.5,250.5 173.5,247.5 173.5,244.5C 161.495,244.667 149.495,244.5 137.5,244C 135.998,243.417 134.665,242.584 133.5,241.5C 132.516,225.881 132.182,210.215 132.5,194.5C 120.808,197.674 109.141,201.007 97.5,204.5C 94.3121,204.144 92.1455,202.477 91,199.5C 90.3333,169.833 90.3333,140.167 91,110.5C 92.0848,107.75 94.0848,106.083 97,105.5C 108.771,109.147 120.604,112.48 132.5,115.5C 132.333,100.163 132.5,84.8297 133,69.5C 133.833,68.6667 134.667,67.8333 135.5,67C 170.833,66.3333 206.167,66.3333 241.5,67C 242.701,67.9025 243.535,69.0692 244,70.5C 244.5,80.1609 244.666,89.8276 244.5,99.5C 247.187,99.6641 249.854,99.4974 252.5,99C 257.124,92.2523 261.624,85.419 266,78.5C 267.319,76.5125 269.152,75.3459 271.5,75C 302.5,74.3333 333.5,74.3333 364.5,75C 365.5,75.3333 366.5,75.6667 367.5,76C 371.073,80.2278 374.573,84.3945 378,88.5C 397.947,78.4473 417.447,67.7807 436.5,56.5 Z M 429.5,75.5 C 430.497,75.4701 431.164,75.9701 431.5,77C 430.744,79.8561 429.911,82.6894 429,85.5C 425.311,93.3222 421.478,100.989 417.5,108.5C 417.577,110.299 418.077,111.966 419,113.5C 427.13,121.428 431.797,131.095 433,142.5C 434.823,156.308 433.156,169.641 428,182.5C 425.393,187.374 422.06,191.708 418,195.5C 417.129,200.999 418.795,205.666 423,209.5C 427.342,216.784 429.842,224.451 430.5,232.5C 415.92,224.627 401.42,216.627 387,208.5C 386.333,172.167 386.333,135.833 387,99.5C 401.31,91.5992 415.477,83.5992 429.5,75.5 Z M 145.5,78.5 C 174.167,78.5 202.833,78.5 231.5,78.5C 231.5,129.5 231.5,180.5 231.5,231.5C 202.833,231.5 174.167,231.5 145.5,231.5C 145.5,180.5 145.5,129.5 145.5,78.5 Z M 275.5,87.5 C 277.833,87.5 280.167,87.5 282.5,87.5C 282.5,131.5 282.5,175.5 282.5,219.5C 280.143,219.663 277.81,219.497 275.5,219C 271.21,212.92 267.043,206.753 263,200.5C 262.333,169.5 262.333,138.5 263,107.5C 267.439,100.945 271.605,94.2787 275.5,87.5 Z M 295.5,87.5 C 310.5,87.5 325.5,87.5 340.5,87.5C 340.5,131.5 340.5,175.5 340.5,219.5C 325.5,219.5 310.5,219.5 295.5,219.5C 295.5,175.5 295.5,131.5 295.5,87.5 Z M 353.5,87.5 C 355.857,87.3367 358.19,87.5034 360.5,88C 364.667,94.1667 368.833,100.333 373,106.5C 373.667,137.833 373.667,169.167 373,200.5C 368.957,206.753 364.79,212.92 360.5,219C 358.19,219.497 355.857,219.663 353.5,219.5C 353.5,175.5 353.5,131.5 353.5,87.5 Z M 183.5,106.5 C 186.833,106.5 190.167,106.5 193.5,106.5C 193.5,109.167 193.5,111.833 193.5,114.5C 190.167,114.5 186.833,114.5 183.5,114.5C 183.5,111.833 183.5,109.167 183.5,106.5 Z M 245.5,112.5 C 246.833,112.5 248.167,112.5 249.5,112.5C 249.5,140.167 249.5,167.833 249.5,195.5C 247.61,195.703 246.11,195.037 245,193.5C 244.176,166.428 244.343,139.428 245.5,112.5 Z M 103.5,121.5 C 113.167,124.167 122.833,126.833 132.5,129.5C 132.833,146.513 132.499,163.513 131.5,180.5C 122.236,183.482 112.903,186.149 103.5,188.5C 103.5,166.167 103.5,143.833 103.5,121.5 Z M 186.5,244.5 C 188.833,244.5 191.167,244.5 193.5,244.5C 193.5,247.5 193.5,250.5 193.5,253.5C 191.167,253.5 188.833,253.5 186.5,253.5C 186.5,250.5 186.5,247.5 186.5,244.5 Z M 80.5,266.5 C 87.8409,266.334 95.1742,266.5 102.5,267C 105.838,268.988 106.172,271.321 103.5,274C 95.5,274.667 87.5,274.667 79.5,274C 76.7086,271.016 77.0419,268.516 80.5,266.5 Z M 170.5,266.5 C 183.167,266.5 195.833,266.5 208.5,266.5C 208.5,269.167 208.5,271.833 208.5,274.5C 195.833,274.5 183.167,274.5 170.5,274.5C 170.5,271.833 170.5,269.167 170.5,266.5 Z M 186.5,287.5 C 188.833,287.5 191.167,287.5 193.5,287.5C 193.5,289.5 193.5,291.5 193.5,293.5C 191.167,293.5 188.833,293.5 186.5,293.5C 186.5,291.5 186.5,289.5 186.5,287.5 Z M 163.5,306.5 C 181.167,306.5 198.833,306.5 216.5,306.5C 216.5,309.167 216.5,311.833 216.5,314.5C 198.833,314.5 181.167,314.5 163.5,314.5C 163.5,311.833 163.5,309.167 163.5,306.5 Z M 165.5,327.5 C 168.167,327.5 170.833,327.5 173.5,327.5C 173.649,328.552 173.483,329.552 173,330.5C 150.621,360.09 128.121,389.59 105.5,419C 102.5,419.667 99.5,419.667 96.5,419C 119.631,388.56 142.631,358.06 165.5,327.5 Z M 186.5,327.5 C 188.833,327.5 191.167,327.5 193.5,327.5C 193.5,365.5 193.5,403.5 193.5,441.5C 191.167,441.5 188.833,441.5 186.5,441.5C 186.5,403.5 186.5,365.5 186.5,327.5 Z M 206.5,327.5 C 209.044,327.104 211.211,327.771 213,329.5C 235.5,359.333 258,389.167 280.5,419C 275.486,420.34 271.319,419.173 268,415.5C 247.667,388.5 227.333,361.5 207,334.5C 206.503,332.19 206.337,329.857 206.5,327.5 Z"/></g>
<g><path style="opacity:0.923" fill="#000000" d="M 173.5,93.5 C 183.172,93.3335 192.839,93.5002 202.5,94C 203.931,94.4652 205.097,95.2986 206,96.5C 206.667,105.5 206.667,114.5 206,123.5C 205.626,124.416 205.126,125.25 204.5,126C 194.6,127.615 184.6,127.949 174.5,127C 173.069,126.535 171.903,125.701 171,124.5C 170.333,115.167 170.333,105.833 171,96.5C 172.045,95.6266 172.878,94.6266 173.5,93.5 Z M 183.5,106.5 C 183.5,109.167 183.5,111.833 183.5,114.5C 186.833,114.5 190.167,114.5 193.5,114.5C 193.5,111.833 193.5,109.167 193.5,106.5C 190.167,106.5 186.833,106.5 183.5,106.5 Z"/></g>
<g><path style="opacity:0.878" fill="#000000" d="M 307.5,99.5 C 314.508,99.3337 321.508,99.5004 328.5,100C 331.991,101.821 333.157,104.654 332,108.5C 331.5,110.333 330.333,111.5 328.5,112C 321.5,112.667 314.5,112.667 307.5,112C 302.181,107.657 302.181,103.49 307.5,99.5 Z"/></g>
<g><path style="opacity:0.878" fill="#000000" d="M 307.5,123.5 C 314.508,123.334 321.508,123.5 328.5,124C 331.991,125.821 333.157,128.654 332,132.5C 331.5,134.333 330.333,135.5 328.5,136C 321.5,136.667 314.5,136.667 307.5,136C 302.181,131.657 302.181,127.49 307.5,123.5 Z"/></g>
<g><path style="opacity:0.91" fill="#000000" d="M 159.5,145.5 C 178.836,145.333 198.17,145.5 217.5,146C 222.153,151.413 221.153,155.413 214.5,158C 197.167,158.667 179.833,158.667 162.5,158C 157.2,156.905 155.367,153.738 157,148.5C 157.698,147.309 158.531,146.309 159.5,145.5 Z"/></g>
<g><path style="opacity:0.878" fill="#000000" d="M 307.5,147.5 C 314.508,147.334 321.508,147.5 328.5,148C 331.991,149.821 333.157,152.654 332,156.5C 331.5,158.333 330.333,159.5 328.5,160C 321.5,160.667 314.5,160.667 307.5,160C 302.181,155.657 302.181,151.49 307.5,147.5 Z"/></g>
<g><path style="opacity:0.878" fill="#000000" d="M 307.5,171.5 C 314.508,171.334 321.508,171.5 328.5,172C 331.991,173.821 333.157,176.654 332,180.5C 331.5,182.333 330.333,183.5 328.5,184C 321.5,184.667 314.5,184.667 307.5,184C 302.181,179.657 302.181,175.49 307.5,171.5 Z"/></g>
<g><path style="opacity:0.905" fill="#000000" d="M 159.5,174.5 C 178.836,174.333 198.17,174.5 217.5,175C 221.731,179.478 221.398,183.478 216.5,187C 197.833,187.667 179.167,187.667 160.5,187C 155.624,183.231 155.29,179.064 159.5,174.5 Z"/></g>
<g><path style="opacity:0.878" fill="#000000" d="M 307.5,195.5 C 314.508,195.334 321.508,195.5 328.5,196C 331.991,197.821 333.157,200.654 332,204.5C 331.5,206.333 330.333,207.5 328.5,208C 321.5,208.667 314.5,208.667 307.5,208C 302.181,203.657 302.181,199.49 307.5,195.5 Z"/></g>
<g><path style="opacity:0.904" fill="#000000" d="M 160.5,203.5 C 179.17,203.333 197.836,203.5 216.5,204C 221.398,207.522 221.731,211.522 217.5,216C 198.167,216.667 178.833,216.667 159.5,216C 155.286,211.361 155.619,207.195 160.5,203.5 Z"/></g>
</svg>
