<?xml version="1.0" encoding="UTF-8"?>
<!DOCTYPE svg PUBLIC "-//W3C//DTD SVG 1.1//EN" "http://www.w3.org/Graphics/SVG/1.1/DTD/svg11.dtd">
<svg xmlns="http://www.w3.org/2000/svg" version="1.1" width="512px" height="512px" style="shape-rendering:geometricPrecision; text-rendering:geometricPrecision; image-rendering:optimizeQuality; fill-rule:evenodd; clip-rule:evenodd" xmlns:xlink="http://www.w3.org/1999/xlink">
<g><path style="opacity:0.949" fill="#000000" d="M 266.5,-0.5 C 297.833,-0.5 329.167,-0.5 360.5,-0.5C 371.751,2.91252 380.585,9.57918 387,19.5C 389.039,23.7453 391.206,27.912 393.5,32C 408.5,32.3333 423.5,32.6667 438.5,33C 455.895,37.7269 466.395,48.8936 470,66.5C 470.667,126.5 470.667,186.5 470,246.5C 466.638,262.728 457.138,273.562 441.5,279C 407.216,280.473 372.882,280.973 338.5,280.5C 340.733,296.555 334.4,307.388 319.5,313C 309.506,313.5 299.506,313.666 289.5,313.5C 289.5,324.167 289.5,334.833 289.5,345.5C 300.5,345.5 311.5,345.5 322.5,345.5C 322.5,400.833 322.5,456.167 322.5,511.5C 277.833,511.5 233.167,511.5 188.5,511.5C 188.5,500.5 188.5,489.5 188.5,478.5C 177.833,478.5 167.167,478.5 156.5,478.5C 156.786,486.377 156.453,494.21 155.5,502C 153.572,506.764 150.239,509.931 145.5,511.5C 136.167,511.5 126.833,511.5 117.5,511.5C 112.436,508.932 108.936,504.932 107,499.5C 106.022,467.772 106.356,436.106 108,404.5C 110.315,400.183 113.815,397.35 118.5,396C 128.242,395.08 137.908,395.413 147.5,397C 151.388,399.222 154.221,402.388 156,406.5C 156.5,413.826 156.666,421.159 156.5,428.5C 167.167,428.5 177.833,428.5 188.5,428.5C 188.5,400.833 188.5,373.167 188.5,345.5C 199.5,345.5 210.5,345.5 221.5,345.5C 221.5,334.833 221.5,324.167 221.5,313.5C 211.494,313.666 201.494,313.5 191.5,313C 176.6,307.388 170.267,296.555 172.5,280.5C 139.498,280.667 106.498,280.5 73.5,280C 55.5492,275.716 44.7158,264.549 41,246.5C 40.3333,186.167 40.3333,125.833 41,65.5C 45.0564,48.4433 55.5564,37.61 72.5,33C 126.17,32.8333 179.836,32.3333 233.5,31.5C 239.37,15.2935 250.37,4.62679 266.5,-0.5 Z M 271.5,16.5 C 299.502,16.3334 327.502,16.5 355.5,17C 361.896,18.6196 367.062,22.1196 371,27.5C 374.5,34.5 378,41.5 381.5,48.5C 398.824,49.333 416.157,49.833 433.5,50C 444.877,52.7114 451.377,59.8781 453,71.5C 453.98,129.87 453.647,188.203 452,246.5C 448.237,255.265 441.737,260.765 432.5,263C 346.167,263.5 259.834,263.667 173.5,263.5C 173.5,192.167 173.5,120.833 173.5,49.5C 197.169,49.6666 220.836,49.5 244.5,49C 248.539,41.0874 252.706,33.254 257,25.5C 261.053,21.066 265.886,18.066 271.5,16.5 Z M 77.5,49.5 C 103.5,49.5 129.5,49.5 155.5,49.5C 155.5,120.833 155.5,192.167 155.5,263.5C 129.831,263.667 104.165,263.5 78.5,263C 69.2633,260.765 62.7633,255.265 59,246.5C 57.3532,188.203 57.0198,129.87 58,71.5C 59.8112,59.863 66.3112,52.5297 77.5,49.5 Z M 304.5,49.5 C 351.659,48.8497 383.493,70.5164 400,114.5C 410.375,163.911 393.209,200.077 348.5,223C 301.777,238.647 264.277,226.48 236,186.5C 216.127,148.634 219.461,112.967 246,79.5C 262.077,62.7122 281.577,52.7122 304.5,49.5 Z M 90.5,82.5 C 101.167,82.5 111.833,82.5 122.5,82.5C 122.5,87.8333 122.5,93.1667 122.5,98.5C 111.833,98.5 101.167,98.5 90.5,98.5C 90.5,93.1667 90.5,87.8333 90.5,82.5 Z M 306.5,82.5 C 338.126,82.047 358.96,96.7137 369,126.5C 373.885,160.267 360.385,183.1 328.5,195C 300.287,200.823 278.454,191.656 263,167.5C 249.685,136.464 256.518,110.964 283.5,91C 290.88,87.0439 298.547,84.2106 306.5,82.5 Z M 310.5,132.5 C 316.594,131.541 320.261,134.041 321.5,140C 319.847,145.674 316.18,148.007 310.5,147C 303.899,142.171 303.899,137.338 310.5,132.5 Z M 399.5,204.5 C 406.2,214.652 404.2,222.819 393.5,229C 388.589,231.11 383.922,230.61 379.5,227.5C 378.479,226.998 378.312,226.332 379,225.5C 386.707,219.294 393.54,212.294 399.5,204.5 Z M 189.5,280.5 C 233.5,280.5 277.5,280.5 321.5,280.5C 321.656,284.582 321.156,288.582 320,292.5C 318.681,294.487 316.848,295.654 314.5,296C 275.167,296.667 235.833,296.667 196.5,296C 194.152,295.654 192.319,294.487 191,292.5C 189.844,288.582 189.344,284.582 189.5,280.5 Z M 239.5,313.5 C 250.167,313.5 260.833,313.5 271.5,313.5C 271.5,324.167 271.5,334.833 271.5,345.5C 260.833,345.5 250.167,345.5 239.5,345.5C 239.5,334.833 239.5,324.167 239.5,313.5 Z M 206.5,363.5 C 239.167,363.5 271.833,363.5 304.5,363.5C 304.5,368.5 304.5,373.5 304.5,378.5C 271.833,378.5 239.167,378.5 206.5,378.5C 206.5,373.5 206.5,368.5 206.5,363.5 Z M 206.5,396.5 C 239.167,396.5 271.833,396.5 304.5,396.5C 304.5,401.5 304.5,406.5 304.5,411.5C 271.833,411.5 239.167,411.5 206.5,411.5C 206.5,406.5 206.5,401.5 206.5,396.5 Z M 123.5,412.5 C 128.833,412.5 134.167,412.5 139.5,412.5C 139.5,439.833 139.5,467.167 139.5,494.5C 134.167,494.5 128.833,494.5 123.5,494.5C 123.5,467.167 123.5,439.833 123.5,412.5 Z M 206.5,429.5 C 239.167,429.5 271.833,429.5 304.5,429.5C 304.5,451.167 304.5,472.833 304.5,494.5C 299.5,494.5 294.5,494.5 289.5,494.5C 289.5,477.833 289.5,461.167 289.5,444.5C 266.833,444.5 244.167,444.5 221.5,444.5C 221.5,461.167 221.5,477.833 221.5,494.5C 216.5,494.5 211.5,494.5 206.5,494.5C 206.5,472.833 206.5,451.167 206.5,429.5 Z M 156.5,445.5 C 167.167,445.5 177.833,445.5 188.5,445.5C 188.5,450.833 188.5,456.167 188.5,461.5C 177.833,461.5 167.167,461.5 156.5,461.5C 156.5,456.167 156.5,450.833 156.5,445.5 Z M 239.5,462.5 C 250.167,462.5 260.833,462.5 271.5,462.5C 271.5,473.167 271.5,483.833 271.5,494.5C 260.833,494.5 250.167,494.5 239.5,494.5C 239.5,483.833 239.5,473.167 239.5,462.5 Z"/></g>
<g><path style="opacity:0.934" fill="#000000" d="M 298.5,32.5 C 349.288,28.9675 386.788,49.3009 411,93.5C 425.314,125.4 424.814,157.067 409.5,188.5C 425.444,205.663 425.444,222.83 409.5,240C 392.649,250.915 376.649,249.749 361.5,236.5C 317.703,255.6 277.37,250.1 240.5,220C 207.802,187.208 198.135,148.541 211.5,104C 227.466,64.192 256.466,40.3586 298.5,32.5 Z M 304.5,49.5 C 281.577,52.7122 262.077,62.7122 246,79.5C 219.461,112.967 216.127,148.634 236,186.5C 264.277,226.48 301.777,238.647 348.5,223C 393.209,200.077 410.375,163.911 400,114.5C 383.493,70.5164 351.659,48.8497 304.5,49.5 Z M 306.5,82.5 C 298.547,84.2106 290.88,87.0439 283.5,91C 256.518,110.964 249.685,136.464 263,167.5C 278.454,191.656 300.287,200.823 328.5,195C 360.385,183.1 373.885,160.267 369,126.5C 358.96,96.7137 338.126,82.047 306.5,82.5 Z M 310.5,132.5 C 303.899,137.338 303.899,142.171 310.5,147C 316.18,148.007 319.847,145.674 321.5,140C 320.261,134.041 316.594,131.541 310.5,132.5 Z M 399.5,204.5 C 393.54,212.294 386.707,219.294 379,225.5C 378.312,226.332 378.479,226.998 379.5,227.5C 383.922,230.61 388.589,231.11 393.5,229C 404.2,222.819 406.2,214.652 399.5,204.5 Z"/></g>
<g><path style="opacity:0.961" fill="#000000" d="M 73.5,65.5 C 95.8333,65.5 118.167,65.5 140.5,65.5C 140.5,82.1667 140.5,98.8333 140.5,115.5C 118.167,115.5 95.8333,115.5 73.5,115.5C 73.5,98.8333 73.5,82.1667 73.5,65.5 Z M 90.5,82.5 C 90.5,87.8333 90.5,93.1667 90.5,98.5C 101.167,98.5 111.833,98.5 122.5,98.5C 122.5,93.1667 122.5,87.8333 122.5,82.5C 111.833,82.5 101.167,82.5 90.5,82.5 Z"/></g>
<g><path style="opacity:0.932" fill="#000000" d="M 301.5,65.5 C 338.468,62.0604 365.302,76.7271 382,109.5C 394.715,145.144 386.882,175.311 358.5,200C 330.433,218.146 301.767,219.146 272.5,203C 242.085,180.089 232.252,150.255 243,113.5C 254,86.9887 273.5,70.9887 301.5,65.5 Z M 306.5,82.5 C 298.547,84.2106 290.88,87.0439 283.5,91C 256.518,110.964 249.685,136.464 263,167.5C 278.454,191.656 300.287,200.823 328.5,195C 360.385,183.1 373.885,160.267 369,126.5C 358.96,96.7137 338.126,82.047 306.5,82.5 Z M 310.5,132.5 C 303.899,137.338 303.899,142.171 310.5,147C 316.18,148.007 319.847,145.674 321.5,140C 320.261,134.041 316.594,131.541 310.5,132.5 Z"/></g>
<g><path style="opacity:0.931" fill="#000000" d="M 308.5,114.5 C 329.485,114.316 339.318,124.65 338,145.5C 334.468,157.701 326.302,164.367 313.5,165.5C 291.623,161.439 284.123,148.772 291,127.5C 295.049,120.599 300.882,116.266 308.5,114.5 Z M 310.5,132.5 C 303.899,137.338 303.899,142.171 310.5,147C 316.18,148.007 319.847,145.674 321.5,140C 320.261,134.041 316.594,131.541 310.5,132.5 Z"/></g>
</svg>
