<?xml version="1.0" standalone="no"?>
<!DOCTYPE svg PUBLIC "-//W3C//DTD SVG 20010904//EN"
 "http://www.w3.org/TR/2001/REC-SVG-20010904/DTD/svg10.dtd">
<svg version="1.0" xmlns="http://www.w3.org/2000/svg"
 width="512.000000pt" height="512.000000pt" viewBox="0 0 512.000000 512.000000"
 preserveAspectRatio="xMidYMid meet">

<g transform="translate(0.000000,512.000000) scale(0.100000,-0.100000)"
fill="#000000" stroke="none">
<path d="M312 4626 c-140 -53 -240 -154 -290 -296 -13 -37 -16 -113 -19 -443
l-4 -397 233 2 233 3 3 348 2 347 2090 0 2090 0 0 -1630 0 -1630 -810 0 -810
0 0 -230 0 -230 853 0 c828 0 856 1 912 20 152 52 264 167 306 315 21 75 21
3435 0 3510 -42 148 -154 263 -306 315 -57 20 -82 20 -2239 19 l-2181 0 -63
-23z"/>
<path d="M930 3531 l0 -189 53 -17 c245 -80 577 -254 807 -423 481 -355 869
-877 1058 -1423 l27 -79 658 0 657 0 0 1160 0 1160 -1630 0 -1630 0 0 -189z"/>
<path d="M0 2793 l0 -233 49 0 c27 0 95 -5 152 -10 489 -50 929 -259 1279
-610 184 -183 313 -368 420 -600 118 -256 190 -556 190 -792 l0 -78 235 0 235
0 0 53 c0 75 -18 257 -36 367 -115 691 -520 1316 -1109 1707 -386 257 -818
400 -1273 421 l-142 7 0 -232z"/>
<path d="M0 1862 l0 -229 113 -12 c145 -16 268 -50 393 -111 370 -179 623
-547 651 -947 l6 -93 234 0 235 0 -7 87 c-22 291 -99 534 -236 756 -226 365
-575 623 -982 728 -113 29 -248 49 -334 49 l-73 0 0 -228z"/>
<path d="M0 815 l0 -345 351 0 351 0 -7 58 c-30 260 -180 469 -412 574 -74 33
-175 58 -240 58 l-43 0 0 -345z"/>
</g>
</svg>
