<?xml version="1.0" encoding="UTF-8"?>
<!DOCTYPE svg PUBLIC "-//W3C//DTD SVG 1.1//EN" "http://www.w3.org/Graphics/SVG/1.1/DTD/svg11.dtd">
<svg xmlns="http://www.w3.org/2000/svg" version="1.1" width="512px" height="512px" style="shape-rendering:geometricPrecision; text-rendering:geometricPrecision; image-rendering:optimizeQuality; fill-rule:evenodd; clip-rule:evenodd" xmlns:xlink="http://www.w3.org/1999/xlink">
<g><path style="opacity:0.999" fill="#8a7e87" d="M 244.5,67.5 C 205.403,75.7621 181.237,99.4287 172,138.5C 169.141,161.065 173.975,181.731 186.5,200.5C 124.167,200.5 61.8333,200.5 -0.5,200.5C -0.5,166.833 -0.5,133.167 -0.5,99.5C 4.31811,83.1827 14.9848,72.6827 31.5,68C 102.499,67.5 173.499,67.3333 244.5,67.5 Z"/></g>
<g><path style="opacity:1" fill="#8a7e87" d="M 264.5,67.5 C 316.5,67.5 368.5,67.5 420.5,67.5C 438.617,70.4395 450.45,80.7729 456,98.5C 457.465,132.459 457.965,166.459 457.5,200.5C 456.833,200.5 456.5,200.833 456.5,201.5C 412.167,201.5 367.833,201.5 323.5,201.5C 340.389,176.354 343.889,149.354 334,120.5C 320.148,90.4662 296.982,72.7995 264.5,67.5 Z"/></g>
<g><path style="opacity:1" fill="#635562" d="M 420.5,67.5 C 440.169,67.3334 459.836,67.5 479.5,68C 496.015,72.6827 506.682,83.1827 511.5,99.5C 511.5,133.167 511.5,166.833 511.5,200.5C 493.5,200.5 475.5,200.5 457.5,200.5C 457.965,166.459 457.465,132.459 456,98.5C 450.45,80.7729 438.617,70.4395 420.5,67.5 Z"/></g>
<g><path style="opacity:1" fill="#635562" d="M 244.5,67.5 C 251.167,67.5 257.833,67.5 264.5,67.5C 296.982,72.7995 320.148,90.4662 334,120.5C 343.889,149.354 340.389,176.354 323.5,201.5C 308.874,221.321 289.207,232.654 264.5,235.5C 258.167,235.5 251.833,235.5 245.5,235.5C 221.128,232.153 201.461,220.819 186.5,201.5C 186.5,201.167 186.5,200.833 186.5,200.5C 173.975,181.731 169.141,161.065 172,138.5C 181.237,99.4287 205.403,75.7621 244.5,67.5 Z"/></g>
<g><path style="opacity:1" fill="#8ed6f4" d="M 229.5,199.5 C 242.652,193.343 251.652,183.343 256.5,169.5C 269.03,167.441 274.53,160.107 273,147.5C 269.656,137.741 262.823,133.408 252.5,134.5C 253.609,133.71 254.942,133.21 256.5,133C 252.435,122.936 246.102,114.603 237.5,108C 235.182,106.007 232.516,104.841 229.5,104.5C 255.976,91.9044 279.143,96.5711 299,118.5C 308.785,131.98 312.118,146.98 309,163.5C 297.56,197.808 274.06,211.308 238.5,204C 235.177,202.96 232.177,201.46 229.5,199.5 Z"/></g>
<g><path style="opacity:1" fill="#fcde76" d="M 100.5,103.5 C 93.4921,103.334 86.4921,103.5 79.5,104C 92.6237,110.037 95.7904,119.537 89,132.5C 86.4067,135.543 83.24,137.71 79.5,139C 86.1583,139.5 92.825,139.666 99.5,139.5C 84.6723,140.661 69.6723,140.828 54.5,140C 39.0081,133.524 35.5081,123.024 44,108.5C 46.9535,106.274 50.1202,104.441 53.5,103C 69.3388,102.172 85.0054,102.339 100.5,103.5 Z"/></g>
<g><path style="opacity:1" fill="#fdce5c" d="M 100.5,103.5 C 109.708,105.88 114.708,111.88 115.5,121.5C 114.284,131.321 108.951,137.321 99.5,139.5C 92.825,139.666 86.1583,139.5 79.5,139C 83.24,137.71 86.4067,135.543 89,132.5C 95.7904,119.537 92.6237,110.037 79.5,104C 86.4921,103.5 93.4921,103.334 100.5,103.5 Z"/></g>
<g><path style="opacity:1" fill="#bce7f8" d="M 229.5,104.5 C 232.516,104.841 235.182,106.007 237.5,108C 246.102,114.603 252.435,122.936 256.5,133C 254.942,133.21 253.609,133.71 252.5,134.5C 241.408,137.678 236.575,145.012 238,156.5C 241.205,165.176 247.372,169.509 256.5,169.5C 251.652,183.343 242.652,193.343 229.5,199.5C 210.487,188.657 201.154,172.157 201.5,150C 202.34,129.467 211.673,114.3 229.5,104.5 Z"/></g>
<g><path style="opacity:1" fill="#645664" d="M 252.5,134.5 C 262.823,133.408 269.656,137.741 273,147.5C 274.53,160.107 269.03,167.441 256.5,169.5C 247.372,169.509 241.205,165.176 238,156.5C 236.575,145.012 241.408,137.678 252.5,134.5 Z"/></g>
<g><path style="opacity:1" fill="#9ce498" d="M 370.5,144.5 C 396.169,144.333 421.835,144.5 447.5,145C 453.729,149.171 454.062,153.837 448.5,159C 422.167,159.667 395.833,159.667 369.5,159C 364.003,153.683 364.336,148.85 370.5,144.5 Z"/></g>
<g><path style="opacity:1" fill="#a97e88" d="M -0.5,200.5 C 61.8333,200.5 124.167,200.5 186.5,200.5C 186.5,200.833 186.5,201.167 186.5,201.5C 124.5,201.5 62.5,201.5 0.5,201.5C 0.5,202.5 0.5,203.5 0.5,204.5C 0.166667,204.5 -0.166667,204.5 -0.5,204.5C -0.5,203.167 -0.5,201.833 -0.5,200.5 Z"/></g>
<g><path style="opacity:1" fill="#ab616d" d="M 456.5,201.5 C 456.5,200.833 456.833,200.5 457.5,200.5C 475.5,200.5 493.5,200.5 511.5,200.5C 511.5,201.833 511.5,203.167 511.5,204.5C 511.167,204.5 510.833,204.5 510.5,204.5C 510.5,203.5 510.5,202.5 510.5,201.5C 492.5,201.5 474.5,201.5 456.5,201.5 Z"/></g>
<g><path style="opacity:0.996" fill="#fe7f86" d="M 186.5,201.5 C 201.461,220.819 221.128,232.153 245.5,235.5C 225.007,236.497 204.34,236.831 183.5,236.5C 132.832,236.667 82.1656,236.5 31.5,236C 14.9026,231.57 4.56927,221.07 0.5,204.5C 0.5,203.5 0.5,202.5 0.5,201.5C 62.5,201.5 124.5,201.5 186.5,201.5 Z"/></g>
<g><path style="opacity:0.999" fill="#fe7f86" d="M 323.5,201.5 C 367.833,201.5 412.167,201.5 456.5,201.5C 452.311,221.357 440.311,233.024 420.5,236.5C 389.5,236.5 358.5,236.5 327.5,236.5C 307.833,236.5 288.167,236.5 268.5,236.5C 266.901,236.768 265.568,236.434 264.5,235.5C 289.207,232.654 308.874,221.321 323.5,201.5 Z"/></g>
<g><path style="opacity:1" fill="#fc6470" d="M 456.5,201.5 C 474.5,201.5 492.5,201.5 510.5,201.5C 510.5,202.5 510.5,203.5 510.5,204.5C 507.038,219.468 498.038,229.635 483.5,235C 462.554,236.454 441.554,236.954 420.5,236.5C 440.311,233.024 452.311,221.357 456.5,201.5 Z"/></g>
<g><path style="opacity:1" fill="#897d87" d="M 245.5,235.5 C 251.833,235.5 258.167,235.5 264.5,235.5C 265.568,236.434 266.901,236.768 268.5,236.5C 268.5,274.833 268.5,313.167 268.5,351.5C 240.167,351.5 211.833,351.5 183.5,351.5C 183.5,313.167 183.5,274.833 183.5,236.5C 204.34,236.831 225.007,236.497 245.5,235.5 Z"/></g>
<g><path style="opacity:1" fill="#635562" d="M 268.5,236.5 C 288.167,236.5 307.833,236.5 327.5,236.5C 327.5,274.833 327.5,313.167 327.5,351.5C 310.833,351.5 294.167,351.5 277.5,351.5C 274.5,351.5 271.5,351.5 268.5,351.5C 268.5,313.167 268.5,274.833 268.5,236.5 Z"/></g>
<g><path style="opacity:0.996" fill="#fe7f86" d="M 183.5,351.5 C 211.833,351.5 240.167,351.5 268.5,351.5C 271.5,351.5 274.5,351.5 277.5,351.5C 283.626,353.78 288.459,357.78 292,363.5C 293.135,374.932 293.635,386.432 293.5,398C 293.635,409.568 293.135,421.068 292,432.5C 288.742,439.27 283.575,443.603 276.5,445.5C 242.165,445.667 207.832,445.5 173.5,445C 166,442.833 161.167,438 159,430.5C 158.333,408.833 158.333,387.167 159,365.5C 163.643,354.76 171.809,350.093 183.5,351.5 Z"/></g>
<g><path style="opacity:1" fill="#fd6470" d="M 277.5,351.5 C 294.167,351.5 310.833,351.5 327.5,351.5C 339.191,350.093 347.357,354.76 352,365.5C 352.667,387.167 352.667,408.833 352,430.5C 349.833,438 345,442.833 337.5,445C 317.169,445.5 296.836,445.667 276.5,445.5C 283.575,443.603 288.742,439.27 292,432.5C 293.135,421.068 293.635,409.568 293.5,398C 293.635,386.432 293.135,374.932 292,363.5C 288.459,357.78 283.626,353.78 277.5,351.5 Z"/></g>
</svg>
