<?xml version="1.0" encoding="UTF-8"?>
<!DOCTYPE svg PUBLIC "-//W3C//DTD SVG 1.1//EN" "http://www.w3.org/Graphics/SVG/1.1/DTD/svg11.dtd">
<svg xmlns="http://www.w3.org/2000/svg" version="1.1" width="512px" height="512px" style="shape-rendering:geometricPrecision; text-rendering:geometricPrecision; image-rendering:optimizeQuality; fill-rule:evenodd; clip-rule:evenodd" xmlns:xlink="http://www.w3.org/1999/xlink">
<g><path style="opacity:0.961" fill="#aa9ea9" d="M 4.5,-0.5 C 51.8333,-0.5 99.1667,-0.5 146.5,-0.5C 152.632,4.26731 152.966,9.43397 147.5,15C 142.177,15.4994 136.844,15.666 131.5,15.5C 94.1667,15.5 56.8333,15.5 19.5,15.5C 14.1563,15.666 8.82294,15.4994 3.5,15C 1.64977,14.3103 0.316435,13.1436 -0.5,11.5C -0.5,8.83333 -0.5,6.16667 -0.5,3.5C 1.19107,2.13632 2.85774,0.802988 4.5,-0.5 Z"/></g>
<g><path style="opacity:0.962" fill="#aa9ea9" d="M 364.5,-0.5 C 411.833,-0.5 459.167,-0.5 506.5,-0.5C 508.142,0.802988 509.809,2.13632 511.5,3.5C 511.5,6.16667 511.5,8.83333 511.5,11.5C 510.684,13.1436 509.35,14.3103 507.5,15C 502.177,15.4994 496.844,15.666 491.5,15.5C 454.167,15.5 416.833,15.5 379.5,15.5C 374.156,15.666 368.823,15.4994 363.5,15C 358.034,9.43397 358.368,4.26731 364.5,-0.5 Z"/></g>
<g><path style="opacity:0.977" fill="#baafb9" d="M 19.5,15.5 C 56.8333,15.5 94.1667,15.5 131.5,15.5C 131.666,20.8437 131.499,26.1771 131,31.5C 127.615,40.4475 121.115,44.1142 111.5,42.5C 102.949,41.2529 94.6161,41.2529 86.5,42.5C 66.4325,42.9641 46.4325,42.4641 26.5,41C 23.2716,39.4371 21.1049,36.9371 20,33.5C 19.5005,27.5092 19.3338,21.5092 19.5,15.5 Z"/></g>
<g><path style="opacity:0.98" fill="#baafb9" d="M 379.5,15.5 C 416.833,15.5 454.167,15.5 491.5,15.5C 491.666,21.5092 491.499,27.5092 491,33.5C 489.895,36.9371 487.728,39.4371 484.5,41C 464.567,42.4641 444.567,42.9641 424.5,42.5C 416.167,42.5 407.833,42.5 399.5,42.5C 390.413,44.0408 383.913,40.7074 380,32.5C 379.501,26.8431 379.334,21.1764 379.5,15.5 Z"/></g>
<g><path style="opacity:0.998" fill="#b5acb6" d="M 111.5,42.5 C 121.769,45.7302 130.603,51.3968 138,59.5C 144.77,69.3862 151.27,79.3862 157.5,89.5C 130.815,108.166 103.815,126.499 76.5,144.5C 70.432,136.043 64.5986,127.376 59,118.5C 51.8867,105.701 49.5534,92.0348 52,77.5C 54.11,69.952 57.2767,62.952 61.5,56.5C 68.8778,50.1211 77.2111,45.4544 86.5,42.5C 94.6161,41.2529 102.949,41.2529 111.5,42.5 Z"/></g>
<g><path style="opacity:0.998" fill="#aa9ea9" d="M 399.5,42.5 C 407.833,42.5 416.167,42.5 424.5,42.5C 433.195,45.0143 440.862,49.3476 447.5,55.5C 425.474,51.7852 407.307,58.4518 393,75.5C 386.724,85.0743 380.224,94.4076 373.5,103.5C 366.332,99.4173 359.332,95.0839 352.5,90.5C 359.111,80.0488 365.944,69.7154 373,59.5C 380.397,51.3968 389.231,45.7302 399.5,42.5 Z"/></g>
<g><path style="opacity:0.998" fill="#b5adb6" d="M 447.5,55.5 C 462.373,62.2048 473.54,72.8715 481,87.5C 485.913,101.303 485.58,114.97 480,128.5C 473.362,139.617 466.195,150.283 458.5,160.5C 430.149,141.807 401.816,123.141 373.5,104.5C 373.5,104.167 373.5,103.833 373.5,103.5C 380.224,94.4076 386.724,85.0743 393,75.5C 407.307,58.4518 425.474,51.7852 447.5,55.5 Z"/></g>
<g><path style="opacity:0.997" fill="#aa9ea9" d="M 61.5,56.5 C 57.2767,62.952 54.11,69.952 52,77.5C 49.5534,92.0348 51.8867,105.701 59,118.5C 64.5986,127.376 70.432,136.043 76.5,144.5C 103.815,126.499 130.815,108.166 157.5,89.5C 163.103,95.6048 168.936,101.605 175,107.5C 177.004,111.328 176.504,114.828 173.5,118C 166.472,122.511 159.472,127.011 152.5,131.5C 131.851,145.141 111.184,158.807 90.5,172.5C 89.2058,171.71 88.0391,170.71 87,169.5C 83.8477,161.2 80.1811,153.2 76,145.5C 68.0414,150.308 60.5414,155.642 53.5,161.5C 44.3774,149.525 36.2107,136.858 29,123.5C 22.5711,101.125 28.0711,82.2922 45.5,67C 50.6907,63.241 56.0241,59.741 61.5,56.5 Z"/></g>
<g><path style="opacity:1" fill="#9b8e99" d="M 352.5,90.5 C 359.332,95.0839 366.332,99.4173 373.5,103.5C 373.5,103.833 373.5,104.167 373.5,104.5C 366.051,111.941 359.051,119.607 352.5,127.5C 347.024,124.259 341.691,120.759 336.5,117C 334.265,113.913 334.099,110.747 336,107.5C 341.73,101.938 347.23,96.2714 352.5,90.5 Z"/></g>
<g><path style="opacity:0.994" fill="#aa9ea8" d="M 373.5,104.5 C 401.816,123.141 430.149,141.807 458.5,160.5C 455.014,168.141 451.514,175.807 448,183.5C 444.888,186.723 441.388,187.223 437.5,185C 431.805,181.157 426.138,177.323 420.5,173.5C 400.188,159.008 379.521,145.008 358.5,131.5C 356.205,130.525 354.205,129.192 352.5,127.5C 359.051,119.607 366.051,111.941 373.5,104.5 Z"/></g>
<g><path style="opacity:0.993" fill="#fdf5ac" d="M 152.5,131.5 C 186.807,164.139 221.14,196.806 255.5,229.5C 255.167,230.167 254.833,230.833 254.5,231.5C 220.807,263.528 187.14,295.528 153.5,327.5C 153.167,327.5 152.833,327.5 152.5,327.5C 132.346,275.873 111.679,224.54 90.5,173.5C 90.5,173.167 90.5,172.833 90.5,172.5C 111.184,158.807 131.851,145.141 152.5,131.5 Z"/></g>
<g><path style="opacity:0.995" fill="#fde87c" d="M 358.5,131.5 C 379.521,145.008 400.188,159.008 420.5,173.5C 399.6,224.854 379.266,276.52 359.5,328.5C 359.167,328.5 358.833,328.5 358.5,328.5C 324.729,296.565 291.062,264.398 257.5,232C 256.552,231.517 255.552,231.351 254.5,231.5C 254.833,230.833 255.167,230.167 255.5,229.5C 289.86,196.806 324.193,164.139 358.5,131.5 Z"/></g>
<g><path style="opacity:1" fill="#9b8e99" d="M 90.5,172.5 C 90.5,172.833 90.5,173.167 90.5,173.5C 84.8621,177.323 79.1954,181.157 73.5,185C 69.6123,187.223 66.1123,186.723 63,183.5C 59.5355,176.266 56.3689,168.933 53.5,161.5C 60.5414,155.642 68.0414,150.308 76,145.5C 80.1811,153.2 83.8477,161.2 87,169.5C 88.0391,170.71 89.2058,171.71 90.5,172.5 Z"/></g>
<g><path style="opacity:1" fill="#fee45a" d="M 254.5,231.5 C 255.552,231.351 256.552,231.517 257.5,232C 291.062,264.398 324.729,296.565 358.5,328.5C 337.029,383.579 315.363,438.579 293.5,493.5C 270.088,495.511 246.755,498.178 223.5,501.5C 223.167,501.5 222.833,501.5 222.5,501.5C 214.629,479.438 205.963,457.772 196.5,436.5C 200.16,431.843 204.493,427.843 209.5,424.5C 210.52,422.568 210.687,420.568 210,418.5C 202.54,413.374 196.04,407.207 190.5,400C 187.935,399.391 185.601,399.891 183.5,401.5C 173.325,376.989 163.325,352.323 153.5,327.5C 187.14,295.528 220.807,263.528 254.5,231.5 Z"/></g>
<g><path style="opacity:0.952" fill="#fee459" d="M 442.5,278.5 C 443.766,279.09 445.099,279.59 446.5,280C 450.544,285.711 455.544,290.378 461.5,294C 463.444,296.153 463.944,298.653 463,301.5C 456.5,306.667 450.667,312.5 445.5,319C 444.234,319.309 443.067,319.809 442,320.5C 438.465,318.82 435.799,316.153 434,312.5C 430.633,308.797 426.966,305.464 423,302.5C 421.779,297.03 423.946,293.53 429.5,292C 434.172,287.501 438.506,283.001 442.5,278.5 Z"/></g>
<g><path style="opacity:0.944" fill="#fee459" d="M 64.5,291.5 C 66.5273,291.338 68.5273,291.505 70.5,292C 74.378,297.545 79.2114,302.045 85,305.5C 87,307.833 87,310.167 85,312.5C 78.9301,316.114 74.0967,320.947 70.5,327C 67.281,329.045 64.4477,328.545 62,325.5C 59.025,320.025 54.8584,315.692 49.5,312.5C 47.8953,309.42 48.562,306.92 51.5,305C 57.383,301.951 61.7163,297.451 64.5,291.5 Z"/></g>
<g><path style="opacity:0.993" fill="#fee97c" d="M 152.5,327.5 C 152.833,327.5 153.167,327.5 153.5,327.5C 163.325,352.323 173.325,376.989 183.5,401.5C 182.316,404.861 180.483,407.861 178,410.5C 173.821,413.257 169.821,416.257 166,419.5C 165.333,421.167 165.333,422.833 166,424.5C 173.179,430.013 179.346,436.513 184.5,444C 186.167,444.667 187.833,444.667 189.5,444C 191.966,441.521 194.299,439.021 196.5,436.5C 205.963,457.772 214.629,479.438 222.5,501.5C 152.81,490.885 83.1434,480.052 13.5,469C 10.1247,467.971 8.95808,465.804 10,462.5C 57.0669,416.93 104.567,371.93 152.5,327.5 Z"/></g>
<g><path style="opacity:0.991" fill="#fef6ac" d="M 358.5,328.5 C 358.833,328.5 359.167,328.5 359.5,328.5C 406.766,372.263 453.6,416.597 500,461.5C 501.414,465.752 499.914,468.252 495.5,469C 428.152,477.131 360.819,485.298 293.5,493.5C 315.363,438.579 337.029,383.579 358.5,328.5 Z"/></g>
<g><path style="opacity:1" fill="#fedf31" d="M 196.5,436.5 C 194.299,439.021 191.966,441.521 189.5,444C 187.833,444.667 186.167,444.667 184.5,444C 179.346,436.513 173.179,430.013 166,424.5C 165.333,422.833 165.333,421.167 166,419.5C 169.821,416.257 173.821,413.257 178,410.5C 180.483,407.861 182.316,404.861 183.5,401.5C 185.601,399.891 187.935,399.391 190.5,400C 196.04,407.207 202.54,413.374 210,418.5C 210.687,420.568 210.52,422.568 209.5,424.5C 204.493,427.843 200.16,431.843 196.5,436.5 Z"/></g>
<g><path style="opacity:0.956" fill="#fee97c" d="M 293.5,493.5 C 291.707,499.747 289.373,505.747 286.5,511.5C 284.5,511.5 282.5,511.5 280.5,511.5C 261.5,508.167 242.5,504.833 223.5,501.5C 246.755,498.178 270.088,495.511 293.5,493.5 Z"/></g>
</svg>
