<?xml version="1.0" encoding="UTF-8"?>
<!DOCTYPE svg PUBLIC "-//W3C//DTD SVG 1.1//EN" "http://www.w3.org/Graphics/SVG/1.1/DTD/svg11.dtd">
<svg xmlns="http://www.w3.org/2000/svg" version="1.1" width="512px" height="512px" style="shape-rendering:geometricPrecision; text-rendering:geometricPrecision; image-rendering:optimizeQuality; fill-rule:evenodd; clip-rule:evenodd" xmlns:xlink="http://www.w3.org/1999/xlink">
<g><path style="opacity:0.972" fill="#475157" d="M 203.5,105.5 C 235.833,105.5 268.167,105.5 300.5,105.5C 308.343,106.167 316.343,106.833 324.5,107.5C 321.488,114.188 318.488,120.855 315.5,127.5C 287.167,127.5 258.833,127.5 230.5,127.5C 233.486,120.859 236.486,114.193 239.5,107.5C 227.34,106.833 215.34,106.167 203.5,105.5 Z"/></g>
<g><path style="opacity:0.971" fill="#414c52" d="M 300.5,105.5 C 337.167,105.5 373.833,105.5 410.5,105.5C 414.021,106.166 417.687,106.833 421.5,107.5C 418.488,114.188 415.488,120.855 412.5,127.5C 380.167,127.5 347.833,127.5 315.5,127.5C 318.488,120.855 321.488,114.188 324.5,107.5C 316.343,106.833 308.343,106.167 300.5,105.5 Z"/></g>
<g><path style="opacity:0.967" fill="#3b464c" d="M 410.5,105.5 C 433.535,105.076 456.535,105.576 479.5,107C 488.303,109.047 495.303,113.547 500.5,120.5C 497.16,128.511 493.827,136.511 490.5,144.5C 490.167,144.5 489.833,144.5 489.5,144.5C 487.659,135.678 482.326,130.178 473.5,128C 461.171,127.5 448.838,127.333 436.5,127.5C 428.5,127.5 420.5,127.5 412.5,127.5C 415.488,120.855 418.488,114.188 421.5,107.5C 417.687,106.833 414.021,106.166 410.5,105.5 Z"/></g>
<g><path style="opacity:1" fill="#4e585d" d="M 38.5,106.5 C 93.3308,105.501 148.331,105.168 203.5,105.5C 215.34,106.167 227.34,106.833 239.5,107.5C 236.486,114.193 233.486,120.859 230.5,127.5C 185.833,127.5 141.167,127.5 96.5,127.5C 99.4856,120.859 102.486,114.193 105.5,107.5C 83.1766,106.5 60.8433,106.167 38.5,106.5 Z"/></g>
<g><path style="opacity:0.995" fill="#354147" d="M 500.5,120.5 C 503.366,122.546 505.533,125.213 507,128.5C 508.428,132.307 509.928,135.974 511.5,139.5C 511.5,186.833 511.5,234.167 511.5,281.5C 504.5,295.5 497.5,309.5 490.5,323.5C 490.5,263.833 490.5,204.167 490.5,144.5C 493.827,136.511 497.16,128.511 500.5,120.5 Z"/></g>
<g><path style="opacity:1" fill="#e8e9e9" d="M 96.5,127.5 C 141.167,127.5 185.833,127.5 230.5,127.5C 258.833,127.5 287.167,127.5 315.5,127.5C 347.833,127.5 380.167,127.5 412.5,127.5C 420.5,127.5 428.5,127.5 436.5,127.5C 430.652,141.537 424.319,155.371 417.5,169C 309.333,169.167 201.333,169.667 93.5,170.5C 78.0448,172.117 68.2115,180.45 64,195.5C 63.3333,234.167 63.3333,272.833 64,311.5C 65.132,322.448 70.2987,330.782 79.5,336.5C 79.369,337.239 79.5357,337.906 80,338.5C 95.0352,353.368 109.869,368.368 124.5,383.5C 119.833,383.5 115.167,383.5 110.5,383.5C 90.1667,383.5 69.8333,383.5 49.5,383.5C 35.3878,385.367 25.8878,379.7 21,366.5C 20.5,324.168 20.3333,281.835 20.5,239.5C 20.3334,207.832 20.5,176.165 21,144.5C 23.3459,136.279 28.5126,130.779 36.5,128C 56.4972,127.5 76.4972,127.333 96.5,127.5 Z"/></g>
<g><path style="opacity:1" fill="#e3e3e3" d="M 436.5,127.5 C 448.838,127.333 461.171,127.5 473.5,128C 482.326,130.178 487.659,135.678 489.5,144.5C 489.667,173.502 489.5,202.502 489,231.5C 474.581,216.578 459.748,202.245 444.5,188.5C 440.002,179.175 432.669,173.342 422.5,171C 412.172,170.5 401.839,170.334 391.5,170.5C 359.167,170.5 326.833,170.5 294.5,170.5C 266.5,170.5 238.5,170.5 210.5,170.5C 189.833,170.5 169.167,170.5 148.5,170.5C 130.167,170.5 111.833,170.5 93.5,170.5C 201.333,169.667 309.333,169.167 417.5,169C 424.319,155.371 430.652,141.537 436.5,127.5 Z"/></g>
<g><path style="opacity:1" fill="#566065" d="M 38.5,106.5 C 60.8433,106.167 83.1766,106.5 105.5,107.5C 102.486,114.193 99.4856,120.859 96.5,127.5C 76.4972,127.333 56.4972,127.5 36.5,128C 28.5126,130.779 23.3459,136.279 21,144.5C 20.5,176.165 20.3334,207.832 20.5,239.5C 13.2279,253.711 6.22789,268.044 -0.5,282.5C -0.5,234.833 -0.5,187.167 -0.5,139.5C 3.6416,125.522 12.3083,115.355 25.5,109C 29.6322,107.1 33.9655,106.267 38.5,106.5 Z"/></g>
<g><path style="opacity:1" fill="#4c565b" d="M 148.5,170.5 C 169.167,170.5 189.833,170.5 210.5,170.5C 206.894,177.379 203.561,184.379 200.5,191.5C 184.167,191.5 167.833,191.5 151.5,191.5C 147.5,191.5 143.5,191.5 139.5,191.5C 142.775,184.616 145.775,177.616 148.5,170.5 Z"/></g>
<g><path style="opacity:1" fill="#475157" d="M 210.5,170.5 C 238.5,170.5 266.5,170.5 294.5,170.5C 291.773,177.62 288.773,184.62 285.5,191.5C 269.5,191.5 253.5,191.5 237.5,191.5C 225.167,191.5 212.833,191.5 200.5,191.5C 203.561,184.379 206.894,177.379 210.5,170.5 Z"/></g>
<g><path style="opacity:1" fill="#414c52" d="M 294.5,170.5 C 326.833,170.5 359.167,170.5 391.5,170.5C 388.773,177.62 385.773,184.62 382.5,191.5C 371.167,191.5 359.833,191.5 348.5,191.5C 330.5,191.5 312.5,191.5 294.5,191.5C 291.5,191.5 288.5,191.5 285.5,191.5C 288.773,184.62 291.773,177.62 294.5,170.5 Z"/></g>
<g><path style="opacity:1" fill="#1a2023" d="M 139.5,191.5 C 143.5,191.5 147.5,191.5 151.5,191.5C 144.833,198.5 138.167,205.5 131.5,212.5C 125.824,212.334 120.157,212.501 114.5,213C 109.799,214.528 107.132,217.695 106.5,222.5C 105.673,227.651 105.173,232.984 105,238.5C 98.6667,244.833 92.3333,251.167 86,257.5C 85.5,238.17 85.3334,218.836 85.5,199.5C 86.1828,195.98 88.1828,193.48 91.5,192C 107.497,191.5 123.497,191.333 139.5,191.5 Z"/></g>
<g><path style="opacity:1" fill="#1d2428" d="M 151.5,191.5 C 167.833,191.5 184.167,191.5 200.5,191.5C 212.833,191.5 225.167,191.5 237.5,191.5C 230.833,198.5 224.167,205.5 217.5,212.5C 188.833,212.5 160.167,212.5 131.5,212.5C 138.167,205.5 144.833,198.5 151.5,191.5 Z"/></g>
<g><path style="opacity:1" fill="#21292d" d="M 237.5,191.5 C 253.5,191.5 269.5,191.5 285.5,191.5C 288.5,191.5 291.5,191.5 294.5,191.5C 287.833,198.5 281.167,205.5 274.5,212.5C 255.5,212.5 236.5,212.5 217.5,212.5C 224.167,205.5 230.833,198.5 237.5,191.5 Z"/></g>
<g><path style="opacity:1" fill="#242d31" d="M 294.5,191.5 C 312.5,191.5 330.5,191.5 348.5,191.5C 341.833,198.5 335.167,205.5 328.5,212.5C 310.5,212.5 292.5,212.5 274.5,212.5C 281.167,205.5 287.833,198.5 294.5,191.5 Z"/></g>
<g><path style="opacity:1" fill="#293338" d="M 348.5,191.5 C 359.833,191.5 371.167,191.5 382.5,191.5C 394.838,191.333 407.171,191.5 419.5,192C 422.577,193.662 424.577,196.162 425.5,199.5C 425.666,209.839 425.5,220.172 425,230.5C 418.667,236.833 412.333,243.167 406,249.5C 405.83,240.324 405.33,231.324 404.5,222.5C 403.765,217.263 400.765,214.096 395.5,213C 373.169,212.5 350.836,212.333 328.5,212.5C 335.167,205.5 341.833,198.5 348.5,191.5 Z"/></g>
<g><path style="opacity:1" fill="#505a5f" d="M 93.5,170.5 C 111.833,170.5 130.167,170.5 148.5,170.5C 145.775,177.616 142.775,184.616 139.5,191.5C 123.497,191.333 107.497,191.5 91.5,192C 88.1828,193.48 86.1828,195.98 85.5,199.5C 84.5017,232.329 84.1684,265.329 84.5,298.5C 81.6547,313.979 87.9881,321.312 103.5,320.5C 99.9395,326.951 96.9395,333.618 94.5,340.5C 89.0443,340.791 84.0443,339.458 79.5,336.5C 70.2987,330.782 65.132,322.448 64,311.5C 63.3333,272.833 63.3333,234.167 64,195.5C 68.2115,180.45 78.0448,172.117 93.5,170.5 Z"/></g>
<g><path style="opacity:1" fill="#979798" d="M 131.5,212.5 C 160.167,212.5 188.833,212.5 217.5,212.5C 236.5,212.5 255.5,212.5 274.5,212.5C 292.5,212.5 310.5,212.5 328.5,212.5C 350.836,212.333 373.169,212.5 395.5,213C 400.765,214.096 403.765,217.263 404.5,222.5C 404.667,238.503 404.5,254.503 404,270.5C 402.833,273 401,274.833 398.5,276C 386.5,276.333 374.5,276.667 362.5,277C 359.734,287.12 353.734,289.786 344.5,285C 342.426,282.698 341.092,280.032 340.5,277C 326.327,276.173 312.327,276.339 298.5,277.5C 295.573,287.245 289.573,289.745 280.5,285C 278.426,282.698 277.092,280.032 276.5,277C 262.327,276.173 248.327,276.339 234.5,277.5C 231.573,287.245 225.573,289.745 216.5,285C 214.426,282.698 213.092,280.032 212.5,277C 198.5,276.333 184.5,276.333 170.5,277C 167.734,287.12 161.734,289.786 152.5,285C 150.501,282.745 149.168,280.245 148.5,277.5C 136.674,276.669 124.674,276.169 112.5,276C 110,274.833 108.167,273 107,270.5C 106.5,254.503 106.333,238.503 106.5,222.5C 107.132,217.695 109.799,214.528 114.5,213C 120.157,212.501 125.824,212.334 131.5,212.5 Z"/></g>
<g><path style="opacity:1" fill="#2d383d" d="M 425.5,199.5 C 426.822,232.706 426.822,266.039 425.5,299.5C 424.381,304.286 421.381,306.953 416.5,307.5C 378.167,307.5 339.833,307.5 301.5,307.5C 310.964,297.535 320.631,287.702 330.5,278C 319.839,277.5 309.172,277.333 298.5,277.5C 312.327,276.339 326.327,276.173 340.5,277C 341.092,280.032 342.426,282.698 344.5,285C 353.734,289.786 359.734,287.12 362.5,277C 374.5,276.667 386.5,276.333 398.5,276C 401,274.833 402.833,273 404,270.5C 404.5,254.503 404.667,238.503 404.5,222.5C 405.33,231.324 405.83,240.324 406,249.5C 412.333,243.167 418.667,236.833 425,230.5C 425.5,220.172 425.666,209.839 425.5,199.5 Z"/></g>
<g><path style="opacity:1" fill="#3479af" d="M 383.5,243.5 C 298.167,243.5 212.833,243.5 127.5,243.5C 127.5,240.5 127.5,237.5 127.5,234.5C 212.833,234.5 298.167,234.5 383.5,234.5C 383.5,237.5 383.5,240.5 383.5,243.5 Z"/></g>
<g><path style="opacity:1" fill="#39454a" d="M 391.5,170.5 C 401.839,170.334 412.172,170.5 422.5,171C 432.669,173.342 440.002,179.175 444.5,188.5C 445.423,190.767 446.256,193.1 447,195.5C 447.965,236.2 447.632,276.866 446,317.5C 441.121,331.523 431.288,339.189 416.5,340.5C 382.167,340.5 347.833,340.5 313.5,340.5C 316.227,333.38 319.227,326.38 322.5,319.5C 354.502,319.667 386.502,319.5 418.5,319C 424.471,316.334 427.137,311.667 426.5,305C 426.494,302.967 426.161,301.134 425.5,299.5C 426.822,266.039 426.822,232.706 425.5,199.5C 424.577,196.162 422.577,193.662 419.5,192C 407.171,191.5 394.838,191.333 382.5,191.5C 385.773,184.62 388.773,177.62 391.5,170.5 Z"/></g>
<g><path style="opacity:1" fill="#e0e0e0" d="M 489.5,144.5 C 489.833,144.5 490.167,144.5 490.5,144.5C 490.5,204.167 490.5,263.833 490.5,323.5C 490.667,337.837 490.5,352.171 490,366.5C 485.453,379.368 476.286,385.035 462.5,383.5C 430.167,383.5 397.833,383.5 365.5,383.5C 352.5,383.5 339.5,383.5 326.5,383.5C 340.167,369.5 353.833,355.5 367.5,341.5C 384.009,341.83 400.342,341.496 416.5,340.5C 431.288,339.189 441.121,331.523 446,317.5C 447.632,276.866 447.965,236.2 447,195.5C 446.256,193.1 445.423,190.767 444.5,188.5C 459.748,202.245 474.581,216.578 489,231.5C 489.5,202.502 489.667,173.502 489.5,144.5 Z"/></g>
<g><path style="opacity:1" fill="#03589b" d="M 127.5,243.5 C 212.833,243.5 298.167,243.5 383.5,243.5C 383.5,247.5 383.5,251.5 383.5,255.5C 298.167,255.5 212.833,255.5 127.5,255.5C 127.5,251.5 127.5,247.5 127.5,243.5 Z"/></g>
<g><path style="opacity:1" fill="#1f272a" d="M 85.5,199.5 C 85.3334,218.836 85.5,238.17 86,257.5C 92.3333,251.167 98.6667,244.833 105,238.5C 105.173,232.984 105.673,227.651 106.5,222.5C 106.333,238.503 106.5,254.503 107,270.5C 108.167,273 110,274.833 112.5,276C 124.674,276.169 136.674,276.669 148.5,277.5C 148.657,278.873 148.49,280.207 148,281.5C 139.298,290.035 130.798,298.702 122.5,307.5C 112.161,307.666 101.828,307.5 91.5,307C 87.8432,305.149 85.5099,302.316 84.5,298.5C 84.1684,265.329 84.5017,232.329 85.5,199.5 Z"/></g>
<g><path style="opacity:1" fill="#242c31" d="M 234.5,277.5 C 243.839,277.334 253.173,277.5 262.5,278C 252.631,287.702 242.964,297.535 233.5,307.5C 196.5,307.5 159.5,307.5 122.5,307.5C 130.798,298.702 139.298,290.035 148,281.5C 148.49,280.207 148.657,278.873 148.5,277.5C 149.168,280.245 150.501,282.745 152.5,285C 161.734,289.786 167.734,287.12 170.5,277C 184.5,276.333 198.5,276.333 212.5,277C 213.092,280.032 214.426,282.698 216.5,285C 225.573,289.745 231.573,287.245 234.5,277.5 Z"/></g>
<g><path style="opacity:1" fill="#283136" d="M 234.5,277.5 C 248.327,276.339 262.327,276.173 276.5,277C 277.092,280.032 278.426,282.698 280.5,285C 289.573,289.745 295.573,287.245 298.5,277.5C 309.172,277.333 319.839,277.5 330.5,278C 320.631,287.702 310.964,297.535 301.5,307.5C 278.833,307.5 256.167,307.5 233.5,307.5C 242.964,297.535 252.631,287.702 262.5,278C 253.173,277.5 243.839,277.334 234.5,277.5 Z"/></g>
<g><path style="opacity:0.991" fill="#313d43" d="M 511.5,281.5 C 511.5,311.5 511.5,341.5 511.5,371.5C 506.998,388.288 496.331,399.122 479.5,404C 470.88,405.252 462.213,405.752 453.5,405.5C 456.506,398.156 459.506,390.823 462.5,383.5C 476.286,385.035 485.453,379.368 490,366.5C 490.5,352.171 490.667,337.837 490.5,323.5C 497.5,309.5 504.5,295.5 511.5,281.5 Z"/></g>
<g><path style="opacity:1" fill="#525c61" d="M 20.5,239.5 C 20.3333,281.835 20.5,324.168 21,366.5C 25.8878,379.7 35.3878,385.367 49.5,383.5C 46.2246,390.384 43.2246,397.384 40.5,404.5C 39.8333,404.5 39.1667,404.5 38.5,404.5C 22.8383,403.591 11.3383,396.258 4,382.5C 2.57157,378.693 1.07157,375.026 -0.5,371.5C -0.5,341.833 -0.5,312.167 -0.5,282.5C 6.22789,268.044 13.2279,253.711 20.5,239.5 Z"/></g>
<g><path style="opacity:1" fill="#4b5357" d="M 84.5,298.5 C 85.5099,302.316 87.8432,305.149 91.5,307C 101.828,307.5 112.161,307.666 122.5,307.5C 159.5,307.5 196.5,307.5 233.5,307.5C 256.167,307.5 278.833,307.5 301.5,307.5C 339.833,307.5 378.167,307.5 416.5,307.5C 388.338,308.498 360.005,308.831 331.5,308.5C 291.165,308.333 250.832,308.5 210.5,309C 206.963,312.369 203.629,315.869 200.5,319.5C 180.489,319.167 160.489,319.5 140.5,320.5C 136.939,326.951 133.939,333.618 131.5,340.5C 119.167,340.5 106.833,340.5 94.5,340.5C 96.9395,333.618 99.9395,326.951 103.5,320.5C 87.9881,321.312 81.6547,313.979 84.5,298.5 Z"/></g>
<g><path style="opacity:1" fill="#535a5e" d="M 331.5,308.5 C 328.167,312.167 324.833,315.833 321.5,319.5C 289.5,319.5 257.5,319.5 225.5,319.5C 217.167,319.5 208.833,319.5 200.5,319.5C 203.629,315.869 206.963,312.369 210.5,309C 250.832,308.5 291.165,308.333 331.5,308.5 Z"/></g>
<g><path style="opacity:1" fill="#565f64" d="M 425.5,299.5 C 426.161,301.134 426.494,302.967 426.5,305C 427.137,311.667 424.471,316.334 418.5,319C 386.502,319.5 354.502,319.667 322.5,319.5C 322.167,319.5 321.833,319.5 321.5,319.5C 324.833,315.833 328.167,312.167 331.5,308.5C 360.005,308.831 388.338,308.498 416.5,307.5C 421.381,306.953 424.381,304.286 425.5,299.5 Z"/></g>
<g><path style="opacity:1" fill="#475157" d="M 200.5,319.5 C 208.833,319.5 217.167,319.5 225.5,319.5C 222.227,326.38 219.227,333.38 216.5,340.5C 188.167,340.5 159.833,340.5 131.5,340.5C 133.939,333.618 136.939,326.951 140.5,320.5C 160.489,319.5 180.489,319.167 200.5,319.5 Z"/></g>
<g><path style="opacity:1" fill="#414c52" d="M 225.5,319.5 C 257.5,319.5 289.5,319.5 321.5,319.5C 321.833,319.5 322.167,319.5 322.5,319.5C 319.227,326.38 316.227,333.38 313.5,340.5C 281.167,340.5 248.833,340.5 216.5,340.5C 219.227,333.38 222.227,326.38 225.5,319.5 Z"/></g>
<g><path style="opacity:1" fill="#d4d4d4" d="M 79.5,336.5 C 84.0443,339.458 89.0443,340.791 94.5,340.5C 106.833,340.5 119.167,340.5 131.5,340.5C 159.833,340.5 188.167,340.5 216.5,340.5C 248.833,340.5 281.167,340.5 313.5,340.5C 347.833,340.5 382.167,340.5 416.5,340.5C 400.342,341.496 384.009,341.83 367.5,341.5C 307.832,341.333 248.166,341.5 188.5,342C 174.631,355.701 160.965,369.535 147.5,383.5C 139.833,383.5 132.167,383.5 124.5,383.5C 109.869,368.368 95.0352,353.368 80,338.5C 79.5357,337.906 79.369,337.239 79.5,336.5 Z"/></g>
<g><path style="opacity:1" fill="#dcdcdc" d="M 367.5,341.5 C 353.833,355.5 340.167,369.5 326.5,383.5C 315.167,383.5 303.833,383.5 292.5,383.5C 260.167,383.5 227.833,383.5 195.5,383.5C 179.5,383.5 163.5,383.5 147.5,383.5C 160.965,369.535 174.631,355.701 188.5,342C 248.166,341.5 307.832,341.333 367.5,341.5 Z"/></g>
<g><path style="opacity:1" fill="#4c565b" d="M 49.5,383.5 C 69.8333,383.5 90.1667,383.5 110.5,383.5C 107.893,390.31 104.893,396.977 101.5,403.5C 81.1776,404.5 60.8443,404.833 40.5,404.5C 43.2246,397.384 46.2246,390.384 49.5,383.5 Z"/></g>
<g><path style="opacity:0.972" fill="#475157" d="M 110.5,383.5 C 115.167,383.5 119.833,383.5 124.5,383.5C 132.167,383.5 139.833,383.5 147.5,383.5C 163.5,383.5 179.5,383.5 195.5,383.5C 192.512,390.145 189.512,396.812 186.5,403.5C 178.01,404.167 169.676,404.833 161.5,405.5C 120.33,405.832 79.3299,405.499 38.5,404.5C 39.1667,404.5 39.8333,404.5 40.5,404.5C 60.8443,404.833 81.1776,404.5 101.5,403.5C 104.893,396.977 107.893,390.31 110.5,383.5 Z"/></g>
<g><path style="opacity:0.971" fill="#414c52" d="M 195.5,383.5 C 227.833,383.5 260.167,383.5 292.5,383.5C 289.512,390.145 286.512,396.812 283.5,403.5C 279.018,404.167 274.684,404.834 270.5,405.5C 234.167,405.5 197.833,405.5 161.5,405.5C 169.676,404.833 178.01,404.167 186.5,403.5C 189.512,396.812 192.512,390.145 195.5,383.5 Z"/></g>
<g><path style="opacity:0.966" fill="#3b474c" d="M 292.5,383.5 C 303.833,383.5 315.167,383.5 326.5,383.5C 339.5,383.5 352.5,383.5 365.5,383.5C 362.506,390.823 359.506,398.156 356.5,405.5C 327.833,405.5 299.167,405.5 270.5,405.5C 274.684,404.834 279.018,404.167 283.5,403.5C 286.512,396.812 289.512,390.145 292.5,383.5 Z"/></g>
<g><path style="opacity:0.97" fill="#354147" d="M 365.5,383.5 C 397.833,383.5 430.167,383.5 462.5,383.5C 459.506,390.823 456.506,398.156 453.5,405.5C 421.167,405.5 388.833,405.5 356.5,405.5C 359.506,398.156 362.506,390.823 365.5,383.5 Z"/></g>
</svg>
