<?xml version="1.0" encoding="UTF-8"?>
<!DOCTYPE svg PUBLIC "-//W3C//DTD SVG 1.1//EN" "http://www.w3.org/Graphics/SVG/1.1/DTD/svg11.dtd">
<svg xmlns="http://www.w3.org/2000/svg" version="1.1" width="512px" height="512px" style="shape-rendering:geometricPrecision; text-rendering:geometricPrecision; image-rendering:optimizeQuality; fill-rule:evenodd; clip-rule:evenodd" xmlns:xlink="http://www.w3.org/1999/xlink">
<g><path style="opacity:0.975" fill="#010202" d="M 49.5,-0.5 C 186.833,-0.5 324.167,-0.5 461.5,-0.5C 474.923,3.9847 482.423,13.318 484,27.5C 484.667,113.5 484.667,199.5 484,285.5C 481.946,301.887 472.779,311.387 456.5,314C 406.501,314.5 356.501,314.667 306.5,314.5C 307.386,332.242 309.052,349.909 311.5,367.5C 323.505,367.333 335.505,367.5 347.5,368C 351.753,371.42 352.587,375.587 350,380.5C 349.097,381.701 347.931,382.535 346.5,383C 285.833,383.667 225.167,383.667 164.5,383C 159.931,380.459 158.431,376.625 160,371.5C 161.167,370.333 162.333,369.167 163.5,368C 175.495,367.5 187.495,367.333 199.5,367.5C 201.948,349.909 203.614,332.242 204.5,314.5C 154.499,314.667 104.499,314.5 54.5,314C 38.2207,311.387 29.054,301.887 27,285.5C 26.3333,199.5 26.3333,113.5 27,27.5C 28.5773,13.318 36.0773,3.9847 49.5,-0.5 Z"/></g>
<g><path style="opacity:1" fill="#586a74" d="M 450.5,14.5 C 452.241,16.9774 453.741,19.6441 455,22.5C 455.5,95.1659 455.667,167.833 455.5,240.5C 453.5,240.5 451.5,240.5 449.5,240.5C 449.832,203.33 449.498,166.33 448.5,129.5C 447.998,125.41 445.665,123.41 441.5,123.5C 441.5,116.833 441.5,110.167 441.5,103.5C 444.561,103.556 446.728,102.222 448,99.5C 448.667,81.1667 448.667,62.8333 448,44.5C 445.668,38.8356 441.501,35.3356 435.5,34C 314.833,33.3333 194.167,33.3333 73.5,34C 68.6667,36.1667 65.1667,39.6667 63,44.5C 62.5,110.166 62.3333,175.832 62.5,241.5C 55.8333,241.5 49.1667,241.5 42.5,241.5C 42.3333,169.499 42.5,97.4992 43,25.5C 44.187,21.2908 46.687,18.1241 50.5,16C 183.777,14.5051 317.111,14.0051 450.5,14.5 Z"/></g>
<g><path style="opacity:1" fill="#455960" d="M 450.5,14.5 C 459.086,14.0313 464.919,17.698 468,25.5C 468.5,97.4992 468.667,169.499 468.5,241.5C 461.833,241.5 455.167,241.5 448.5,241.5C 448.5,204.167 448.5,166.833 448.5,129.5C 449.498,166.33 449.832,203.33 449.5,240.5C 451.5,240.5 453.5,240.5 455.5,240.5C 455.667,167.833 455.5,95.1659 455,22.5C 453.741,19.6441 452.241,16.9774 450.5,14.5 Z"/></g>
<g><path style="opacity:1" fill="#c7eefd" d="M 421.5,48.5 C 421.5,112.833 421.5,177.167 421.5,241.5C 306.833,241.5 192.167,241.5 77.5,241.5C 77.5,177.167 77.5,112.833 77.5,48.5C 192.167,48.5 306.833,48.5 421.5,48.5 Z"/></g>
<g><path style="opacity:1" fill="#98e5fb" d="M 421.5,48.5 C 425.5,48.5 429.5,48.5 433.5,48.5C 433.333,65.17 433.5,81.8367 434,98.5C 435.33,102.007 437.83,103.673 441.5,103.5C 441.5,110.167 441.5,116.833 441.5,123.5C 437.83,123.327 435.33,124.993 434,128.5C 433.5,166.165 433.333,203.832 433.5,241.5C 429.5,241.5 425.5,241.5 421.5,241.5C 421.5,177.167 421.5,112.833 421.5,48.5 Z"/></g>
<g><path style="opacity:1" fill="#040505" d="M 213.5,91.5 C 222.61,91.7717 225.443,96.1051 222,104.5C 195.618,135.427 169.118,166.26 142.5,197C 133.667,198.833 130.167,195.333 132,186.5C 159.002,154.667 186.169,123 213.5,91.5 Z"/></g>
<g><path style="opacity:1" fill="#040506" d="M 156.5,111.5 C 164.775,110.706 167.942,114.373 166,122.5C 158.853,131.282 151.353,139.782 143.5,148C 134.249,151.416 130.415,148.25 132,138.5C 139.726,129.007 147.892,120.007 156.5,111.5 Z"/></g>
<g><path style="opacity:1" fill="#d8e6eb" d="M 455.5,256.5 C 455.667,267.838 455.5,279.172 455,290.5C 453.741,293.356 452.241,296.023 450.5,298.5C 317.833,298.667 185.166,298.5 52.5,298C 47.5723,296.073 44.4056,292.573 43,287.5C 42.5002,277.172 42.3335,266.839 42.5,256.5C 180.167,256.5 317.833,256.5 455.5,256.5 Z"/></g>
<g><path style="opacity:1" fill="#c4d2db" d="M 455.5,256.5 C 459.833,256.5 464.167,256.5 468.5,256.5C 468.909,267.896 468.409,279.23 467,290.5C 463.289,296.69 457.789,299.356 450.5,298.5C 452.241,296.023 453.741,293.356 455,290.5C 455.5,279.172 455.667,267.838 455.5,256.5 Z"/></g>
<g><path style="opacity:1" fill="#0b0b0b" d="M 236.5,270.5 C 249.171,270.333 261.838,270.5 274.5,271C 280.133,276.487 279.466,281.154 272.5,285C 261.167,285.667 249.833,285.667 238.5,285C 231.452,280.987 230.785,276.154 236.5,270.5 Z"/></g>
<g><path style="opacity:1" fill="#b3c1cc" d="M 292.5,333.5 C 291.532,331.393 291.198,329.059 291.5,326.5C 267.5,326.5 243.5,326.5 219.5,326.5C 219.5,322.167 219.5,317.833 219.5,313.5C 243.5,313.5 267.5,313.5 291.5,313.5C 291.612,320.18 291.946,326.847 292.5,333.5 Z"/></g>
<g><path style="opacity:1" fill="#c4d2db" d="M 219.5,326.5 C 243.5,326.5 267.5,326.5 291.5,326.5C 291.198,329.059 291.532,331.393 292.5,333.5C 293.059,344.223 294.059,354.889 295.5,365.5C 282.517,366.833 269.184,367.499 255.5,367.5C 241.816,367.499 228.483,366.833 215.5,365.5C 216.921,352.522 218.255,339.522 219.5,326.5 Z"/></g>
<g><path style="opacity:1" fill="#36393c" d="M 215.5,365.5 C 228.483,366.833 241.816,367.499 255.5,367.5C 269.184,367.499 282.517,366.833 295.5,365.5C 296.404,366.209 296.737,367.209 296.5,368.5C 269.167,368.5 241.833,368.5 214.5,368.5C 214.263,367.209 214.596,366.209 215.5,365.5 Z"/></g>
<g><path style="opacity:0.984" fill="#000000" d="M 146.5,414.5 C 146.292,419.04 143.959,421.707 139.5,422.5C 120.47,421.846 101.803,422.513 83.5,424.5C 75.9932,448.185 68.3266,471.851 60.5,495.5C 185.498,496.5 310.498,496.833 435.5,496.5C 440.544,496.827 445.544,496.494 450.5,495.5C 442.622,471.867 434.955,448.201 427.5,424.5C 342.507,422.503 257.173,421.836 171.5,422.5C 167.692,421.031 165.359,418.365 164.5,414.5C 164.933,411.805 166.266,409.638 168.5,408C 256.167,407.333 343.833,407.333 431.5,408C 436.974,409.474 440.474,412.974 442,418.5C 449.667,442.833 457.333,467.167 465,491.5C 466.888,500.707 463.721,507.374 455.5,511.5C 322.167,511.5 188.833,511.5 55.5,511.5C 47.2786,507.374 44.112,500.707 46,491.5C 54.0846,464.914 62.7513,438.58 72,412.5C 74.2583,410.57 76.7583,409.07 79.5,408C 100.5,407.333 121.5,407.333 142.5,408C 145.222,409.272 146.556,411.439 146.5,414.5 Z"/></g>
<g><path style="opacity:0.999" fill="#d7e5ea" d="M 146.5,414.5 C 152.5,414.5 158.5,414.5 164.5,414.5C 165.359,418.365 167.692,421.031 171.5,422.5C 251.998,423.499 332.665,423.833 413.5,423.5C 421.638,447.582 428.972,471.916 435.5,496.5C 310.498,496.833 185.498,496.5 60.5,495.5C 68.3266,471.851 75.9932,448.185 83.5,424.5C 102.265,423.845 120.931,423.179 139.5,422.5C 143.959,421.707 146.292,419.04 146.5,414.5 Z"/></g>
<g><path style="opacity:1" fill="#acb7bb" d="M 139.5,422.5 C 120.931,423.179 102.265,423.845 83.5,424.5C 101.803,422.513 120.47,421.846 139.5,422.5 Z"/></g>
<g><path style="opacity:1" fill="#acb7bc" d="M 171.5,422.5 C 257.173,421.836 342.507,422.503 427.5,424.5C 422.93,423.559 418.263,423.226 413.5,423.5C 332.665,423.833 251.998,423.499 171.5,422.5 Z"/></g>
<g><path style="opacity:1" fill="#c1cfd9" d="M 413.5,423.5 C 418.263,423.226 422.93,423.559 427.5,424.5C 434.955,448.201 442.622,471.867 450.5,495.5C 445.544,496.494 440.544,496.827 435.5,496.5C 428.972,471.916 421.638,447.582 413.5,423.5 Z"/></g>
<g><path style="opacity:1" fill="#060606" d="M 126.5,438.5 C 132.262,438.149 137.928,438.649 143.5,440C 147.875,445.121 147.209,449.455 141.5,453C 136.167,453.667 130.833,453.667 125.5,453C 119.954,447.676 120.288,442.843 126.5,438.5 Z"/></g>
<g><path style="opacity:1" fill="#040505" d="M 166.5,438.5 C 172.29,438.096 177.956,438.596 183.5,440C 186.886,443.373 187.386,447.206 185,451.5C 184.25,452.126 183.416,452.626 182.5,453C 176.388,453.909 170.388,453.576 164.5,452C 161.397,446.886 162.064,442.386 166.5,438.5 Z"/></g>
<g><path style="opacity:1" fill="#070707" d="M 207.5,438.5 C 213.29,438.096 218.956,438.596 224.5,440C 228.698,444.632 228.364,448.965 223.5,453C 217.833,453.667 212.167,453.667 206.5,453C 201.003,447.683 201.336,442.85 207.5,438.5 Z"/></g>
<g><path style="opacity:1" fill="#050505" d="M 248.5,438.5 C 254.29,438.096 259.956,438.596 265.5,440C 269.875,445.121 269.209,449.455 263.5,453C 258.167,453.667 252.833,453.667 247.5,453C 242.003,447.683 242.336,442.85 248.5,438.5 Z"/></g>
<g><path style="opacity:1" fill="#070707" d="M 288.5,438.5 C 293.511,438.334 298.511,438.501 303.5,439C 311.073,443.187 311.406,447.854 304.5,453C 298.388,453.909 292.388,453.576 286.5,452C 283.397,446.886 284.064,442.386 288.5,438.5 Z"/></g>
<g><path style="opacity:1" fill="#070808" d="M 329.5,438.5 C 335.29,438.096 340.956,438.596 346.5,440C 349.886,443.373 350.386,447.206 348,451.5C 347.25,452.126 346.416,452.626 345.5,453C 339.388,453.909 333.388,453.576 327.5,452C 323.177,446.777 323.844,442.277 329.5,438.5 Z"/></g>
<g><path style="opacity:1" fill="#070707" d="M 369.5,438.5 C 375.29,438.096 380.956,438.596 386.5,440C 390.698,444.632 390.364,448.965 385.5,453C 379.833,453.667 374.167,453.667 368.5,453C 363.003,447.683 363.336,442.85 369.5,438.5 Z"/></g>
<g><path style="opacity:1" fill="#050505" d="M 125.5,465.5 C 131.593,465.139 137.593,465.639 143.5,467C 147.875,472.121 147.209,476.455 141.5,480C 136.167,480.667 130.833,480.667 125.5,480C 120.214,475.169 120.214,470.335 125.5,465.5 Z"/></g>
<g><path style="opacity:1" fill="#040405" d="M 166.5,465.5 C 172.593,465.139 178.593,465.639 184.5,467C 188.877,477.38 185.377,481.88 174,480.5C 164.917,482.084 161.25,478.417 163,469.5C 164.102,468.051 165.269,466.718 166.5,465.5 Z"/></g>
<g><path style="opacity:1" fill="#050505" d="M 207.5,465.5 C 213.29,465.096 218.956,465.596 224.5,467C 228.957,472.135 228.29,476.468 222.5,480C 216.719,480.903 211.053,480.57 205.5,479C 201.188,473.731 201.855,469.231 207.5,465.5 Z"/></g>
<g><path style="opacity:1" fill="#050505" d="M 247.5,465.5 C 253.621,465.09 259.621,465.59 265.5,467C 269.826,472.044 269.16,476.378 263.5,480C 258.167,480.667 252.833,480.667 247.5,480C 242.202,475.092 242.202,470.258 247.5,465.5 Z"/></g>
<g><path style="opacity:1" fill="#060606" d="M 288.5,465.5 C 294.593,465.139 300.593,465.639 306.5,467C 310.875,472.121 310.209,476.455 304.5,480C 299.167,480.667 293.833,480.667 288.5,480C 283.214,475.169 283.214,470.335 288.5,465.5 Z"/></g>
<g><path style="opacity:1" fill="#040404" d="M 329.5,465.5 C 334.511,465.334 339.511,465.501 344.5,466C 349.415,468.442 350.749,472.276 348.5,477.5C 347.335,478.584 346.002,479.417 344.5,480C 338.719,480.903 333.053,480.57 327.5,479C 324.409,473.799 325.075,469.299 329.5,465.5 Z"/></g>
<g><path style="opacity:1" fill="#040505" d="M 369.5,465.5 C 375.29,465.096 380.956,465.596 386.5,467C 390.957,472.135 390.29,476.468 384.5,480C 378.719,480.903 373.053,480.57 367.5,479C 363.188,473.731 363.855,469.231 369.5,465.5 Z"/></g>
</svg>
