<?xml version="1.0" standalone="no"?>
<!DOCTYPE svg PUBLIC "-//W3C//DTD SVG 20010904//EN"
 "http://www.w3.org/TR/2001/REC-SVG-20010904/DTD/svg10.dtd">
<svg version="1.0" xmlns="http://www.w3.org/2000/svg"
 width="512.000000pt" height="512.000000pt" viewBox="0 0 512.000000 512.000000"
 preserveAspectRatio="xMidYMid meet">

<g transform="translate(0.000000,512.000000) scale(0.100000,-0.100000)"
fill="#000000" stroke="none">
<path d="M2532 4954 c-20 -14 -22 -23 -22 -109 0 -99 10 -125 50 -125 40 0 50
26 50 125 0 86 -2 95 -22 109 -12 9 -25 16 -28 16 -3 0 -16 -7 -28 -16z"/>
<path d="M2007 4729 c-8 -11 -13 -29 -10 -39 7 -28 128 -140 151 -140 22 0 52
30 52 51 0 8 -30 45 -68 82 -72 71 -100 82 -125 46z"/>
<path d="M2987 4682 c-37 -37 -67 -75 -67 -83 0 -21 32 -49 54 -49 21 0 142
114 149 140 7 26 -20 60 -46 60 -14 0 -47 -25 -90 -68z"/>
<path d="M1966 4220 c-141 -55 -208 -224 -143 -362 14 -29 57 -88 97 -130 l72
-78 -256 0 -256 0 0 73 c-1 130 -59 206 -165 215 -71 6 -97 -2 -141 -40 -49
-44 -64 -83 -64 -173 l0 -75 -79 0 c-107 0 -173 -14 -260 -55 -130 -62 -227
-183 -266 -331 -23 -87 -23 -2231 0 -2318 39 -148 136 -269 266 -331 41 -19
98 -39 128 -45 29 -5 193 -10 363 -10 l309 0 47 -44 c177 -165 451 -297 707
-341 131 -23 338 -23 470 0 250 42 503 162 693 328 l64 56 341 3 c332 3 344 4
402 27 165 65 276 190 320 358 20 76 22 952 3 971 -15 15 -61 15 -76 0 -9 -9
-12 -124 -12 -457 0 -470 -3 -499 -48 -586 -50 -97 -146 -171 -258 -200 -49
-12 -111 -15 -317 -13 l-257 3 61 85 c123 172 212 390 246 605 19 121 13 392
-11 500 -62 278 -190 510 -390 711 -171 170 -350 280 -576 352 -269 86 -606
82 -875 -11 -414 -143 -754 -487 -889 -900 -44 -136 -57 -216 -63 -387 -6
-185 7 -297 52 -455 33 -117 127 -308 204 -415 l61 -85 -257 -3 c-287 -3 -337
4 -432 61 -68 41 -115 95 -155 177 l-31 65 0 1140 0 1140 32 67 c55 116 145
191 270 223 86 23 3240 23 3326 0 151 -39 254 -141 293 -290 11 -39 14 -165
14 -552 0 -443 2 -503 16 -517 8 -9 24 -16 34 -16 10 0 26 7 34 16 14 14 16
75 16 523 0 419 -3 517 -15 565 -44 168 -153 291 -320 357 l-60 24 -547 3
c-302 2 -548 5 -548 8 0 3 31 41 70 83 38 43 79 99 91 125 60 136 -11 304
-148 356 -51 19 -78 20 -596 20 -511 -1 -545 -2 -591 -20z m1164 -102 c63 -32
90 -77 90 -147 0 -67 -2 -70 -128 -213 l-95 -108 -437 0 -437 0 -95 108 c-122
137 -129 150 -130 210 0 76 32 126 102 156 30 13 115 15 560 16 526 0 526 0
570 -22z m-1775 -303 c22 -21 25 -33 25 -95 l0 -70 -85 0 -85 0 0 70 c0 62 3
74 25 95 33 34 87 34 120 0z m1405 -949 c145 -23 246 -56 378 -122 214 -106
383 -253 511 -444 150 -224 221 -460 221 -729 0 -355 -123 -659 -367 -912
-256 -264 -577 -400 -943 -400 -351 0 -659 124 -911 368 -159 154 -266 322
-333 523 -47 143 -66 260 -66 416 0 275 70 509 221 734 199 297 521 504 879
565 102 17 306 18 410 1z"/>
<path d="M2380 2421 c-402 -88 -690 -442 -690 -850 0 -338 189 -639 493 -786
142 -68 197 -80 377 -80 184 0 236 12 385 85 256 126 430 362 476 644 16 101
6 270 -21 366 -83 294 -325 534 -615 611 -115 30 -293 35 -405 10z m375 -105
c33 -9 103 -37 155 -63 81 -40 109 -60 190 -142 106 -106 158 -193 202 -331
30 -98 33 -308 4 -409 -70 -254 -256 -449 -511 -538 -74 -25 -91 -27 -235 -27
-144 0 -161 2 -235 27 -255 89 -441 284 -511 538 -29 101 -26 311 4 409 44
139 96 225 202 330 122 123 227 181 390 215 81 18 262 13 345 -9z"/>
<path d="M2532 2084 c-12 -8 -22 -23 -22 -33 0 -35 24 -50 98 -60 198 -26 344
-170 374 -368 6 -38 13 -75 18 -83 11 -22 49 -24 71 -4 23 20 23 46 4 139 -28
134 -110 257 -221 330 -104 69 -276 112 -322 79z"/>
<path d="M3900 3308 c-95 -48 -135 -167 -88 -257 13 -25 40 -58 61 -75 32 -26
48 -31 105 -34 55 -2 74 1 107 20 72 42 113 131 96 208 -29 131 -164 197 -281
138z m148 -103 c36 -30 45 -69 27 -112 -16 -37 -41 -53 -88 -53 -43 0 -83 31
-92 71 -20 90 83 153 153 94z"/>
</g>
</svg>
