<svg version="1.1" id="Layer_1" xmlns="http://www.w3.org/2000/svg" xmlns:xlink="http://www.w3.org/1999/xlink" x="0px" y="0px"
	 width="100%" viewBox="0 0 512 512" enable-background="new 0 0 512 512" xml:space="preserve">
<path fill="#000000" opacity="1.000000" stroke="none" 
	d="
M513.000000,188.000000 
	C513.000000,295.307251 512.982483,402.114563 513.083374,508.921692 
	C513.086426,512.173828 512.664612,513.106384 509.080109,513.103882 
	C341.121185,512.984558 173.162170,512.983582 5.203275,513.106323 
	C1.471873,513.109009 0.911281,512.186096 0.913339,508.705200 
	C1.012524,340.912903 1.010983,173.120529 0.921839,5.328208 
	C0.920041,1.944187 1.342862,0.883653 5.169847,0.886645 
	C173.128738,1.017957 341.087769,1.014599 509.046692,0.899881 
	C512.562866,0.897479 513.096619,1.720584 513.089905,5.044971 
	C512.966858,65.863121 513.000000,126.681595 513.000000,188.000000 
z"/>
<path fill="#A163F5" opacity="1.000000" stroke="none" 
	d="
M489.666748,313.949066 
	C484.602295,329.522308 473.207031,339.367401 460.391296,347.873505 
	C450.627991,354.353668 440.013214,359.316071 429.209808,363.721802 
	C426.232697,364.935913 425.615601,366.334717 426.069061,368.738068 
	C430.623108,392.875336 434.141541,417.180847 438.058441,441.422211 
	C440.469391,456.343445 443.293518,471.198242 445.967773,486.076447 
	C447.072174,492.220947 443.476898,500.047821 438.628540,503.124939 
	C432.405304,507.074585 423.752930,505.792267 418.156647,500.683319 
	C406.832336,490.345215 395.562714,479.946259 384.163849,469.691010 
	C368.745178,455.819183 353.419952,441.830933 337.622955,428.400391 
	C333.312134,424.735291 329.972870,419.760071 323.697815,416.966095 
	C325.262482,424.005524 324.535980,430.535248 325.092468,436.968781 
	C326.459076,452.768585 315.139374,462.265656 304.173279,466.820129 
	C299.153442,468.904999 293.625061,470.384186 288.232452,470.753754 
	C284.040222,471.041046 283.960815,472.638794 283.921631,475.820526 
	C283.861237,480.731750 284.768616,485.706482 283.025177,490.558777 
	C280.936218,496.372681 275.172211,500.875122 268.940033,500.969696 
	C260.943726,501.091156 252.941071,501.138306 244.946884,500.960144 
	C236.976700,500.782532 230.224640,493.741486 230.008698,485.703552 
	C229.955017,483.705444 230.000351,481.704681 230.000336,479.705139 
	C230.000290,470.771118 229.908829,471.334198 220.888641,469.868561 
	C207.098495,467.627869 193.437256,460.370911 189.756256,446.142639 
	C187.838089,438.728333 188.829269,430.971771 189.431763,423.409424 
	C189.582581,421.516418 189.801666,419.562561 189.953506,417.466553 
	C182.924988,421.184967 178.141937,427.396149 172.356171,432.354248 
	C156.486542,445.953491 141.049149,460.058929 125.506218,474.036865 
	C117.282135,481.432892 109.428284,489.259888 100.955887,496.353119 
	C96.025024,500.481354 92.106865,505.931641 84.176628,506.257324 
	C73.290970,506.704376 65.564651,496.956726 68.288216,485.576813 
	C75.144279,456.929962 82.515129,428.406586 89.592461,399.812164 
	C91.886787,390.542450 93.593994,381.114624 96.233215,371.950195 
	C97.133507,368.823975 96.516663,367.895203 93.933830,367.022552 
	C77.552650,361.488098 62.094509,354.050751 48.030884,343.957336 
	C38.769527,337.310455 30.701361,329.471680 25.937752,318.405182 
	C27.863014,315.702057 30.427687,315.906647 33.444931,316.456726 
	C36.429527,316.730804 37.995731,318.490051 39.395813,320.371979 
	C48.830051,333.053070 61.940228,340.887817 75.731628,347.729980 
	C80.885529,350.286926 86.176674,352.655151 92.265388,354.743866 
	C90.895752,350.746338 89.762543,347.308472 88.582756,343.880341 
	C87.563667,340.919189 85.198738,339.485016 82.601006,338.231873 
	C73.874290,334.022125 65.634918,329.049774 58.193142,322.794220 
	C55.360840,320.413391 52.936817,317.703339 50.890041,314.646240 
	C49.772682,312.977356 48.687023,311.259155 49.737564,308.798889 
	C52.749260,306.627747 55.838348,308.415009 59.090210,307.808807 
	C63.419563,309.322998 65.805725,312.895020 69.156326,315.209656 
	C73.034569,317.888733 76.456001,321.290405 81.421890,322.399597 
	C81.907974,321.943146 82.134064,321.622437 82.517517,321.003632 
	C82.863647,320.558990 83.031494,320.397369 83.504547,320.044037 
	C86.224068,318.955841 88.695290,318.514618 91.629745,319.040558 
	C94.568703,320.633850 95.159279,323.334656 96.007317,325.830109 
	C99.329628,335.606323 102.459137,345.447418 105.825363,355.208832 
	C106.612328,357.490906 107.227310,360.036621 111.063728,360.688293 
	C108.579613,352.734436 105.917900,345.422424 103.647568,337.991211 
	C102.105423,332.943542 99.304367,328.192596 99.831528,322.253815 
	C101.785080,318.885620 104.598984,318.925873 107.952591,319.511353 
	C111.771927,320.701447 112.709183,323.812012 113.219971,326.644379 
	C114.852242,335.695404 120.330780,339.574493 129.065765,341.849335 
	C155.735245,348.794739 182.741089,353.359344 210.155579,355.759033 
	C211.686523,355.893036 213.163910,355.912201 214.486786,355.035339 
	C219.928268,351.428589 224.420776,346.708160 229.207687,342.342682 
	C231.161224,340.561127 229.725449,339.097412 228.240402,337.815521 
	C224.207520,334.334259 220.127731,330.907959 216.092850,327.429199 
	C214.584610,326.128845 212.954697,324.904083 212.571121,322.361664 
	C214.558075,318.196899 218.329193,318.618958 222.052002,318.011322 
	C227.518280,318.885559 230.228973,323.434357 234.696609,325.992065 
	C235.895813,324.285278 235.188889,321.666809 237.412781,320.118561 
	C240.781464,318.886444 243.505325,319.658356 246.396622,321.628174 
	C248.135162,323.988953 248.028610,326.339355 248.040649,328.657471 
	C248.081970,336.615204 248.115891,344.574036 248.032150,352.530487 
	C247.993256,356.226257 249.288559,358.005951 253.226730,357.971680 
	C267.786194,357.844849 265.664337,359.170105 265.985748,345.653046 
	C266.166260,338.061066 265.056610,330.418274 266.975739,322.482422 
	C269.505676,319.754028 272.324158,319.151031 275.852905,319.784637 
	C278.875671,321.387848 278.581879,323.968079 278.702698,326.564056 
	C282.772430,323.663361 285.878754,319.491241 291.218567,317.966431 
	C295.070862,318.433105 298.690002,317.342773 302.397980,319.129272 
	C304.406769,322.233215 302.043365,323.658844 300.439026,325.127014 
	C295.892883,329.287354 291.191803,333.281860 286.346100,337.090820 
	C283.407349,339.400848 283.227142,341.516052 286.211517,343.893951 
	C287.641815,345.033569 289.050934,346.209137 290.422607,347.425201 
	C300.556366,356.409546 300.562286,356.443420 313.897430,354.924988 
	C340.918304,351.848053 367.626648,347.173065 393.671844,339.152527 
	C394.149323,339.005554 394.624634,338.822235 395.114288,338.747650 
	C402.226105,337.663727 406.342316,333.758545 407.249908,326.440552 
	C407.595215,323.656311 408.576508,320.940613 409.467255,318.250092 
	C410.095276,316.353302 410.644836,314.403381 412.771820,312.970184 
	C415.984131,311.874481 418.729797,311.911652 421.601013,313.918152 
	C423.510529,316.399323 422.502747,318.674530 421.935730,320.876007 
	C419.281677,331.179871 416.321991,341.401917 413.610718,351.690552 
	C413.123352,353.539948 412.087006,355.332947 412.676361,357.615082 
	C415.660553,356.693726 416.138947,354.131805 416.832306,351.832214 
	C419.424103,343.236145 421.636078,334.532196 424.106262,325.901123 
	C424.793091,323.501465 425.427124,321.063995 427.818237,319.161316 
	C430.440613,317.936951 432.821564,318.013824 435.594940,318.459869 
	C437.936096,319.647614 439.539551,319.140289 441.406891,317.905151 
	C445.853027,314.964081 449.358582,310.850891 454.310974,308.069824 
	C457.435760,308.178741 460.255920,307.752777 463.258911,308.989380 
	C465.992859,312.603241 463.164795,314.847565 461.473877,317.020813 
	C455.944489,324.127594 448.622650,329.371918 440.725342,333.188538 
	C432.981049,336.931213 432.466064,343.552948 430.324158,351.327362 
	C448.720551,343.003357 465.163422,334.224854 476.257324,317.976532 
	C477.741516,315.802795 478.909576,313.263153 482.228638,312.445801 
	C485.060852,311.794739 487.391785,311.884277 489.666748,313.949066 
z"/>
<path fill="#EFBAD3" opacity="1.000000" stroke="none" 
	d="
M154.160431,88.318130 
	C154.622711,72.225906 160.764694,58.290798 169.815750,45.945877 
	C181.925262,29.429436 197.717880,17.352047 217.792587,11.653334 
	C225.303894,9.521060 232.811768,7.667716 240.792465,7.914957 
	C251.777374,8.255268 262.780823,7.971020 273.776154,8.006743 
	C292.085236,8.066229 308.561127,14.280602 323.053436,24.818104 
	C339.632019,36.872555 351.645966,52.762562 357.365662,72.827217 
	C358.691101,77.476913 360.438629,82.091446 360.056549,87.522308 
	C357.819672,90.590454 355.017090,90.082970 351.749023,89.091187 
	C348.796539,87.006859 348.756775,83.990196 348.054382,81.309532 
	C340.782227,53.556053 323.781952,34.426910 297.160645,23.831524 
	C291.503845,21.580090 291.027740,21.954937 291.003571,28.151894 
	C290.973022,35.981926 291.007263,43.812119 290.988190,51.642220 
	C290.983307,53.640793 291.036621,55.653244 290.456970,57.594776 
	C289.609802,60.432293 287.792450,62.221161 284.738220,62.317776 
	C281.888672,62.407913 280.079926,60.784004 279.004791,58.282612 
	C278.061768,56.088703 278.027771,53.740570 278.017914,51.403690 
	C277.979919,42.407448 277.915894,33.409542 278.045502,24.415575 
	C278.099060,20.699064 276.915405,19.118807 272.956024,18.858631 
	C262.985687,18.203472 262.998291,18.011301 262.995880,27.937801 
	C262.993927,35.934521 263.001984,43.931244 262.990967,51.927956 
	C262.988647,53.593536 263.013794,55.261978 262.765198,56.916000 
	C262.258270,60.288563 260.576019,62.559391 256.913849,62.494572 
	C253.253555,62.429779 251.674713,60.063438 251.214890,56.716991 
	C250.964478,54.894569 251.011169,53.059502 251.008118,51.227734 
	C250.992538,41.898247 251.065994,32.568275 250.973953,23.239433 
	C250.925369,18.315254 250.284805,17.854910 245.299026,18.485310 
	C235.998581,19.661251 236.004471,19.661255 235.993973,29.128668 
	C235.985291,36.958717 236.109283,44.790493 235.940536,52.618298 
	C235.805176,58.897629 233.514114,62.232460 229.556717,62.356888 
	C225.327881,62.489853 223.099548,59.194294 223.029160,52.447952 
	C222.945755,44.451855 223.021103,36.454647 223.000717,28.457972 
	C222.983871,21.847269 222.464066,21.356176 216.183670,23.953751 
	C191.099609,34.328537 174.360870,52.328800 166.652939,78.540527 
	C165.590668,82.152924 165.807190,86.232063 162.624359,89.466873 
	C159.537888,90.128944 156.866669,90.354240 154.160431,88.318130 
z"/>
<path fill="#DFA9DA" opacity="1.000000" stroke="none" 
	d="
M360.461761,108.694809 
	C360.833923,116.121696 360.833923,123.247437 360.833923,131.257584 
	C372.510468,123.868362 383.596588,116.852776 394.953766,109.631691 
	C399.175720,109.670898 403.277313,107.850548 407.377319,110.563644 
	C409.237000,113.045784 407.579590,114.286446 406.116913,115.291451 
	C394.507568,123.268143 382.498474,130.629074 370.607208,138.170898 
	C369.478455,138.886765 368.158386,139.171341 366.383789,139.013794 
	C361.338165,138.394485 356.496063,140.203552 351.686768,137.411758 
	C351.083282,136.488098 351.308044,137.308411 351.067505,136.686661 
	C348.120453,129.069443 348.120483,129.067215 339.592194,129.065674 
	C323.629913,129.062790 307.667664,129.067398 291.705383,129.063019 
	C289.876404,129.062515 288.043579,129.115234 286.219940,128.982834 
	C282.660492,128.724365 279.582825,127.631683 278.873444,123.595818 
	C278.310120,120.390884 280.951935,117.484222 285.122681,116.392540 
	C287.245667,115.836853 289.416748,115.954712 291.572876,115.950218 
	C308.865295,115.914215 326.158234,115.873024 343.449768,115.986313 
	C347.302826,116.011551 349.924774,115.011436 350.912689,110.533012 
	C353.766205,107.634399 356.847778,107.601151 360.461761,108.694809 
z"/>
<path fill="#E9B3D6" opacity="1.000000" stroke="none" 
	d="
M360.906250,108.532639 
	C358.288849,109.876060 355.670105,110.179367 352.578186,109.996567 
	C351.407928,109.574539 350.648163,108.947449 350.609680,108.143959 
	C350.309052,101.871178 346.028564,101.991913 341.416290,102.020927 
	C324.587646,102.126808 307.757843,102.077164 290.928497,102.051643 
	C288.932495,102.048615 286.919922,102.175987 284.948883,101.753036 
	C280.983856,100.902168 278.560425,98.244652 278.931763,94.961952 
	C279.355011,91.220268 281.859009,89.547272 285.342377,89.089890 
	C287.161072,88.851097 289.003082,88.942856 290.835205,88.941528 
	C307.997833,88.929100 325.160431,88.942123 342.323059,88.932045 
	C344.987213,88.930481 347.664185,89.033081 350.705200,88.074463 
	C353.846802,87.991226 356.526123,87.985809 359.655762,87.969955 
	C362.088715,94.589394 360.482422,101.374962 360.906250,108.532639 
z"/>
<path fill="#E9B3D6" opacity="1.000000" stroke="none" 
	d="
M153.510834,88.188942 
	C156.396698,88.240181 158.994263,87.477821 161.743561,88.839066 
	C182.626434,88.736168 203.212280,89.011116 223.797150,88.943771 
	C225.787125,88.937263 227.801132,88.786255 229.757416,89.260780 
	C232.798019,89.998314 234.871078,91.810165 235.062408,95.050308 
	C235.255447,98.319893 233.304291,100.261536 230.403564,101.368958 
	C228.331497,102.160004 226.150192,102.045715 223.994583,102.050499 
	C206.707703,102.088867 189.420746,102.049850 172.133850,102.074295 
	C165.306580,102.083946 165.306610,102.106117 162.762222,108.893272 
	C159.702820,111.334900 156.846130,111.513649 153.529877,109.353439 
	C153.157181,102.135147 153.148422,95.275764 153.510834,88.188942 
z"/>
<path fill="#E0A9D9" opacity="1.000000" stroke="none" 
	d="
M153.088715,109.457535 
	C155.766235,108.995720 158.366531,108.996925 161.400238,108.996880 
	C162.243851,109.521164 162.039856,108.679451 162.218307,109.286240 
	C164.281570,116.301704 169.704071,116.088562 175.534302,116.008812 
	C191.507034,115.790314 207.484924,115.912155 223.460754,115.944084 
	C226.302643,115.949768 229.142166,115.975090 231.671432,117.548874 
	C233.947342,118.964989 235.453293,120.887367 235.064377,123.708252 
	C234.674561,126.535683 232.700211,127.997200 230.111374,128.686752 
	C227.996902,129.249939 225.809265,129.041443 223.650894,129.060516 
	C203.518402,129.238434 183.382812,128.737167 162.774948,129.388962 
	C159.414078,129.964676 156.518997,130.610535 153.511322,128.339325 
	C153.114349,121.971931 153.062912,115.946243 153.088715,109.457535 
z"/>
<path fill="#D199E0" opacity="1.000000" stroke="none" 
	d="
M443.338745,164.719635 
	C447.484375,162.875046 450.637573,159.815613 453.367950,156.818802 
	C458.307739,151.396973 467.832672,150.697372 473.020630,153.944794 
	C478.842743,157.589218 480.920624,163.176788 479.024902,171.252213 
	C478.838531,172.046082 478.843231,172.884781 478.404114,173.904327 
	C473.950958,175.400406 469.892456,175.506516 465.600372,173.453583 
	C463.616760,171.012497 465.220306,169.540161 466.423492,167.949524 
	C467.255127,166.850159 469.062531,165.942383 467.562408,164.201401 
	C466.242523,162.669586 464.601898,162.989380 462.990173,163.746902 
	C461.768158,164.321259 460.789307,165.236603 459.760712,166.083969 
	C454.745361,170.215698 449.815765,174.452560 444.662018,178.414795 
	C443.208344,179.532333 441.786133,180.709946 439.500977,181.015411 
	C435.742096,180.329620 431.864716,181.937836 428.804565,178.461349 
	C430.949005,170.356857 430.338226,161.879181 434.813721,154.308334 
	C437.886688,152.841370 440.564880,152.589203 443.499969,154.669113 
	C444.295715,157.771622 442.216400,160.280716 442.953918,163.507263 
	C442.685608,164.146988 442.630432,164.332504 442.750488,164.484894 
	C442.856964,164.620041 442.960571,164.688004 443.338745,164.719635 
z"/>
<path fill="#D199E0" opacity="1.000000" stroke="none" 
	d="
M33.504154,173.240601 
	C29.942886,165.213333 34.171909,159.385178 39.053452,155.528336 
	C43.839794,151.746689 53.667107,152.029495 58.233353,155.737213 
	C60.256989,157.380386 62.060951,159.443634 64.330727,160.593658 
	C66.784576,161.836960 68.066872,164.241669 70.509476,165.663742 
	C72.222000,162.558197 69.672356,159.744019 70.091171,156.409363 
	C72.545197,153.583603 75.313538,153.790817 78.619110,155.017242 
	C83.350868,161.246750 83.149872,168.249130 83.268753,175.574539 
	C80.909653,179.638016 77.293823,178.874893 73.551338,178.994461 
	C70.609314,179.635315 68.721588,178.300400 66.920792,176.792404 
	C63.122978,173.612030 59.159313,170.635284 55.411346,167.394089 
	C54.285942,166.420868 53.134010,165.477768 51.788582,164.816589 
	C49.755165,163.817337 47.611423,163.336166 45.759579,164.957489 
	C43.969986,166.524307 45.888641,167.934769 46.344856,169.377258 
	C46.600681,170.186127 46.744659,170.969116 46.378021,172.164062 
	C42.347599,176.044647 38.180149,175.641525 33.504154,173.240601 
z"/>
<path fill="#E8B2D6" opacity="1.000000" stroke="none" 
	d="
M408.448669,112.193863 
	C404.370544,109.813271 399.794098,112.214142 395.633728,109.672623 
	C406.793884,102.130775 418.294128,94.723076 429.954834,87.577194 
	C438.521912,82.327148 452.530334,89.367981 451.963440,101.034889 
	C451.830597,103.768166 452.799347,106.626404 451.027832,109.614609 
	C448.752563,112.186035 446.207855,112.029800 443.183044,111.265518 
	C442.557526,110.947083 442.324310,110.792130 441.823425,110.318359 
	C441.327576,109.510170 441.176422,108.998459 441.079407,108.085510 
	C440.972137,104.179344 442.496094,100.001945 438.334290,97.853706 
	C434.507019,95.878136 431.768036,99.140160 428.946075,100.887787 
	C424.005615,103.947395 419.189575,107.213684 414.224030,110.240959 
	C412.534271,111.271126 410.938385,112.564468 408.448669,112.193863 
z"/>
<path fill="#E8B2D6" opacity="1.000000" stroke="none" 
	d="
M63.485641,111.311386 
	C60.289520,104.551994 61.989899,93.358910 66.844948,89.727211 
	C73.408043,84.817848 78.738495,84.144760 87.459702,89.275772 
	C96.449471,94.564789 105.021385,100.564049 113.913109,106.573563 
	C113.957916,109.665138 111.674255,109.443970 109.915810,109.878159 
	C107.848854,110.388527 105.764595,109.484421 103.303101,109.989761 
	C100.398796,110.616142 98.431892,109.305450 96.440857,108.107719 
	C92.173500,105.540642 88.066650,102.711510 83.790245,100.168716 
	C81.344315,98.714348 78.957733,96.092873 75.665207,97.892769 
	C72.203995,99.784882 72.899529,103.215706 73.038292,106.337509 
	C73.119484,108.164391 73.431183,110.000763 71.743500,111.795273 
	C68.807457,113.159668 66.255470,113.322624 63.485641,111.311386 
z"/>
<path fill="#B377ED" opacity="1.000000" stroke="none" 
	d="
M457.520325,246.688339 
	C465.213165,253.063950 473.098389,258.568146 479.353973,265.897888 
	C481.640198,268.576660 483.645477,271.495148 485.806366,274.650879 
	C483.526642,277.613007 480.434235,276.821259 477.168579,276.951569 
	C474.377991,276.867371 473.079987,275.040161 471.572998,273.545288 
	C467.591583,269.595917 463.798218,265.461548 459.288269,262.058136 
	C456.788635,260.171783 455.653290,260.698090 454.851196,263.606934 
	C453.948029,266.882355 453.864563,270.574799 450.433960,273.103638 
	C447.218903,274.157318 444.437927,274.259827 441.594055,272.054230 
	C440.810791,270.822968 440.468231,269.809174 440.688354,268.842255 
	C442.485260,260.949249 443.655945,252.852631 448.327148,245.535614 
	C451.641907,244.903992 454.560699,244.538940 457.520325,246.688339 
z"/>
<path fill="#B579EC" opacity="1.000000" stroke="none" 
	d="
M35.861534,263.296051 
	C41.381989,257.736389 46.939804,252.653214 53.609272,249.202927 
	C57.303566,247.291779 58.719013,245.408371 56.202049,241.359863 
	C59.123459,238.890549 62.371075,240.049393 65.899277,240.331238 
	C70.725243,245.615341 71.185097,252.370895 73.510246,258.352417 
	C74.688278,261.382965 76.143578,264.522675 75.055107,268.323334 
	C72.225761,270.296722 69.486267,270.146942 66.318665,269.354126 
	C62.993687,267.979675 62.374409,265.102844 61.578400,262.495514 
	C60.464535,258.847076 58.718746,258.784790 55.865124,260.752930 
	C52.659107,262.964111 49.951813,266.006226 45.593311,267.019287 
	C41.860817,266.503906 37.869926,267.778900 35.861534,263.296051 
z"/>
<path fill="#CD93E2" opacity="1.000000" stroke="none" 
	d="
M464.523315,171.833496 
	C468.854340,174.160690 473.375275,172.025925 477.740234,173.829666 
	C476.898010,180.614838 474.926392,186.906448 472.912598,193.601242 
	C470.270050,195.963211 467.535431,196.404129 464.260498,194.688110 
	C461.763977,191.800919 463.056610,189.123062 463.651855,186.730453 
	C461.722839,188.804459 459.420135,190.959503 455.842407,191.861908 
	C452.059418,191.663788 448.499573,192.690079 445.045959,190.353714 
	C443.937988,188.500168 444.443878,187.025269 445.554016,185.996750 
	C450.869263,181.072250 456.085175,176.013840 462.246033,172.103958 
	C462.807343,171.747726 463.496796,171.710861 464.523315,171.833496 
z"/>
<path fill="#CD93E2" opacity="1.000000" stroke="none" 
	d="
M33.160145,173.371338 
	C37.279007,172.361588 41.735855,174.440765 45.833824,171.223541 
	C46.348568,170.749069 46.736290,170.535446 46.975735,170.665543 
	C54.911560,174.977676 62.239620,179.996872 66.903549,188.434509 
	C65.143837,192.670471 61.678898,191.744507 58.220673,191.907394 
	C54.248737,192.611740 52.319641,189.831879 49.816349,187.950409 
	C49.527039,189.671448 50.433796,191.625214 48.283333,193.055054 
	C45.383762,194.189804 42.907551,194.194824 40.235649,192.304642 
	C37.653893,185.947128 35.421165,179.849411 33.160145,173.371338 
z"/>
<path fill="#AA6DF1" opacity="1.000000" stroke="none" 
	d="
M475.750732,276.408325 
	C478.784180,274.427368 481.930603,275.171997 485.402649,274.998199 
	C492.634888,285.799591 494.754456,297.423218 491.517975,309.804321 
	C491.162048,311.165955 491.634460,312.793121 490.194946,314.152954 
	C487.216034,314.228210 484.540863,314.105164 481.373596,313.972107 
	C479.189850,312.214447 479.789368,310.162598 480.435333,308.337280 
	C483.683197,299.159515 481.430878,290.671936 477.439636,282.359375 
	C476.584137,280.577759 475.359039,278.917664 475.750732,276.408325 
z"/>
<path fill="#DCA5DC" opacity="1.000000" stroke="none" 
	d="
M153.090225,128.355576 
	C155.766052,127.997986 158.366318,127.998337 161.399994,127.997955 
	C165.526886,131.999207 164.011459,136.571716 163.022217,141.478790 
	C160.580688,144.196518 157.780487,144.064407 154.540131,143.726547 
	C144.815598,139.929184 136.296310,135.020493 129.435608,127.175087 
	C131.804611,122.974251 135.949097,124.418945 139.635071,123.306541 
	C143.502670,125.407463 146.962494,127.726891 150.550674,129.827026 
	C151.345612,130.292297 153.422501,131.746124 153.090225,128.355576 
z"/>
<path fill="#E1ABD9" opacity="1.000000" stroke="none" 
	d="
M139.674316,123.019913 
	C138.102432,127.797272 133.494614,124.895065 130.249268,126.845757 
	C128.490906,128.299942 127.080658,127.563278 125.810150,126.826309 
	C118.339333,122.492752 111.267975,117.526375 103.966614,112.922646 
	C102.832718,112.207687 101.936958,111.201263 101.801483,109.409286 
	C105.516411,106.912300 109.719093,108.921745 113.744324,107.169128 
	C122.990913,111.418037 131.094666,117.267014 139.674316,123.019913 
z"/>
<path fill="#A76AF2" opacity="1.000000" stroke="none" 
	d="
M35.369858,317.611572 
	C32.349072,317.982025 29.577793,318.001099 26.344635,318.030273 
	C20.632864,309.188873 20.073397,299.694122 22.091730,289.427551 
	C24.506363,286.715912 27.209955,286.767578 30.458546,287.992767 
	C32.421227,289.521973 32.797428,291.357330 32.470757,293.148804 
	C31.178427,300.235779 32.906406,306.849915 35.300343,313.397461 
	C35.755993,314.643677 36.024975,315.930603 35.369858,317.611572 
z"/>
<path fill="#AF73EE" opacity="1.000000" stroke="none" 
	d="
M31.490679,289.058563 
	C28.434132,289.020752 25.743822,289.010284 22.609711,288.999451 
	C23.490164,279.742950 28.008371,272.111084 34.163380,265.293945 
	C34.684818,264.716431 34.942619,263.900848 35.637253,263.044312 
	C38.397110,266.158264 42.424122,264.158020 45.747246,265.882721 
	C46.715504,267.724976 45.771145,268.970764 44.756664,270.024170 
	C40.003540,274.959503 36.140175,280.442749 33.808563,286.942352 
	C33.474926,287.872406 32.830025,288.665344 31.490679,289.058563 
z"/>
<path fill="#BC81E9" opacity="1.000000" stroke="none" 
	d="
M457.911743,246.604904 
	C455.074341,246.763077 452.246094,247.548950 449.251343,246.161011 
	C448.109802,245.204697 447.671265,244.204010 447.894653,243.248672 
	C449.799713,235.102066 450.774048,226.644379 455.986725,219.200470 
	C459.133087,217.951706 461.872650,217.493515 464.817017,219.669876 
	C463.593781,228.996445 460.397278,237.497391 457.911743,246.604904 
z"/>
<path fill="#C48BE5" opacity="1.000000" stroke="none" 
	d="
M465.455200,219.847565 
	C462.429474,220.026031 459.741913,220.012177 456.610809,219.997467 
	C454.923828,219.044647 454.937347,217.686707 455.230316,216.406311 
	C456.878662,209.202652 458.757935,202.059418 461.241699,195.091034 
	C461.575623,194.154236 462.202484,193.375534 463.541748,192.887543 
	C466.392426,194.947784 469.302216,193.616119 472.402954,193.995956 
	C470.486664,202.548141 468.140015,211.101700 465.455200,219.847565 
z"/>
<path fill="#BD83E9" opacity="1.000000" stroke="none" 
	d="
M66.084183,240.667740 
	C62.869976,242.308456 59.903988,242.017456 56.551346,241.015640 
	C53.454071,232.920212 50.740692,224.843109 48.096703,216.381531 
	C50.298809,213.577866 52.991322,213.918091 56.148663,214.567993 
	C57.553070,214.976654 58.541473,215.466599 58.930996,216.379272 
	C62.228283,224.105057 65.899780,231.725021 66.084183,240.667740 
z"/>
<path fill="#C48BE5" opacity="1.000000" stroke="none" 
	d="
M57.426476,215.642914 
	C54.454784,215.964767 51.755375,215.981842 48.611031,215.997986 
	C45.442741,208.269043 42.719395,200.541031 39.941330,192.428925 
	C42.668537,192.019669 45.450459,191.994492 48.696396,191.952805 
	C50.779556,191.877914 51.526382,193.050873 52.004093,194.249557 
	C54.373070,200.193863 56.417522,206.252579 58.012650,212.453964 
	C58.261406,213.421051 58.122299,214.411224 57.426476,215.642914 
z"/>
<path fill="#DFA9DA" opacity="1.000000" stroke="none" 
	d="
M63.089485,111.421043 
	C65.766495,110.995972 68.366470,110.996864 71.399811,110.996521 
	C72.445297,111.278664 73.097778,111.650581 73.285805,112.271370 
	C75.525261,119.665436 77.628204,127.086876 76.189919,135.318298 
	C73.128548,137.328415 70.380760,137.478287 67.251785,135.356964 
	C65.580978,127.322357 64.296715,119.584679 63.089485,111.421043 
z"/>
<path fill="#E0A9D9" opacity="1.000000" stroke="none" 
	d="
M441.771423,110.218491 
	C444.766632,109.996338 447.367004,109.997108 450.400574,109.996635 
	C451.468445,116.129890 449.241455,121.914391 448.453430,127.869225 
	C448.200867,129.777618 448.511902,131.812729 447.392761,133.879990 
	C443.990997,135.232880 441.074524,135.345993 438.210327,132.633652 
	C436.694885,124.606926 438.227661,117.397377 441.771423,110.218491 
z"/>
<path fill="#D8A0DD" opacity="1.000000" stroke="none" 
	d="
M438.505371,131.934692 
	C441.090332,134.086960 444.148651,132.148849 446.748444,133.827362 
	C446.847504,140.911591 445.169617,147.502014 443.906250,154.582352 
	C441.233185,154.998199 438.633484,154.998444 435.600403,154.997940 
	C434.592621,154.627823 433.981506,154.126541 433.981842,153.481903 
	C433.985992,146.064270 434.328827,138.698807 438.505371,131.934692 
z"/>
<path fill="#D8A0DD" opacity="1.000000" stroke="none" 
	d="
M66.923782,135.491104 
	C69.558159,135.039169 72.251068,135.018311 75.388382,134.996338 
	C79.998558,141.278564 80.669113,148.196503 79.188904,155.718430 
	C76.232971,155.997147 73.633064,155.997711 70.600052,155.997528 
	C69.013893,149.319748 67.305000,142.730927 66.923782,135.491104 
z"/>
<path fill="#000000" opacity="1.000000" stroke="none" 
	d="
M413.179199,313.682922 
	C410.924622,320.554901 408.797821,327.107819 407.092377,333.768616 
	C406.477509,336.170105 405.499969,337.330688 403.139557,338.085480 
	C386.162811,343.514221 369.002106,348.032318 351.409637,351.154999 
	C336.928864,353.725311 322.341583,355.221344 307.844360,357.370636 
	C300.547424,358.452454 296.291534,355.978668 292.072083,351.501526 
	C288.345856,347.547760 283.319611,345.012299 280.060181,340.160187 
	C287.635071,333.679474 295.239105,327.173798 302.981110,320.353210 
	C304.321411,316.267853 307.724854,314.479095 310.450409,312.171387 
	C317.807190,305.942322 325.060486,299.586670 332.820526,293.303680 
	C341.601837,285.910614 349.951324,278.536926 358.858917,271.288788 
	C366.904266,264.424011 374.606537,257.690002 382.820221,251.024872 
	C391.559662,243.584320 399.906921,236.216080 408.887238,229.060455 
	C416.913788,221.689697 425.343842,215.320145 433.346313,207.887268 
	C435.355591,206.114395 437.071625,204.560364 439.015198,203.304108 
	C440.144165,202.574371 441.431488,201.954498 442.720459,202.730209 
	C444.046753,203.528351 443.973114,204.958282 443.762817,206.289627 
	C443.479645,208.082703 442.950134,209.823959 442.407104,211.962173 
	C439.452087,223.028275 436.428192,233.668076 433.433533,244.725723 
	C430.354828,255.278290 428.102692,265.653961 424.607605,276.093262 
	C422.094513,287.310272 418.711731,297.883301 415.935577,308.617767 
	C415.478699,310.384552 414.904510,312.124695 413.179199,313.682922 
z"/>
<path fill="#000000" opacity="1.000000" stroke="none" 
	d="
M212.881165,321.693726 
	C218.163956,326.682587 223.291779,331.500366 228.789215,335.851105 
	C230.615768,337.296692 232.137207,338.949890 234.175735,340.723083 
	C227.891953,346.195679 221.656158,351.528625 215.554199,357.010498 
	C214.054794,358.357513 212.419434,358.165863 210.896347,357.940094 
	C196.740021,355.841583 182.472656,354.739990 168.339920,352.221710 
	C153.814606,349.633453 139.545425,346.178253 125.239700,342.722656 
	C118.472771,341.088074 113.679756,338.106537 112.716003,330.517883 
	C112.317467,327.379730 110.790421,324.384888 109.446091,321.141663 
	C107.314285,319.599426 106.365135,317.718445 105.804642,315.590607 
	C104.079323,309.040802 101.638596,302.718201 99.586105,295.866821 
	C95.975082,285.510590 92.668846,275.458710 89.368637,265.002533 
	C86.498238,255.511658 83.294632,246.531189 80.359131,237.061462 
	C77.222221,227.961395 73.989586,219.293732 71.679459,209.921036 
	C71.305450,207.978088 70.438591,206.133926 72.120384,205.055771 
	C73.899147,203.915482 75.508163,205.206131 77.259369,206.496155 
	C84.146248,212.346451 90.860855,217.823059 97.619141,223.788605 
	C106.110336,230.786682 114.440750,237.432587 122.638100,244.777313 
	C131.741287,252.078796 140.246124,259.559998 149.370911,266.839783 
	C160.069229,276.040131 170.563095,284.940491 181.538025,293.816559 
	C190.965500,301.827423 200.147537,309.582123 209.339661,317.324921 
	C210.710052,318.479248 212.300674,319.469452 212.881165,321.693726 
z"/>
<path fill="#000000" opacity="1.000000" stroke="none" 
	d="
M270.999817,419.999756 
	C284.294617,419.958099 297.169128,420.667877 309.475006,415.996460 
	C311.116364,415.373413 312.745605,414.718353 314.459229,414.047241 
	C315.875366,423.352081 316.586578,432.556061 315.882324,441.731110 
	C315.351532,448.646576 310.521759,452.881561 304.697357,456.071625 
	C297.566681,459.977051 290.028778,462.070435 281.848083,462.026733 
	C265.362091,461.938599 248.875244,461.976624 232.388824,462.009521 
	C222.848343,462.028534 214.140320,459.539093 206.236984,454.066956 
	C200.884079,450.360748 198.120850,445.632172 197.905060,438.981506 
	C197.640793,430.837402 199.030807,422.824585 199.127060,414.380981 
	C215.244522,421.288177 232.214844,419.868591 249.017731,419.991058 
	C256.178101,420.043243 263.339142,419.999756 270.999817,419.999756 
z"/>
<path fill="#000000" opacity="1.000000" stroke="none" 
	d="
M345.350555,398.745483 
	C341.170990,394.987823 337.290436,391.428680 332.898987,387.400940 
	C355.281708,384.325256 376.933685,380.108551 398.657379,373.952820 
	C403.237061,401.475067 407.799316,428.892670 412.562134,457.515594 
	C405.701599,451.603088 399.871185,446.636566 394.104645,441.596954 
	C380.623932,429.815613 367.184875,417.986542 353.702179,406.207458 
	C350.978607,403.828033 349.028229,400.593170 345.350555,398.745483 
z"/>
<path fill="#000000" opacity="1.000000" stroke="none" 
	d="
M66.261429,188.160187 
	C60.303616,181.481491 53.101646,176.768860 46.359264,171.020660 
	C45.875179,170.608063 45.649380,170.350876 45.551582,170.051834 
	C44.909485,168.088455 39.692978,168.196350 43.093906,164.355881 
	C45.840523,161.254272 49.321728,160.876083 52.217690,162.967377 
	C58.245728,167.320465 63.799549,172.329437 69.564552,177.048965 
	C70.043747,177.441238 70.646347,177.682770 71.541588,178.020874 
	C75.656685,178.906738 78.102646,181.793991 80.927704,184.046173 
	C87.165825,189.019272 93.296455,194.127655 99.616196,199.542664 
	C108.761261,206.900375 117.589569,214.101715 126.572166,221.662231 
	C136.997482,230.025269 147.011917,238.340698 157.313263,246.853683 
	C167.492661,255.258575 177.443359,263.395538 187.609344,271.824036 
	C198.415100,280.596222 208.824051,289.298370 219.679321,298.036255 
	C225.187881,302.521454 230.491318,306.680054 235.483459,311.206604 
	C238.277710,313.740295 239.668396,316.687653 237.400726,320.695892 
	C237.166870,323.777283 237.166870,326.555847 237.166870,329.967529 
	C231.931717,326.708221 227.766296,323.049866 223.428940,319.082153 
	C221.170013,318.642059 219.403992,318.096405 217.822876,316.705627 
	C209.254349,309.168610 200.305328,302.080109 191.380127,294.421326 
	C180.252487,285.430573 169.880188,276.077820 158.654907,267.201447 
	C149.563065,259.392365 140.646469,251.919846 131.453369,244.234818 
	C123.656311,237.931290 116.407196,231.515793 108.640846,225.175323 
	C101.060028,218.565323 93.548782,212.416107 85.694870,206.137787 
	C80.526093,201.436874 75.485352,197.114990 70.289719,192.975494 
	C68.703896,191.712021 67.474625,190.178146 66.261429,188.160187 
z"/>
<path fill="#000000" opacity="1.000000" stroke="none" 
	d="
M104.739212,467.758179 
	C118.344398,455.837219 131.729355,444.212372 145.025467,432.486755 
	C152.068283,426.275848 158.924057,419.853333 165.922958,413.591949 
	C174.741959,405.702332 183.610916,397.868408 192.480911,390.036041 
	C194.771317,388.013580 197.645340,388.820312 200.067596,389.266632 
	C201.452835,389.521851 203.139679,389.673676 204.934937,390.457733 
	C196.565140,398.105469 188.660126,405.783875 180.227554,412.831024 
	C176.330353,416.087952 172.634491,419.590393 168.825943,422.915344 
	C153.554321,436.247589 138.788223,450.156982 123.728271,463.734344 
	C112.001579,474.306641 100.039619,484.618683 88.355545,495.237091 
	C85.415230,497.909271 82.588722,497.393402 79.830414,495.879089 
	C76.583023,494.096222 76.541466,490.719299 77.223579,487.572876 
	C78.388687,482.198547 79.856934,476.890381 81.175301,471.548828 
	C89.121284,439.354584 97.053764,407.157043 105.024422,374.968933 
	C105.407204,373.423126 104.973427,370.522461 108.094215,372.023438 
	C110.707321,373.280212 116.241249,371.574585 114.831482,377.367401 
	C107.598412,407.088470 100.227165,436.776428 92.713921,466.427765 
	C92.123604,468.757477 91.594040,470.506104 93.650475,472.123779 
	C95.820351,473.830750 98.073975,473.208130 100.047142,471.939270 
	C101.688446,470.883820 103.015709,469.339996 104.739212,467.758179 
z"/>
<path fill="#000000" opacity="1.000000" stroke="none" 
	d="
M369.008240,443.994263 
	C348.960052,426.222412 329.267609,408.500000 309.619598,390.817535 
	C319.040009,386.903351 320.465942,388.831055 326.910370,394.433655 
	C340.426575,406.184174 353.895996,417.989288 367.312103,429.853973 
	C377.180725,438.581360 386.923920,447.450439 396.742737,456.234344 
	C402.750366,461.608795 408.727295,467.021393 414.861847,472.247986 
	C416.891876,473.977570 419.505524,475.020477 422.095581,473.321289 
	C424.407410,471.804657 423.611450,469.753479 423.312347,467.275574 
	C421.710022,454.000519 418.985138,440.919037 416.954742,427.722748 
	C414.952789,414.711243 412.590607,401.755157 410.384033,388.775146 
	C409.594330,384.129791 408.797455,379.485657 408.004242,374.840881 
	C407.539948,372.122040 408.546600,370.515533 411.369049,369.970398 
	C413.111633,369.633881 414.784241,368.935242 416.941620,368.256561 
	C418.295319,376.032593 419.695770,383.790009 420.987610,391.565521 
	C422.906128,403.113190 424.739288,414.674957 426.624634,426.228180 
	C428.405884,437.143616 430.199341,448.057129 432.002716,458.968933 
	C433.566772,468.432648 435.127289,477.897095 436.742554,487.352142 
	C437.274506,490.465851 436.833740,492.913940 434.029266,495.053253 
	C430.735565,497.565765 427.888153,496.583954 425.311401,494.535461 
	C421.005066,491.112000 417.249176,487.052612 413.090790,483.418427 
	C398.323608,470.512756 383.910980,457.201385 369.008240,443.994263 
z"/>
<path fill="#000000" opacity="1.000000" stroke="none" 
	d="
M465.022980,171.642227 
	C458.326538,177.396973 451.769562,182.833130 445.082397,188.581024 
	C443.728241,192.415482 440.586517,194.230453 438.005737,196.483582 
	C433.760620,200.189713 429.308746,203.658569 424.892700,207.707855 
	C416.317596,214.549469 408.273102,221.478012 400.034058,228.714706 
	C391.062042,235.912796 382.669464,243.261932 373.900146,250.704636 
	C366.083710,256.984436 358.960541,263.552277 351.095154,269.766357 
	C341.741730,277.924194 332.478149,285.655060 323.027771,293.706116 
	C314.388184,300.882111 306.168152,308.013275 297.833405,315.008484 
	C295.948486,316.590454 294.195892,318.417450 291.213379,318.817322 
	C286.485168,322.498230 282.080780,326.042511 276.979614,330.147491 
	C276.979614,326.950653 276.979614,324.406921 276.906372,321.430969 
	C274.204376,317.316772 275.339661,314.113342 278.327637,311.410431 
	C282.831573,307.336212 287.415985,303.341461 292.663635,299.594299 
	C303.843842,290.429382 314.463165,281.152130 325.856293,272.272308 
	C335.230957,264.450775 344.266968,256.763702 353.847168,249.189194 
	C362.597839,241.699432 371.216980,234.597229 380.112000,227.279709 
	C388.962311,220.360825 397.105835,213.125580 405.951904,206.203644 
	C415.565491,198.245224 424.777466,190.347641 434.260040,182.777740 
	C435.804047,181.545166 437.188202,179.970566 439.798615,180.211731 
	C446.972107,174.319260 453.818451,168.572205 460.698822,162.866165 
	C462.227264,161.598618 463.957794,160.853592 466.062408,160.974182 
	C468.613831,161.120377 469.948883,163.005173 470.828644,164.781754 
	C471.713440,166.568466 470.034637,167.504593 468.402313,168.316864 
	C467.136932,168.946518 466.229187,170.294785 465.022980,171.642227 
z"/>
<path fill="#000000" opacity="1.000000" stroke="none" 
	d="
M107.755035,452.744324 
	C106.916115,453.559845 106.331337,454.118896 104.714790,455.664337 
	C106.345474,448.778046 107.606262,443.132538 109.023567,437.526611 
	C113.977768,417.931030 119.098976,398.376312 123.829552,378.727295 
	C124.415436,376.293732 125.144241,376.598999 126.678391,376.994629 
	C140.812317,380.639557 155.172272,383.187714 169.525146,385.755707 
	C173.149780,386.404205 176.840912,386.681030 181.398819,387.238403 
	C172.695816,395.131012 164.634460,402.575409 156.420181,409.847107 
	C150.298325,415.266449 143.892242,420.364594 137.766800,425.779999 
	C127.781471,434.607819 117.921852,443.577850 107.755035,452.744324 
z"/>
<path fill="#000000" opacity="1.000000" stroke="none" 
	d="
M31.071093,289.463745 
	C34.079636,280.289917 38.806908,272.715088 45.981262,266.352173 
	C50.139538,263.128571 54.284313,260.364624 58.146606,257.250366 
	C60.640961,255.239090 61.329842,256.237244 62.045132,258.670258 
	C62.896027,261.564575 64.011322,264.381134 65.089218,267.613586 
	C68.026268,270.146484 66.392494,272.060394 64.697212,273.728821 
	C62.458099,275.932373 59.983566,277.898041 57.848053,280.214203 
	C50.993748,287.648346 46.629471,295.835205 50.026028,306.346680 
	C50.231487,306.982483 50.159859,307.657867 49.959957,308.677429 
	C52.686283,316.844727 59.032658,321.404968 65.320068,326.079468 
	C71.606049,330.752869 78.490295,334.371216 85.494705,337.756104 
	C88.011650,338.972412 89.428474,340.363159 90.153587,343.250183 
	C91.352829,348.024841 93.357399,352.597260 95.282509,357.981781 
	C72.280136,348.577698 50.048626,339.393829 35.434303,318.097534 
	C30.971024,309.014038 28.485325,299.821930 31.071093,289.463745 
z"/>
<path fill="#000000" opacity="1.000000" stroke="none" 
	d="
M298.479553,393.178467 
	C302.371185,396.537659 305.251984,400.438599 309.426392,402.986847 
	C311.716492,404.384857 311.134674,405.800079 308.844910,406.625854 
	C301.933868,409.118134 294.794586,410.865051 287.465851,410.933228 
	C266.830231,411.125305 246.188110,411.221100 225.556168,410.886505 
	C217.814667,410.760956 210.018707,409.647552 202.683640,405.231018 
	C207.789734,400.677582 212.582260,396.066559 217.753540,391.928894 
	C220.497375,389.733551 224.331955,390.584229 227.338837,391.217529 
	C231.321381,392.056305 235.214050,391.945221 239.145554,391.969238 
	C252.293076,392.049591 265.442139,392.079742 278.588959,391.953949 
	C282.846039,391.913239 287.103210,391.387329 291.350342,390.979492 
	C293.927673,390.732056 296.174194,391.328918 298.479553,393.178467 
z"/>
<path fill="#000000" opacity="1.000000" stroke="none" 
	d="
M475.603851,275.888428 
	C480.660431,283.335480 483.959229,291.107422 484.017548,300.004883 
	C484.048004,304.649567 481.856079,308.746643 480.935791,313.563477 
	C473.235565,327.858521 461.270935,337.034271 447.811218,344.757294 
	C442.171295,347.993408 436.142761,350.289001 430.391937,353.217285 
	C429.707184,353.565979 429.030548,354.450562 428.327515,353.514252 
	C427.993347,353.069183 427.945129,352.205353 428.105896,351.625000 
	C429.395050,346.971069 430.723145,342.326813 432.130188,337.707245 
	C432.731354,335.733551 434.348175,334.856964 436.144623,333.908386 
	C444.077057,329.719910 451.553131,324.847809 458.023590,318.529236 
	C460.399353,316.209229 462.035736,313.427765 463.809387,310.343445 
	C463.286438,308.880920 463.359070,307.726532 463.746765,306.612000 
	C467.524353,295.752197 463.085480,287.317871 455.865784,279.673370 
	C453.861572,277.551239 451.060913,276.011749 450.721008,272.354614 
	C451.890717,268.144501 452.951080,264.291443 454.005554,260.436829 
	C454.590698,258.297760 454.819427,256.644653 457.789703,258.859161 
	C464.370483,263.765533 470.453217,269.079102 475.603851,275.888428 
z"/>
<path fill="#000000" opacity="1.000000" stroke="none" 
	d="
M57.489899,216.124191 
	C54.716423,208.061203 52.278656,200.174728 49.500648,192.112274 
	C48.383972,189.537735 47.607533,187.139145 46.725521,184.414444 
	C51.426235,185.000946 52.664253,189.689789 56.609215,191.058563 
	C59.756527,191.642120 60.337223,194.059814 61.102295,196.186859 
	C62.612328,200.385086 64.009735,204.625229 65.428894,209.260529 
	C68.401199,218.425339 71.148621,227.259247 74.188751,236.401703 
	C77.282867,245.540924 80.219147,254.328003 83.241302,263.494202 
	C86.145454,274.068573 89.926041,283.951080 93.242340,294.393433 
	C95.528404,301.558624 97.989326,308.256256 99.981461,315.110992 
	C100.690186,317.549652 101.025734,319.947327 100.758446,322.779236 
	C103.642548,334.265411 108.118134,344.845551 111.396278,355.808502 
	C112.165710,358.381714 113.131447,360.896240 114.095398,363.694733 
	C108.438759,363.292877 105.431335,361.071014 103.828415,355.511749 
	C100.439949,343.759766 96.112968,332.278412 92.001801,320.342224 
	C89.277611,318.090240 88.613228,315.153076 87.694534,312.361572 
	C86.105560,307.533447 84.457275,302.725372 82.736183,297.529663 
	C80.092697,289.772827 77.673775,282.352600 75.203575,274.949768 
	C74.528076,272.925385 73.595024,270.893402 74.622879,268.329987 
	C71.887444,259.251984 68.940872,250.507538 65.911949,241.380829 
	C63.161602,232.765945 60.493607,224.533325 57.489899,216.124191 
z"/>
<path fill="#000000" opacity="1.000000" stroke="none" 
	d="
M463.979309,192.482086 
	C460.456177,201.398514 459.170380,210.586502 456.100891,219.607285 
	C453.778259,228.360489 451.389252,236.724380 448.977966,245.488403 
	C446.636322,253.952820 444.316925,262.017120 441.972290,270.481018 
	C442.913086,276.006592 440.628632,280.561829 439.402008,285.299683 
	C438.529327,288.670258 437.486237,291.995087 436.521423,295.752808 
	C434.869293,302.022522 433.108429,307.849243 431.474701,313.711517 
	C430.899902,315.773926 430.353943,317.862915 428.426208,319.696167 
	C424.154144,330.047272 421.981201,340.647003 419.128998,351.029999 
	C417.664978,356.359406 415.856201,360.439728 409.136414,360.636658 
	C413.348236,345.640778 417.546936,330.691528 421.790344,315.363159 
	C420.544678,313.400055 420.639709,311.580505 421.154175,309.809204 
	C424.276245,299.060303 426.786102,288.138947 430.354126,277.100830 
	C433.117004,266.188660 435.633545,255.622711 439.313721,244.973877 
	C441.516907,234.448318 444.718872,224.594040 447.442505,214.204102 
	C449.034821,208.115555 450.538574,202.412842 452.253998,196.770340 
	C452.865601,194.758728 453.263641,192.578690 455.650940,191.209229 
	C459.242249,188.486938 462.441589,185.861313 466.283142,182.708618 
	C465.398407,186.343491 464.699432,189.215225 463.979309,192.482086 
z"/>
<path fill="#000000" opacity="1.000000" stroke="none" 
	d="
M397.559937,349.762024 
	C399.267883,348.576599 401.114624,349.233459 402.935516,348.316437 
	C401.618774,353.371887 400.225525,358.409454 399.036835,363.494812 
	C398.723114,364.836761 397.975159,364.762512 396.995209,365.036865 
	C380.125549,369.760132 363.066376,373.563385 345.710663,376.032440 
	C340.097046,376.831055 334.552979,378.130768 328.933533,378.870392 
	C326.444244,379.197998 324.085266,379.180939 321.538544,377.295959 
	C317.181488,374.071014 314.034515,369.590668 308.380371,366.556915 
	C318.620911,365.279327 327.778931,364.278748 336.891632,362.964050 
	C348.298279,361.318359 359.641174,359.258545 370.851257,356.559418 
	C379.652496,354.440308 388.414001,352.156311 397.559937,349.762024 
z"/>
<path fill="#000000" opacity="1.000000" stroke="none" 
	d="
M145.015137,357.000183 
	C153.693893,358.671661 161.894730,360.636841 170.200638,361.924500 
	C181.574020,363.687775 193.027176,364.936432 204.967361,366.472717 
	C200.518631,370.573425 196.360275,374.465820 192.129089,378.277405 
	C190.445419,379.794159 188.235397,379.171326 186.403824,378.923584 
	C166.464981,376.226685 146.675735,372.671906 127.124893,367.890106 
	C125.944077,367.601288 124.409485,367.352448 123.916405,365.403381 
	C122.889366,361.343750 121.354881,357.415436 120.167213,353.392334 
	C119.559441,351.333527 120.557953,350.676636 122.554337,351.205231 
	C129.893768,353.148499 137.240234,355.065155 145.015137,357.000183 
z"/>
<path fill="#000000" opacity="1.000000" stroke="none" 
	d="
M268.461609,321.566589 
	C268.111115,333.313934 267.931152,344.630829 268.079193,355.943420 
	C268.121735,359.195801 267.254028,360.264709 263.957123,360.072327 
	C259.146210,359.791595 254.298431,359.829224 249.482513,360.063263 
	C246.548218,360.205841 245.910080,359.110931 245.942184,356.383301 
	C246.073410,345.232269 245.986938,334.078644 245.907135,322.462402 
	C244.365494,317.607452 245.331894,315.548553 249.564026,315.128845 
	C254.481339,314.641174 259.458588,314.662720 264.378632,315.125488 
	C267.795532,315.446838 269.954437,317.198578 268.461609,321.566589 
z"/>
<path fill="#A669F3" opacity="1.000000" stroke="none" 
	d="
M268.563354,321.995544 
	C268.471497,318.322205 267.515167,316.366638 263.101135,316.886322 
	C258.726288,317.401398 254.222763,317.261993 249.814468,316.915802 
	C246.289230,316.638977 245.588455,318.194397 245.905609,321.557709 
	C243.212708,321.665924 240.591797,321.333099 237.568878,320.999451 
	C238.747894,314.325409 233.346695,311.718689 229.590408,308.276703 
	C226.274124,305.237885 222.652969,302.531738 219.030609,299.364075 
	C221.150101,294.549103 225.474686,296.819000 229.270844,295.969788 
	C233.392349,296.491150 235.899094,299.121124 238.435394,301.422852 
	C242.393906,305.015259 246.783035,306.700623 252.086212,306.125122 
	C253.238052,306.000153 254.422775,306.019958 255.579422,306.121094 
	C264.137909,306.869537 272.192474,306.127960 278.374878,299.078339 
	C279.341583,297.976044 280.881866,297.464050 282.795776,297.116821 
	C286.784393,297.597076 290.822296,295.824097 293.961731,299.635132 
	C289.702606,303.917664 285.653564,308.359375 280.762756,311.483185 
	C277.047424,313.856262 276.762634,316.624786 276.904846,320.574158 
	C274.208862,321.329987 271.584595,321.661194 268.563354,321.995544 
z"/>
<path fill="#000000" opacity="1.000000" stroke="none" 
	d="
M251.015579,470.999786 
	C258.325592,471.000153 265.140839,471.090637 271.951416,470.952179 
	C274.336853,470.903687 275.166534,471.639832 275.044373,474.041992 
	C274.867340,477.522797 275.116119,481.024231 274.968750,484.507812 
	C274.785461,488.839935 271.814545,491.870514 267.470398,491.960083 
	C260.493774,492.103912 253.509888,492.103485 246.533249,491.960327 
	C242.187836,491.871185 239.304169,488.839447 239.007431,484.512299 
	C238.962067,483.850677 239.002014,483.183289 238.999161,482.518585 
	C238.949539,470.999786 238.949402,470.999786 251.015579,470.999786 
z"/>
<path fill="#AC70F0" opacity="1.000000" stroke="none" 
	d="
M74.395065,267.997437 
	C77.893265,277.388611 80.952507,286.780762 84.065323,296.567566 
	C82.073570,299.469788 79.189026,298.963867 76.102722,299.013580 
	C71.670914,296.733826 71.691833,292.309845 70.297867,288.716949 
	C68.187637,283.277954 67.779823,283.226471 63.637493,287.343170 
	C57.334587,293.607056 57.036983,300.625488 60.240303,308.622375 
	C56.987617,310.516602 53.843830,309.310120 50.295589,309.032715 
	C43.856434,299.988831 47.341831,289.704468 54.830147,280.811218 
	C57.538464,277.594788 60.401772,274.350586 64.208473,272.170105 
	C65.294052,271.548279 67.010422,270.443848 65.186066,268.340820 
	C68.096275,267.996704 71.026192,267.997589 74.395065,267.997437 
z"/>
<path fill="#000000" opacity="1.000000" stroke="none" 
	d="
M238.083710,383.000397 
	C234.829086,383.000397 232.061157,383.000397 229.293213,383.000397 
	C229.037872,382.523743 228.782532,382.047058 228.527191,381.570404 
	C235.741623,378.263306 238.322922,368.991547 247.213104,368.067200 
	C262.045563,366.525024 276.182983,367.332031 284.909332,383.000397 
	C269.353058,383.000397 253.961731,383.000397 238.083710,383.000397 
z"/>
<path fill="#000000" opacity="1.000000" stroke="none" 
	d="
M60.420517,309.095337 
	C54.149578,301.275482 54.758373,294.078766 62.006264,286.505554 
	C68.977531,279.221405 68.962181,279.226410 72.018944,288.613403 
	C72.960350,291.504364 74.010651,294.359833 75.089729,297.614258 
	C76.263992,298.752228 77.466156,299.471344 77.872498,300.815125 
	C79.824829,307.271545 83.316170,313.288696 83.310898,320.630798 
	C83.124039,321.165405 83.080902,321.333771 83.091560,321.757202 
	C83.280624,322.198944 83.415894,322.385590 83.752937,322.853058 
	C83.573654,324.138214 84.936317,326.980133 82.059265,325.456421 
	C74.083290,321.232391 66.316132,316.651367 60.420517,309.095337 
z"/>
<path fill="#AC70F0" opacity="1.000000" stroke="none" 
	d="
M435.015808,296.345551 
	C435.765564,289.064636 438.506592,282.649933 440.151306,275.948334 
	C440.531708,274.398438 440.862274,272.816101 441.598907,271.069214 
	C444.386444,272.944031 447.298370,271.617279 450.402496,271.998718 
	C454.811157,277.213287 460.570679,280.764343 463.648010,286.937683 
	C467.417877,294.500488 468.658051,301.738708 463.998322,309.652771 
	C460.768250,309.777313 457.624878,310.575989 454.268494,309.113831 
	C453.000946,307.204712 454.037445,305.760437 454.627838,304.250122 
	C456.897766,298.443146 455.600983,292.671417 451.211517,288.348053 
	C449.509888,286.672058 448.605927,286.794464 447.760376,289.091583 
	C446.535431,292.419464 446.700775,296.419525 442.924469,298.851166 
	C439.832397,299.072540 437.125702,299.110718 435.015808,296.345551 
z"/>
<path fill="#000000" opacity="1.000000" stroke="none" 
	d="
M442.799225,298.294250 
	C444.417847,293.843994 445.820648,289.666748 446.965179,285.419861 
	C447.653229,282.866882 448.563538,283.045349 450.161682,284.642273 
	C455.991150,290.467346 462.009064,298.524963 454.044220,308.619263 
	C450.294647,314.494904 444.490265,317.431244 439.390381,321.198761 
	C438.449554,321.893829 437.400848,322.807129 436.912506,320.356445 
	C436.434204,312.244781 438.788177,305.216187 442.799225,298.294250 
z"/>
<path fill="#A76AF2" opacity="1.000000" stroke="none" 
	d="
M191.688660,292.853699 
	C201.693954,301.234436 211.890030,308.785706 221.084091,317.520050 
	C221.521729,317.935822 222.237289,318.059021 222.972794,318.633301 
	C219.943008,319.878082 216.763855,320.808044 213.238327,321.892456 
	C202.315826,313.256927 191.739700,304.466919 181.027466,295.362061 
	C183.479996,290.361511 187.601639,292.623199 191.688660,292.853699 
z"/>
<path fill="#A76AF2" opacity="1.000000" stroke="none" 
	d="
M291.275726,319.121460 
	C301.031219,310.358612 311.172882,301.763275 321.632843,293.030609 
	C325.849487,292.112762 329.760254,290.994110 333.831085,293.678650 
	C323.993286,302.617035 313.869537,311.194061 303.432434,319.904663 
	C299.307404,319.675446 295.405518,320.692505 291.275726,319.121460 
z"/>
<path fill="#AA6DF1" opacity="1.000000" stroke="none" 
	d="
M431.570679,276.650848 
	C428.547577,289.391296 425.262207,301.787781 421.905945,314.584137 
	C419.207458,314.087708 416.498016,313.850647 413.314026,313.969177 
	C414.384033,305.037567 417.531738,296.541595 419.661285,287.781189 
	C420.567413,284.053772 421.754242,280.394562 422.990173,276.350830 
	C425.952942,274.200958 428.645416,274.866669 431.570679,276.650848 
z"/>
<path fill="#000000" opacity="1.000000" stroke="none" 
	d="
M278.106750,351.689209 
	C289.128998,361.338287 299.867462,370.739899 311.047119,380.527802 
	C303.857483,381.753632 297.684326,381.901581 292.482208,376.109680 
	C288.863892,372.081146 284.665070,368.530762 280.474487,365.070831 
	C275.720367,361.145630 276.430725,356.422852 278.106750,351.689209 
z"/>
<path fill="#000000" opacity="1.000000" stroke="none" 
	d="
M237.000000,355.323822 
	C237.676376,359.869141 236.235184,362.956390 232.959137,365.641846 
	C228.631119,369.189606 224.344193,372.885956 220.604111,377.028168 
	C215.710083,382.448425 209.641830,380.981110 202.872086,380.885101 
	C214.273376,370.798401 225.211761,361.121246 236.196030,351.403473 
	C237.758148,352.283844 236.658157,353.770905 237.000000,355.323822 
z"/>
<path fill="#A669F3" opacity="1.000000" stroke="none" 
	d="
M101.075241,322.736511 
	C97.320190,314.231659 94.963089,304.928101 91.932426,295.434509 
	C94.530762,292.919617 97.362236,293.476196 100.528473,294.734985 
	C104.353096,303.128815 106.681976,311.646667 109.063545,320.561401 
	C106.499359,321.565247 103.452362,319.734985 101.075241,322.736511 
z"/>
<path fill="#A76AF2" opacity="1.000000" stroke="none" 
	d="
M83.573914,320.997681 
	C80.531601,313.578857 77.896011,306.160675 75.214394,298.369751 
	C77.792450,297.075500 80.504555,296.854614 83.689560,296.971252 
	C86.733536,304.384827 89.348160,311.807465 91.897720,319.614258 
	C89.195381,320.175232 86.693008,321.411255 83.573914,320.997681 
z"/>
<path fill="#A76AF2" opacity="1.000000" stroke="none" 
	d="
M442.765747,297.894531 
	C441.424377,305.212952 439.737946,312.378998 437.004639,319.648560 
	C434.233154,319.997803 431.633301,319.998535 428.600281,319.998779 
	C428.921631,313.276611 431.685272,307.073730 433.300140,300.571014 
	C433.647766,299.171295 433.784485,297.723480 434.547058,296.152283 
	C437.168457,297.498657 440.055420,296.487854 442.765747,297.894531 
z"/>
<path fill="#A76AF2" opacity="1.000000" stroke="none" 
	d="
M83.865448,322.916443 
	C83.661057,322.939941 83.367409,322.746002 83.109558,322.282166 
	C83.413521,322.187988 83.623802,322.416901 83.865448,322.916443 
z"/>
<path fill="#000000" opacity="1.000000" stroke="none" 
	d="
M161.582184,142.388153 
	C161.883682,137.636490 161.933853,133.276413 161.908707,128.456772 
	C163.195267,126.063591 165.204605,127.058319 166.870987,127.051605 
	C187.004593,126.970337 207.138641,126.998093 227.272583,126.999863 
	C230.253403,127.000130 233.946228,127.466118 233.867264,123.149315 
	C233.792023,119.037880 230.304123,118.043846 226.833679,118.033134 
	C207.864700,117.974564 188.895447,118.005219 169.926285,118.005196 
	C162.029694,118.005180 162.029694,118.005157 161.910858,109.448685 
	C162.293045,99.999237 162.293045,99.999237 171.523514,99.999237 
	C189.679703,99.999229 207.835907,99.999565 225.992096,99.998390 
	C227.158005,99.998314 228.347336,100.133018 229.485138,99.950996 
	C232.175491,99.520599 234.203964,97.960114 233.859558,95.149048 
	C233.555756,92.669434 232.232803,90.861107 228.920609,90.916496 
	C216.597839,91.122551 204.269531,90.998596 191.943314,90.998550 
	C183.448212,90.998520 174.952301,91.057869 166.458786,90.941605 
	C165.000061,90.921631 163.123718,92.007248 162.041840,89.546707 
	C164.175613,82.431664 165.136154,75.480263 167.835419,68.873924 
	C175.226700,50.784126 187.483841,37.136784 204.202850,27.453554 
	C210.591522,23.753395 217.281952,20.397764 225.000061,19.511349 
	C225.000061,31.144850 225.029922,42.804367 224.981201,54.463551 
	C224.967224,57.808018 224.893860,61.146938 229.578156,60.967091 
	C234.070618,60.794605 233.999329,57.406815 233.999695,54.180893 
	C234.000946,43.183094 234.168549,32.181267 233.905212,21.189777 
	C233.817963,17.548136 234.993271,16.396650 238.359314,17.001720 
	C241.874756,17.633644 245.185913,16.233809 248.611710,15.936716 
	C251.961823,15.646186 253.175049,16.480913 253.096344,20.157280 
	C252.839569,32.149376 253.007736,44.150417 252.994125,56.147999 
	C252.991211,58.717823 252.692352,61.086063 256.657135,61.106472 
	C260.374298,61.125591 261.090851,59.559898 261.054169,56.286907 
	C260.917908,44.124207 261.106506,31.957468 260.924957,19.795946 
	C260.879547,16.753363 261.590424,15.536532 264.747833,15.967767 
	C269.138977,16.567509 273.518433,17.365349 278.002197,17.029579 
	C280.907623,16.812004 279.955078,19.143774 279.963684,20.547934 
	C280.029755,31.378695 280.000000,42.210037 280.000305,53.041203 
	C280.000305,54.041000 279.838745,55.074242 280.034943,56.034161 
	C280.568298,58.643486 281.079742,61.318577 284.793610,61.017162 
	C288.257782,60.736019 289.048981,58.645512 289.027802,55.592266 
	C288.954987,45.094875 288.999878,34.596664 288.999908,24.098768 
	C288.999908,22.478718 288.999908,20.858665 288.999908,18.847593 
	C322.353577,29.101513 342.969696,50.653500 350.948517,84.163910 
	C351.174561,85.113205 351.005219,86.156631 351.093872,87.576401 
	C353.110168,91.785355 350.216949,90.987946 348.284973,90.989532 
	C329.983704,91.004578 311.682465,90.998520 293.381195,90.998543 
	C290.552826,90.998550 287.703522,91.214806 284.901459,90.943329 
	C281.486053,90.612434 280.421570,92.951401 280.145813,95.322533 
	C279.857758,97.799210 281.704742,99.465363 284.182373,99.929108 
	C285.469971,100.170105 286.836456,99.997818 288.167328,99.997948 
	C307.300446,99.999794 326.433594,99.999146 345.566711,99.999283 
	C351.994476,99.999329 351.994019,99.999580 352.005371,106.590858 
	C352.006805,107.422691 352.016479,108.254517 352.094666,109.540863 
	C351.732574,118.004974 351.732574,118.004974 343.515320,118.004974 
	C325.230316,118.004974 306.945282,118.001877 288.660278,118.011391 
	C287.335144,118.012077 285.867767,117.755928 284.714630,118.226776 
	C282.322052,119.203682 279.466675,120.256027 280.063843,123.664284 
	C280.597473,126.709999 283.044006,127.037506 285.730621,127.029877 
	C305.677765,126.973236 325.625092,126.999069 345.572388,126.999222 
	C351.994965,126.999275 351.994476,126.999573 352.004974,133.592255 
	C352.006317,134.423340 352.016235,135.254440 352.094238,136.539917 
	C355.807678,143.487869 353.561005,147.903183 346.272827,147.987961 
	C327.987946,148.200699 309.700592,148.033875 291.414276,148.076187 
	C289.424561,148.080795 287.410187,147.930069 285.471069,148.525146 
	C284.476562,148.830368 283.639740,149.423035 283.660889,150.598434 
	C283.682281,151.788559 284.563995,152.308792 285.572632,152.571976 
	C287.363190,153.039185 289.205170,152.922928 291.030121,152.925110 
	C308.817810,152.946381 326.605621,152.891449 344.393188,152.954605 
	C352.765045,152.984344 354.284180,154.665695 353.797302,163.484177 
	C353.796661,164.946213 353.988342,165.931168 354.015839,166.930618 
	C354.209229,173.959335 352.398346,175.984131 345.414062,176.026184 
	C327.277618,176.135406 309.140533,176.045990 291.003723,176.075714 
	C289.177673,176.078705 287.335968,175.964218 285.542480,176.440994 
	C284.514465,176.714294 283.647461,177.284943 283.639160,178.432739 
	C283.630951,179.572067 284.469330,180.181320 285.492584,180.488922 
	C287.275330,181.024796 289.118256,180.919876 290.943695,180.922607 
	C308.747742,180.949173 326.551880,180.891403 344.355804,180.954178 
	C352.759918,180.983810 354.277679,182.651627 353.797241,191.460495 
	C353.788940,192.921661 353.985443,193.906784 354.014008,194.906616 
	C354.214996,201.939697 352.396484,203.981323 345.424316,204.023743 
	C327.277710,204.134140 309.130463,204.044479 290.983490,204.072754 
	C289.155457,204.075592 287.307800,203.951981 285.518494,204.431091 
	C284.521942,204.697937 283.628540,205.221039 283.628967,206.427872 
	C283.629364,207.607025 284.471527,208.182632 285.465027,208.487747 
	C287.242950,209.033752 289.091949,208.922958 290.919647,208.925461 
	C308.733673,208.949753 326.547760,208.911148 344.361725,208.953796 
	C347.170868,208.960526 350.082245,208.673538 352.680756,211.234100 
	C354.762054,216.318390 354.091797,221.148285 353.641296,226.427460 
	C353.154236,231.388702 349.880249,231.948502 346.372314,232.004700 
	C338.393585,232.132538 330.413239,232.045761 322.433594,232.053986 
	C311.960175,232.064774 301.486755,232.050278 291.013336,232.061371 
	C289.517700,232.062958 288.014862,231.998108 286.530823,232.205978 
	C285.404846,232.363678 283.915466,232.397018 283.855774,233.873093 
	C283.780060,235.743912 285.498779,235.652008 286.754944,235.816727 
	C288.403442,236.032883 290.075012,235.939728 291.737030,235.940445 
	C308.361511,235.947632 324.985962,235.941742 341.610443,235.944794 
	C342.607910,235.944977 343.609741,235.888718 344.601990,235.964447 
	C347.640533,236.196304 351.549957,235.231094 352.598816,239.240753 
	C353.581268,242.996719 350.273621,244.686340 347.292603,246.734390 
	C343.444214,251.123123 339.010773,254.103760 334.716827,257.231903 
	C332.634369,258.748962 330.109711,259.027557 327.563568,259.029358 
	C280.445007,259.062653 233.326462,259.055695 186.207901,259.050781 
	C182.098312,259.050354 178.735062,257.431427 175.787476,254.896759 
	C172.507797,252.076538 168.938568,249.598648 165.520325,246.227844 
	C164.402740,245.041275 163.336884,244.459229 162.609833,243.555695 
	C159.904984,240.194351 160.989685,237.114960 165.196899,236.200531 
	C166.998795,235.808899 168.848068,235.952225 170.677246,235.949677 
	C188.500381,235.924896 206.323883,235.998337 224.146210,235.868515 
	C226.222000,235.853378 229.945999,236.944077 229.902679,233.957916 
	C229.861404,231.110428 226.143188,232.140839 224.029526,232.126266 
	C206.540237,232.005539 189.049911,232.077423 171.559921,232.055389 
	C160.634598,232.041626 159.398788,230.703491 160.216370,219.431702 
	C159.655975,210.708145 161.225815,208.983063 169.660095,208.953751 
	C187.625565,208.891312 205.591644,208.996857 223.556488,208.868851 
	C225.984268,208.851532 230.140411,209.932434 230.106354,206.439362 
	C230.072372,202.954849 225.920914,204.148727 223.504715,204.131561 
	C205.872589,204.006271 188.239258,204.092545 170.606384,204.055435 
	C160.980835,204.035172 159.564346,202.497482 160.202866,192.507584 
	C160.204819,191.046173 160.001816,190.061386 159.993515,189.060959 
	C159.944962,183.219574 161.793884,181.159164 167.597931,180.996979 
	C174.251343,180.811066 180.910110,180.941513 187.566544,180.935684 
	C198.716217,180.925934 209.865875,180.934692 221.015549,180.931763 
	C222.513214,180.931381 224.018265,181.015579 225.506500,180.873978 
	C227.413849,180.692459 230.227264,181.110535 230.246964,178.477036 
	C230.267334,175.755234 227.413361,176.148178 225.540482,176.133041 
	C209.232620,176.001312 192.923981,176.085999 176.615585,176.066971 
	C174.285812,176.064255 171.955917,176.081116 169.626282,176.055283 
	C161.235840,175.962204 159.716080,174.338486 160.203430,165.517883 
	C160.205063,164.057434 160.012360,163.073227 159.984573,162.074432 
	C159.789215,155.050476 161.603928,153.016876 168.573166,152.974579 
	C186.698120,152.864532 204.823746,152.953827 222.949066,152.925507 
	C224.774643,152.922653 226.617325,153.041565 228.408615,152.571869 
	C229.412369,152.308685 230.310806,151.806198 230.352203,150.620621 
	C230.393387,149.441391 229.560959,148.848114 228.561707,148.529587 
	C226.788681,147.964447 224.942123,148.079437 223.117767,148.077026 
	C205.657547,148.053894 188.197311,148.080902 170.737122,148.054184 
	C168.746689,148.051147 166.727692,148.235657 164.776810,147.727127 
	C162.262665,147.071777 160.482330,145.818237 161.582184,142.388153 
z"/>
<path fill="#000000" opacity="1.000000" stroke="none" 
	d="
M438.976654,131.454880 
	C437.970581,137.067078 436.958282,142.242462 436.015076,147.430405 
	C435.609955,149.658630 435.348358,151.912933 435.094299,154.576294 
	C434.112518,160.495361 432.718994,165.958939 432.153168,171.506943 
	C431.888916,174.097549 430.988403,175.767975 429.043091,177.620193 
	C428.473511,180.056412 426.971130,181.353699 425.335907,182.433868 
	C422.679016,184.188919 420.401825,184.391022 419.562561,180.063248 
	C419.797913,170.790161 422.092896,162.221024 423.293579,153.101593 
	C424.550476,149.543732 424.706848,146.183121 424.578125,142.905380 
	C424.120575,131.251633 412.405060,124.440979 401.908844,129.803909 
	C393.917999,133.886749 386.831635,139.494156 378.781372,144.246460 
	C374.654633,147.360764 370.494232,149.720810 366.412537,152.182709 
	C361.713074,155.017181 359.464111,153.653976 359.181244,148.118988 
	C358.876343,142.152496 360.660522,139.607849 366.632385,138.095551 
	C374.503448,133.435791 381.859467,128.576797 389.458862,124.134018 
	C395.694794,120.488327 401.216156,115.713013 407.984222,112.372467 
	C416.190430,107.016022 424.206635,101.921989 432.317413,96.983368 
	C438.597290,93.159615 442.932892,95.670609 443.000488,103.020805 
	C443.012726,104.351440 443.000610,105.682304 442.980225,107.453369 
	C442.823578,108.072372 442.686432,108.251053 442.363892,108.712250 
	C442.131927,109.161011 442.085358,109.327271 442.102539,109.744553 
	C441.374786,117.044601 439.174194,123.881363 438.976654,131.454880 
z"/>
<path fill="#D59EDE" opacity="1.000000" stroke="none" 
	d="
M366.731384,137.834625 
	C359.938751,140.919830 360.494232,146.749649 361.312897,153.223648 
	C366.771606,149.797043 372.009277,146.509186 377.569946,143.087677 
	C382.108398,142.402145 386.345703,140.902344 390.789917,143.529541 
	C392.262146,146.267166 390.543060,147.638443 388.928101,148.663635 
	C379.765717,154.479797 371.021179,160.968506 360.937439,166.027802 
	C357.829712,166.202026 355.107880,166.286346 352.456238,164.281219 
	C351.704529,154.998459 351.704529,154.998444 342.459076,154.998474 
	C323.631714,154.998535 304.803345,154.900879 285.977844,155.086975 
	C282.510468,155.121262 280.293457,153.919479 280.153870,150.743820 
	C279.994659,147.121094 282.717560,145.978394 286.062805,145.983658 
	C305.389954,146.014038 324.717194,145.998428 344.044403,145.998383 
	C351.969360,145.998367 351.969360,145.998367 352.089478,137.447372 
	C356.913177,137.296890 361.708557,136.366028 366.731384,137.834625 
z"/>
<path fill="#C98FE4" opacity="1.000000" stroke="none" 
	d="
M420.512573,179.680359 
	C421.159912,181.746689 420.713318,184.733093 423.848663,181.709976 
	C425.212646,180.394806 426.165741,178.559006 428.536255,177.976990 
	C432.136780,179.977173 436.041351,178.110275 439.736633,179.886078 
	C431.083466,187.522308 422.054932,194.994904 413.022125,202.462280 
	C411.267059,203.913162 409.495178,205.343704 407.418060,206.916779 
	C403.468140,207.815491 399.831940,208.627960 395.799194,207.015808 
	C393.641998,204.640350 395.289612,203.143692 396.540375,201.681076 
	C397.944153,200.039581 399.663391,198.669739 401.458221,197.513031 
	C406.258820,194.419205 408.939240,190.210861 409.221954,184.441879 
	C409.320404,182.433426 410.023071,180.540070 412.126587,179.026215 
	C415.140778,177.904602 417.736633,177.659744 420.512573,179.680359 
z"/>
<path fill="#000000" opacity="1.000000" stroke="none" 
	d="
M443.445740,164.540955 
	C443.172150,165.080322 442.729156,165.409393 442.286194,165.738449 
	C442.312378,165.204834 442.338593,164.671219 442.640808,164.032654 
	C443.036621,164.062012 443.156464,164.196350 443.445740,164.540955 
z"/>
<path fill="#000000" opacity="1.000000" stroke="none" 
	d="
M78.909256,156.411316 
	C77.883751,149.280609 76.934624,142.564667 75.909142,135.421982 
	C74.551071,127.275803 73.269363,119.556358 71.910416,111.416092 
	C72.109039,107.883400 70.601845,105.005386 70.916718,101.802574 
	C71.505196,95.816765 75.965935,93.359230 81.080833,96.534546 
	C87.775337,100.690491 94.474503,104.838928 101.529617,109.017410 
	C109.447365,115.073143 117.950775,119.676598 125.984741,124.989197 
	C127.048965,125.692932 128.154602,126.334023 129.601044,127.060410 
	C137.037994,132.533615 144.760590,136.968811 152.564056,141.906464 
	C154.303986,143.181778 154.771576,144.753357 154.798691,146.472000 
	C154.835297,148.792160 155.194901,151.389008 153.117126,152.969696 
	C150.786133,154.743027 148.677536,152.912262 146.742538,151.754227 
	C142.748703,149.364014 138.663818,147.093628 134.795975,143.809708 
	C127.005821,139.606323 120.434105,134.153046 112.930000,130.243439 
	C102.176857,124.641083 89.992767,130.921341 89.268623,142.403519 
	C89.049431,145.879059 90.014709,149.305115 90.493896,153.134750 
	C92.118446,161.458130 93.568451,169.420425 94.522675,177.869110 
	C94.597946,179.268600 95.009323,180.225662 94.955238,181.227356 
	C94.779961,184.473694 93.214027,185.535217 90.420090,183.875488 
	C87.305008,182.024979 84.141869,180.060165 82.242905,176.239777 
	C81.026451,169.535995 80.006042,163.181030 78.909256,156.411316 
z"/>
<path fill="#CA91E3" opacity="1.000000" stroke="none" 
	d="
M81.751297,176.162384 
	C86.534584,177.563416 89.181671,181.940369 93.450920,184.042313 
	C94.577057,182.240936 92.302071,181.201721 93.092682,179.368134 
	C95.198402,176.052032 97.997398,175.866837 101.489807,176.972839 
	C103.328468,178.187378 104.076988,179.716293 104.326424,181.355789 
	C105.176201,186.940979 106.524994,192.339920 109.446762,197.637619 
	C106.980614,201.880783 103.231819,200.662537 99.390015,200.694275 
	C90.055023,193.442596 81.105377,186.059875 72.023651,178.362274 
	C74.844284,176.114716 78.404816,177.784546 81.751297,176.162384 
z"/>
<path fill="#E0A9D9" opacity="1.000000" stroke="none" 
	d="
M442.352722,108.844826 
	C442.271027,108.687126 442.363586,108.379494 442.708435,107.982773 
	C442.887299,108.199265 442.742706,108.466339 442.352722,108.844826 
z"/>
<path fill="#C78DE4" opacity="1.000000" stroke="none" 
	d="
M455.739410,190.836426 
	C453.620361,198.567322 451.215607,206.027008 449.414154,213.939743 
	C446.195038,215.043045 443.436554,215.337341 441.029266,212.361725 
	C440.479614,208.840057 442.663605,206.217163 442.888763,202.743240 
	C439.327606,204.230240 437.665009,207.389847 434.473328,209.032822 
	C430.552307,209.869308 426.930878,211.238464 423.924377,207.346634 
	C430.025421,200.161072 437.412109,194.941406 444.632629,189.028290 
	C448.138855,191.384232 452.115570,188.909027 455.739410,190.836426 
z"/>
<path fill="#C78DE4" opacity="1.000000" stroke="none" 
	d="
M64.503845,210.305969 
	C61.178303,204.184738 60.489883,197.499481 57.105072,191.448456 
	C59.390385,188.435028 63.493828,191.726334 65.926888,188.261353 
	C73.304619,192.528824 79.608894,198.324234 85.915901,204.578064 
	C87.157623,207.756836 84.930840,208.133606 83.113342,208.706955 
	C81.328789,209.269913 79.593338,208.694321 77.417709,208.160034 
	C76.237038,207.515671 75.600075,206.667419 74.771362,206.388077 
	C73.926102,206.103180 73.018074,204.768875 72.167419,205.838974 
	C71.872261,206.210266 72.675568,207.454758 72.905060,208.648972 
	C70.695053,212.136520 67.958321,212.317383 64.503845,210.305969 
z"/>
<path fill="#D59EDE" opacity="1.000000" stroke="none" 
	d="
M134.636536,142.310211 
	C140.682449,145.768738 146.370193,149.364838 152.471893,153.222641 
	C153.492599,149.678925 152.785385,146.273010 152.934891,142.495636 
	C155.572403,142.028427 158.259537,142.013443 161.390091,141.997513 
	C161.525223,145.081299 162.678833,146.113312 165.979706,146.085449 
	C186.477753,145.912415 206.978027,145.973511 227.477463,146.014633 
	C233.108795,146.025925 235.194366,148.913086 233.055511,153.062531 
	C231.792267,155.513260 229.847519,154.978012 227.970520,154.980743 
	C208.137711,155.009567 188.304825,154.998413 168.471970,154.998520 
	C162.006500,154.998550 162.007019,154.998886 161.995346,161.586838 
	C161.993866,162.420105 161.983597,163.253387 161.905350,164.541046 
	C159.808090,167.192673 157.227600,166.966248 154.231720,166.543762 
	C143.370377,161.399063 134.136459,154.370819 124.411949,148.134262 
	C123.438797,147.510147 122.741325,146.525787 122.907478,144.904572 
	C126.525177,142.297745 130.589874,143.366760 134.636536,142.310211 
z"/>
<path fill="#AD71EF" opacity="1.000000" stroke="none" 
	d="
M334.426941,293.908020 
	C330.277496,293.677521 326.370392,294.633514 322.262054,293.170898 
	C329.932983,285.933777 337.912292,278.971252 345.899811,272.018250 
	C347.002472,271.058380 348.146057,270.145477 349.582031,269.081177 
	C353.622223,268.352142 357.548737,266.862885 360.109894,271.671051 
	C352.723572,278.409149 345.457092,284.778534 338.017731,290.939117 
	C336.904785,291.860748 335.852173,292.856567 334.426941,293.908020 
z"/>
<path fill="#B97FEA" opacity="1.000000" stroke="none" 
	d="
M372.929932,250.352875 
	C380.794739,241.976685 389.549072,235.127716 398.568665,228.089020 
	C402.717773,226.566193 406.441925,226.135132 409.934021,229.611832 
	C401.641296,237.281876 393.184784,244.533493 384.420319,251.914154 
	C380.268097,252.628937 376.286743,254.465302 372.929932,250.352875 
z"/>
<path fill="#BD83E9" opacity="1.000000" stroke="none" 
	d="
M440.544403,212.148209 
	C443.192535,213.580414 446.100159,212.402145 448.780670,213.859406 
	C446.892944,224.295929 443.915802,234.247101 440.910675,244.603165 
	C438.253113,247.364090 435.472260,247.454636 432.206299,245.344940 
	C433.433929,235.260803 436.805359,226.025955 439.289215,216.565338 
	C439.658630,215.158234 439.776733,213.715927 440.544403,212.148209 
z"/>
<path fill="#B377ED" opacity="1.000000" stroke="none" 
	d="
M431.544861,245.148224 
	C434.569733,244.973572 437.257751,244.985413 440.389160,244.995941 
	C437.949341,255.425354 435.066132,265.856110 432.007935,276.640869 
	C429.170807,276.967346 426.472168,277.278473 423.548279,276.069916 
	C425.847260,265.776489 428.527649,255.555588 431.544861,245.148224 
z"/>
<path fill="#C086E7" opacity="1.000000" stroke="none" 
	d="
M410.408173,229.908127 
	C406.857269,228.165222 402.980927,229.724564 399.290222,228.028687 
	C406.390198,220.253830 414.937805,213.760559 423.602570,206.943237 
	C426.741119,209.275360 430.443176,206.968658 433.730835,208.885437 
	C428.777496,215.056686 422.205383,219.669312 416.141724,224.838242 
	C414.269806,226.433929 412.598053,228.219162 410.408173,229.908127 
z"/>
<path fill="#B377ED" opacity="1.000000" stroke="none" 
	d="
M372.602997,249.941513 
	C376.078461,252.216461 380.075653,250.054337 383.703400,251.971436 
	C376.299713,258.639771 368.487061,265.236298 360.360291,271.970154 
	C357.605103,268.838867 353.576813,270.845886 350.259430,269.112366 
	C357.346588,262.631714 364.799805,256.311890 372.602997,249.941513 
z"/>
<path fill="#AD71EF" opacity="1.000000" stroke="none" 
	d="
M191.973907,292.631287 
	C188.874115,294.979889 184.965820,293.110626 181.268280,294.882629 
	C175.256454,291.953156 171.007126,287.090332 165.946030,283.247894 
	C160.075745,278.791138 154.762817,273.600281 149.079498,268.417175 
	C150.994720,263.369141 154.678726,264.582672 158.702362,265.745239 
	C165.139725,269.317413 169.707581,274.517456 175.131836,278.636169 
	C180.864838,282.989288 185.741898,288.388458 191.973907,292.631287 
z"/>
<path fill="#B579EC" opacity="1.000000" stroke="none" 
	d="
M158.977325,265.645874 
	C155.916809,266.495697 152.718811,267.032837 149.235931,267.838135 
	C143.057831,264.970581 138.752213,259.817627 133.467102,255.898697 
	C129.587540,253.021942 125.961334,249.803497 122.089096,246.422104 
	C123.460831,240.611115 127.579453,242.451279 131.610321,242.855499 
	C141.375610,249.894730 150.048721,257.684418 158.977325,265.645874 
z"/>
<path fill="#AD71EF" opacity="1.000000" stroke="none" 
	d="
M100.899048,294.613708 
	C98.112022,295.604462 95.389328,295.968536 92.270401,295.041779 
	C88.089981,285.137451 84.435951,275.190186 81.932541,264.444641 
	C84.411034,261.359314 87.165382,261.813446 90.419006,263.725616 
	C94.210052,274.074585 97.587395,284.152008 100.899048,294.613708 
z"/>
<path fill="#BB81E9" opacity="1.000000" stroke="none" 
	d="
M131.911148,242.574768 
	C129.272385,245.313934 125.115067,242.704849 122.203117,245.816467 
	C113.708931,239.317017 105.461884,232.527145 97.082382,225.422333 
	C97.753441,221.578934 100.653931,222.177505 103.123421,222.020233 
	C104.974030,221.902359 106.581253,222.790985 108.665192,223.732697 
	C113.566284,225.584412 115.966141,229.797668 119.717598,232.373093 
	C123.987457,235.304398 127.777603,238.934479 131.911148,242.574768 
z"/>
<path fill="#B67BEB" opacity="1.000000" stroke="none" 
	d="
M90.775871,263.618103 
	C88.150406,264.004791 85.468109,264.012482 82.334297,264.030060 
	C78.321793,255.507507 75.692749,246.658539 72.937439,237.441544 
	C74.985558,233.297241 77.913979,233.870300 81.437378,235.735535 
	C84.795311,245.077072 87.757172,254.158081 90.775871,263.618103 
z"/>
<path fill="#C086E7" opacity="1.000000" stroke="none" 
	d="
M81.783600,235.623505 
	C79.096100,236.188187 76.279900,235.489136 73.262543,236.883972 
	C69.078987,228.578247 67.017418,219.519684 64.098129,210.385101 
	C66.829025,209.965958 69.527908,210.278732 72.451599,209.070038 
	C75.799889,217.748657 78.766823,226.499802 81.783600,235.623505 
z"/>
<path fill="#C188E7" opacity="1.000000" stroke="none" 
	d="
M108.977928,223.645294 
	C105.275780,224.324112 101.368774,223.365982 97.260971,224.829773 
	C90.372459,219.652115 83.794983,214.196823 77.087830,208.427887 
	C79.390091,205.435028 83.493965,208.726700 85.926956,205.260773 
	C91.512199,207.441910 95.295273,212.200729 100.072861,215.673019 
	C103.199509,217.945435 105.932053,220.760101 108.977928,223.645294 
z"/>
<path fill="#B377ED" opacity="1.000000" stroke="none" 
	d="
M165.586121,244.842712 
	C171.363388,247.237762 174.858505,251.996643 179.561523,255.191742 
	C181.147598,256.269287 182.429733,257.035248 184.376663,257.033508 
	C232.767578,256.990021 281.158539,256.996643 329.549500,257.011169 
	C331.224915,257.011688 332.627716,256.861694 334.042450,255.577850 
	C337.666168,252.289291 341.544373,249.281113 345.635559,246.026031 
	C349.519073,245.937271 353.645844,244.453171 355.240417,249.735199 
	C345.933228,257.672882 336.829987,265.228882 327.415680,272.917175 
	C323.271881,273.712677 319.343811,275.182922 315.801300,271.348328 
	C316.103943,268.306580 315.848969,266.916534 312.303833,266.931793 
	C275.329010,267.090881 238.353241,267.028198 201.377731,267.033691 
	C199.443466,267.033997 196.924042,266.504333 198.369904,270.418091 
	C195.664124,275.178802 191.740509,274.093750 187.407990,273.155396 
	C177.043137,264.987579 167.129608,256.863342 157.087433,248.426895 
	C155.840652,245.241516 158.070801,244.866425 159.888336,244.292603 
	C161.673981,243.728836 163.409927,244.305817 165.586121,244.842712 
z"/>
<path fill="#BC81E9" opacity="1.000000" stroke="none" 
	d="
M165.906067,244.570175 
	C163.610672,247.561844 159.508698,244.273865 157.074646,247.739899 
	C151.058578,244.931473 146.687927,239.806702 141.401001,235.835602 
	C136.232880,231.953751 131.286591,227.776566 126.097580,223.418427 
	C125.686722,220.145035 127.918938,219.782333 129.979233,219.226105 
	C131.581970,218.793442 133.243652,219.411957 135.234985,218.781097 
	C140.459976,217.446472 145.256210,216.066574 150.702454,216.133881 
	C154.229965,218.134216 158.256668,215.925110 161.541473,218.712067 
	C161.883423,219.326675 161.970230,219.654831 161.979568,219.985199 
	C162.262878,229.999802 162.261688,229.999817 172.565979,229.999832 
	C191.230911,229.999847 209.895920,230.024658 228.560730,229.974960 
	C231.581955,229.966904 234.021744,230.676697 233.928879,234.168503 
	C233.844559,237.339584 231.541473,238.180099 228.714264,238.006485 
	C227.884155,237.955505 227.048248,237.998886 226.214996,237.998886 
	C206.883453,237.998901 187.551819,237.969772 168.220551,238.042130 
	C166.198166,238.049698 163.261932,236.869949 162.313019,238.876160 
	C161.084915,241.472595 164.546936,242.436142 165.906067,244.570175 
z"/>
<path fill="#AC70F0" opacity="1.000000" stroke="none" 
	d="
M187.088135,273.425079 
	C190.094696,270.631073 194.103973,273.115601 197.738190,271.124817 
	C199.740295,270.274536 201.100815,271.053680 202.249207,271.960205 
	C211.345169,279.140198 220.349960,286.433472 229.023804,294.124023 
	C229.647552,294.677063 230.056015,295.412292 230.192413,296.599304 
	C226.877213,298.968262 222.972046,297.115143 219.271332,298.884033 
	C213.444519,296.594604 209.811569,291.773804 205.061752,288.366943 
	C198.825287,283.893768 193.141235,278.650421 187.088135,273.425079 
z"/>
<path fill="#C389E6" opacity="1.000000" stroke="none" 
	d="
M136.144501,219.533051 
	C133.297592,222.563354 128.986206,219.310333 126.157440,222.775452 
	C117.167854,215.789017 107.912994,209.033508 99.314835,200.972809 
	C101.296013,196.933472 105.582016,200.379715 108.737450,198.119843 
	C110.646881,196.721725 112.009544,197.585205 113.138443,198.511444 
	C120.306068,204.392365 127.602547,210.118454 134.582916,216.225372 
	C135.469666,217.001160 136.139328,217.944778 136.144501,219.533051 
z"/>
<path fill="#BB81E9" opacity="1.000000" stroke="none" 
	d="
M355.350739,249.978943 
	C353.265350,246.369934 348.849060,248.770081 346.211121,246.161377 
	C347.442444,243.128906 353.247101,242.591583 351.520081,238.985535 
	C350.278473,236.393051 345.495239,238.076767 342.322205,238.057327 
	C323.360504,237.941040 304.397644,237.975037 285.435333,238.024689 
	C282.417358,238.032593 279.986633,237.320816 280.069000,233.838242 
	C280.143921,230.673080 282.430817,229.819504 285.257843,229.991379 
	C286.086487,230.041748 286.920746,229.998978 287.752441,229.998978 
	C307.712891,229.998962 327.673584,230.036118 347.633423,229.925751 
	C349.166809,229.917282 351.972809,231.499603 352.090393,227.434372 
	C354.336761,224.727814 356.959564,224.912079 360.068481,225.783325 
	C362.517548,227.471848 362.772949,229.258926 361.408691,231.323868 
	C363.049103,228.980118 365.621368,227.616516 368.322510,225.751984 
	C372.886810,224.976227 377.132629,223.813904 380.938782,227.621307 
	C374.354767,235.082199 366.191711,240.472107 358.984558,246.979248 
	C357.900513,247.958023 356.772644,248.888275 355.350739,249.978943 
z"/>
<path fill="#C086E7" opacity="1.000000" stroke="none" 
	d="
M381.460083,228.025787 
	C377.141724,226.144348 372.917877,227.317963 368.351501,227.031815 
	C365.805634,228.540680 363.686127,228.222473 361.192017,227.087585 
	C358.232880,226.997604 355.632843,226.998398 352.599670,226.998749 
	C352.116913,222.305511 352.067261,217.612732 352.092133,212.458923 
	C354.262482,209.567535 356.913513,210.015900 359.965942,210.722443 
	C362.727386,213.338898 365.020203,215.448792 368.773743,216.295364 
	C374.953644,217.689209 379.589722,216.146606 384.147278,212.001389 
	C387.078308,209.335571 389.603821,205.590652 394.592010,205.733566 
	C398.694702,206.329590 402.594757,205.303940 406.719757,206.880966 
	C398.673828,214.035065 390.242523,221.020172 381.460083,228.025787 
z"/>
<path fill="#AC70F0" opacity="1.000000" stroke="none" 
	d="
M315.553589,270.809326 
	C319.134064,272.969604 323.033508,271.113739 326.728333,272.884094 
	C316.317200,281.957916 305.529755,290.866364 294.427979,299.908691 
	C290.824249,298.005737 286.941345,299.862396 283.260193,298.157959 
	C282.369598,295.635925 284.010956,294.520142 285.382416,293.394440 
	C293.850586,286.443817 302.232391,279.388306 310.747772,272.495209 
	C312.050629,271.440582 313.406891,270.477600 315.553589,270.809326 
z"/>
<path fill="#000000" opacity="1.000000" stroke="none" 
	d="
M316.023163,270.646027 
	C308.269165,276.002350 301.748138,282.413849 294.554871,287.984802 
	C290.698181,290.971680 286.998016,294.160553 283.094147,297.570251 
	C280.499725,299.762878 277.919769,301.454132 275.713928,303.702972 
	C272.527466,306.951569 268.730652,308.777649 263.896576,308.067963 
	C261.295715,307.686096 258.511475,307.579254 255.949753,308.073151 
	C245.007324,310.182678 237.674561,304.245605 230.438629,297.090271 
	C221.322388,289.703186 212.514725,282.446777 203.699310,275.199768 
	C202.063721,273.855194 200.396988,272.548523 198.432251,271.093445 
	C196.855988,268.536011 193.403717,268.489044 192.592590,265.368347 
	C235.383255,265.368347 278.331573,265.368347 321.677582,265.368347 
	C319.798065,267.059662 317.980591,268.695129 316.023163,270.646027 
z"/>
<path fill="#CD95E2" opacity="1.000000" stroke="none" 
	d="
M352.090210,164.449905 
	C354.826996,164.038956 357.527069,163.720795 360.451630,164.923798 
	C362.083557,165.716492 362.806610,166.925659 362.820526,168.237366 
	C362.902100,175.931076 363.967865,183.660828 361.861755,191.729874 
	C358.817749,194.359985 355.924866,194.522598 352.535980,192.358521 
	C351.704559,182.998611 351.704559,182.998611 342.463745,182.998596 
	C323.980347,182.998596 305.496948,182.998657 287.013550,182.998520 
	C284.752228,182.998505 282.455597,183.203873 280.970886,180.870850 
	C279.997284,179.340958 279.977539,178.109558 280.777039,176.328201 
	C281.756470,174.145920 283.187256,173.982117 285.093781,173.985977 
	C297.749023,174.011612 310.404358,173.999161 323.059662,173.999115 
	C331.052490,173.999084 339.059387,173.716202 347.032501,174.112518 
	C351.339813,174.326630 352.687408,172.945419 352.030548,168.894989 
	C351.820221,167.597961 352.008392,166.236298 352.090210,164.449905 
z"/>
<path fill="#C48BE5" opacity="1.000000" stroke="none" 
	d="
M161.904602,218.548645 
	C158.335648,218.427750 154.586197,220.243469 151.141281,217.523651 
	C150.856262,210.782379 150.984879,204.397964 150.973434,198.013779 
	C150.969894,196.038376 151.046356,194.076294 152.395782,191.923492 
	C155.452179,189.691589 158.257874,189.510223 161.476837,191.646072 
	C162.372482,201.999359 162.372482,201.999390 172.549713,201.999359 
	C191.039993,201.999313 209.531250,202.097534 228.019653,201.911606 
	C231.485947,201.876755 233.706436,203.076920 233.844910,206.259659 
	C234.003235,209.898376 231.286499,211.023636 227.922241,211.017212 
	C208.265976,210.979691 188.609619,210.998871 168.953293,210.999008 
	C162.022507,210.999054 162.022507,210.999161 161.904602,218.548645 
z"/>
<path fill="#CD95E2" opacity="1.000000" stroke="none" 
	d="
M161.904877,191.543579 
	C159.233231,191.997284 156.633377,191.997757 153.600159,191.997192 
	C152.434708,191.550400 151.689621,190.952850 151.617599,190.133591 
	C150.896652,181.930954 149.649353,173.702942 152.756897,165.297455 
	C155.766785,164.995819 158.366898,164.996780 161.400146,164.996582 
	C162.317154,173.999115 162.317154,173.999115 171.536118,173.999115 
	C190.357758,173.999130 209.180374,174.098267 228.000122,173.909088 
	C231.445755,173.874435 233.702438,175.007080 233.841171,178.197754 
	C233.998367,181.812836 231.320862,183.023453 227.923447,183.016800 
	C208.602203,182.978897 189.280823,182.998505 169.959503,182.998581 
	C162.026505,182.998611 162.026505,182.998611 161.904877,191.543579 
z"/>
<path fill="#C48BE5" opacity="1.000000" stroke="none" 
	d="
M352.091095,192.449738 
	C354.766876,191.996399 357.366791,191.997345 360.400146,191.997177 
	C362.762512,193.249298 363.115875,195.236664 362.993652,197.252502 
	C362.707306,201.976822 364.228699,206.882751 361.243958,211.693512 
	C358.233276,211.998520 355.633087,211.998749 352.599762,211.998444 
	C350.802216,210.078812 348.797455,211.057007 347.129486,211.050461 
	C326.858276,210.971100 306.586639,210.997681 286.315094,211.000458 
	C283.993073,211.000778 281.984650,210.787003 280.594482,208.326447 
	C279.523682,206.431198 280.466827,205.191254 281.071289,203.753342 
	C282.111084,201.279770 284.373047,202.023331 286.246277,202.020126 
	C306.019257,201.986404 325.792358,201.999451 345.565399,201.999268 
	C351.990143,201.999207 351.989594,201.998779 351.997192,195.396225 
	C351.998169,194.565475 352.008972,193.734741 352.091095,192.449738 
z"/>
<path fill="#DAA3DC" opacity="1.000000" stroke="none" 
	d="
M391.359070,145.277069 
	C387.209381,142.504837 382.591187,145.229004 378.278137,143.121643 
	C386.660339,137.594223 394.469391,130.549149 404.254272,127.002495 
	C414.244019,123.381569 424.047119,129.811234 426.161621,140.138596 
	C426.990082,144.184799 425.342743,147.796600 425.461060,151.833191 
	C422.769714,153.400635 420.384735,153.030396 417.642212,152.066406 
	C415.275696,150.357941 415.359650,148.148804 415.556946,146.003067 
	C415.853607,142.776474 415.080444,140.124786 412.204010,138.298996 
	C409.148010,136.359268 406.565765,137.792923 403.866669,139.231445 
	C399.845520,141.374573 396.721436,145.297882 391.359070,145.277069 
z"/>
<path fill="#D199E0" opacity="1.000000" stroke="none" 
	d="
M416.435059,151.010788 
	C419.376709,151.172211 421.956085,150.550827 424.731018,151.880402 
	C423.730804,161.081696 422.354431,170.119522 420.905273,179.576569 
	C418.233002,179.996613 415.633423,179.997437 412.600525,179.997559 
	C410.688293,179.082855 410.316895,177.559891 410.507782,176.075455 
	C411.503998,168.327988 412.511963,160.575867 414.486816,152.996750 
	C414.698425,152.184692 415.284790,151.548508 416.435059,151.010788 
z"/>
<path fill="#000000" opacity="1.000000" stroke="none" 
	d="
M416.936768,150.539917 
	C414.665894,160.252914 413.306396,169.691528 412.095184,179.570038 
	C410.227722,182.113953 411.038208,184.737595 410.997101,187.133530 
	C410.876282,194.176468 405.179260,196.986206 400.717743,200.520691 
	C398.781860,202.054337 397.044220,203.767639 395.023438,205.644348 
	C391.067078,206.921295 388.602539,210.137665 386.247986,212.615372 
	C380.178131,219.002731 373.665955,220.156464 365.695190,217.433197 
	C363.170990,216.570770 359.832764,217.239349 360.908020,212.427689 
	C360.884125,205.639694 360.934784,199.281128 360.909485,192.459305 
	C360.884277,183.304718 360.934998,174.613388 360.909546,165.458527 
	C370.802124,158.580704 380.770905,152.166397 390.888367,145.436523 
	C395.845947,142.147568 400.741913,139.304077 405.435974,136.159241 
	C409.117554,133.692703 412.442139,135.481781 414.710114,137.617279 
	C416.560242,139.359314 419.287506,141.979843 417.240234,145.693726 
	C416.597473,146.859711 417.044159,148.626297 416.936768,150.539917 
z"/>
<path fill="#DAA3DC" opacity="1.000000" stroke="none" 
	d="
M134.671280,142.020340 
	C132.273041,147.097794 127.555466,144.171524 123.339615,145.029297 
	C120.092163,146.175751 118.136795,144.290833 116.050087,143.069565 
	C113.472710,141.561127 111.140213,139.635559 108.440849,138.335052 
	C103.150810,135.786438 98.324738,139.039719 98.414169,144.968979 
	C98.457817,147.863113 100.061035,150.861710 97.593155,153.865921 
	C94.696602,155.138885 92.187317,155.288757 89.481926,153.304993 
	C85.023338,141.050323 87.738312,130.143967 101.431808,126.273865 
	C105.538071,125.113342 109.765472,126.169060 113.227180,128.192886 
	C120.460175,132.421555 127.329285,137.272629 134.671280,142.020340 
z"/>
<path fill="#D199E0" opacity="1.000000" stroke="none" 
	d="
M89.091774,153.420502 
	C91.767464,152.995010 94.366447,152.996078 97.398651,152.996078 
	C98.262146,153.235977 98.828049,153.409683 98.990646,153.877914 
	C101.638908,161.504517 103.686424,169.226852 102.175323,177.711594 
	C99.172119,178.037125 96.472649,177.720428 93.549240,178.924652 
	C91.783661,170.612747 90.399361,162.229904 89.091774,153.420502 
z"/>
<path fill="#000000" opacity="1.000000" stroke="none" 
	d="
M101.909073,178.410156 
	C100.550346,169.942917 99.267906,161.889694 97.908669,153.415741 
	C97.827385,148.559540 94.609825,144.285248 97.752113,139.639389 
	C100.377167,135.758270 104.652351,134.028748 108.719925,136.356842 
	C113.322006,138.990875 117.739426,141.947540 122.559555,144.901657 
	C132.869995,151.476868 142.858017,157.914337 153.006348,164.673340 
	C153.118866,173.686234 153.071075,182.377625 153.095032,191.532562 
	C153.111923,198.900696 153.125473,205.807037 152.945984,212.708359 
	C152.908936,214.132980 154.040436,216.039932 151.434937,217.078186 
	C146.294250,218.105316 141.584717,219.044296 136.458191,219.934082 
	C129.460007,214.273270 123.049599,208.439178 116.198204,203.179535 
	C114.014656,201.503281 112.599670,198.875610 109.466766,197.967438 
	C102.386528,193.200897 103.972549,185.346909 101.909073,178.410156 
z"/>
<path fill="#000000" opacity="1.000000" stroke="none" 
	d="
M146.893951,227.075333 
	C149.097748,227.270233 150.792023,226.716797 152.742157,225.849930 
	C152.742157,228.241318 152.742157,230.333755 152.742157,232.710556 
	C150.445847,231.039368 147.434418,230.341461 146.893951,227.075333 
z"/>
<path fill="#000000" opacity="1.000000" stroke="none" 
	d="
M360.906952,227.390808 
	C362.927155,224.325256 365.016937,227.323822 367.497803,227.022278 
	C366.709229,230.035156 363.278534,230.339752 360.980957,233.924728 
	C360.980957,230.925598 360.980957,229.355179 360.906952,227.390808 
z"/>
</svg>