<?xml version="1.0" encoding="UTF-8"?>
<!DOCTYPE svg PUBLIC "-//W3C//DTD SVG 1.1//EN" "http://www.w3.org/Graphics/SVG/1.1/DTD/svg11.dtd">
<svg xmlns="http://www.w3.org/2000/svg" version="1.1" width="512px" height="512px" style="shape-rendering:geometricPrecision; text-rendering:geometricPrecision; image-rendering:optimizeQuality; fill-rule:evenodd; clip-rule:evenodd" xmlns:xlink="http://www.w3.org/1999/xlink">
<g><path style="opacity:0.941" fill="#efb9d3" d="M 358.5,86.5 C 356.052,87.4731 353.385,87.8064 350.5,87.5C 343.727,52.0495 323.06,28.7162 288.5,17.5C 287.667,30.8209 287.167,44.1542 287,57.5C 283.844,60.3988 281.178,60.0655 279,56.5C 278.5,42.8374 278.333,29.1707 278.5,15.5C 272.155,15.3473 265.822,15.014 259.5,14.5C 259.667,29.1705 259.5,43.8371 259,58.5C 256.667,59.8333 254.333,59.8333 252,58.5C 251.5,43.8371 251.333,29.1705 251.5,14.5C 245.178,15.014 238.845,15.3473 232.5,15.5C 232.966,29.9308 232.466,44.2641 231,58.5C 228.408,59.9817 226.075,59.6483 224,57.5C 223.667,44.1667 223.333,30.8333 223,17.5C 187.357,28.6433 166.523,52.6433 160.5,89.5C 157.223,87.9217 154.223,88.255 151.5,90.5C 156.148,53.0217 175.815,26.855 210.5,12C 216.709,9.8645 223.042,8.19783 229.5,7C 246.833,6.33333 264.167,6.33333 281.5,7C 316.389,13.2235 340.556,32.7235 354,65.5C 356.612,72.2779 358.112,79.2779 358.5,86.5 Z"/></g>
<g><path style="opacity:0.942" fill="#e8b3d6" d="M 115.5,107.5 C 110.5,107.5 105.5,107.5 100.5,107.5C 92.4084,102.704 84.2418,98.0375 76,93.5C 73.4731,94.0242 71.4731,95.3576 70,97.5C 69.2534,100.924 69.42,104.257 70.5,107.5C 67.2869,107.19 64.2869,107.523 61.5,108.5C 58.4481,99.3109 60.7814,91.8109 68.5,86C 74.8457,83.594 80.8457,84.2606 86.5,88C 96.3438,94.363 106.01,100.863 115.5,107.5 Z"/></g>
<g><path style="opacity:0.969" fill="#e8b3d5" d="M 160.5,89.5 C 183.836,89.3334 207.169,89.5 230.5,90C 233.353,93.0961 233.02,95.7627 229.5,98C 206.502,98.5 183.502,98.6666 160.5,98.5C 160.5,102.167 160.5,105.833 160.5,109.5C 157.855,107.758 154.855,107.091 151.5,107.5C 151.5,101.833 151.5,96.1667 151.5,90.5C 154.223,88.255 157.223,87.9217 160.5,89.5 Z"/></g>
<g><path style="opacity:0.967" fill="#e8b3d5" d="M 358.5,86.5 C 359.491,93.3134 359.825,100.313 359.5,107.5C 356.833,107.5 354.167,107.5 351.5,107.5C 351.737,106.209 351.404,105.209 350.5,104.5C 350.5,102.5 350.5,100.5 350.5,98.5C 327.498,98.6666 304.498,98.5 281.5,98C 277.98,95.7627 277.647,93.0961 280.5,90C 304.188,90.1589 327.522,89.3255 350.5,87.5C 353.385,87.8064 356.052,87.4731 358.5,86.5 Z"/></g>
<g><path style="opacity:0.941" fill="#e9b3d6" d="M 450.5,98.5 C 447.5,98.5 444.5,98.5 441.5,98.5C 439.721,94.5535 436.721,93.0535 432.5,94C 425.278,98.7731 417.945,103.273 410.5,107.5C 405.5,107.5 400.5,107.5 395.5,107.5C 406.724,99.4688 418.39,91.9688 430.5,85C 441.513,83.3247 448.18,87.8247 450.5,98.5 Z"/></g>
<g><path style="opacity:0.931" fill="#e2add8" d="M 441.5,98.5 C 444.5,98.5 447.5,98.5 450.5,98.5C 449.968,107.554 448.968,116.554 447.5,125.5C 444.287,125.81 441.287,125.477 438.5,124.5C 439.718,115.858 440.718,107.192 441.5,98.5 Z"/></g>
<g><path style="opacity:0.956" fill="#e1abda" d="M 100.5,107.5 C 105.5,107.5 110.5,107.5 115.5,107.5C 125.342,113.253 135.009,119.253 144.5,125.5C 139.167,125.5 133.833,125.5 128.5,125.5C 118.819,119.996 109.485,113.996 100.5,107.5 Z"/></g>
<g><path style="opacity:0.994" fill="#dfa8d9" d="M 151.5,107.5 C 154.855,107.091 157.855,107.758 160.5,109.5C 160.5,111.833 160.5,114.167 160.5,116.5C 183.169,116.333 205.836,116.5 228.5,117C 232.795,118.845 233.462,121.512 230.5,125C 207.169,125.5 183.836,125.667 160.5,125.5C 160.5,130.5 160.5,135.5 160.5,140.5C 156.972,138.325 153.305,137.992 149.5,139.5C 142.291,135.068 135.291,130.402 128.5,125.5C 133.833,125.5 139.167,125.5 144.5,125.5C 146.781,126.608 148.948,127.942 151,129.5C 151.5,122.174 151.666,114.841 151.5,107.5 Z"/></g>
<g><path style="opacity:0.959" fill="#dea8da" d="M 350.5,104.5 C 351.404,105.209 351.737,106.209 351.5,107.5C 354.167,107.5 356.833,107.5 359.5,107.5C 359.334,114.841 359.5,122.174 360,129.5C 371.471,121.519 383.304,114.186 395.5,107.5C 400.5,107.5 405.5,107.5 410.5,107.5C 394.374,118.402 378.041,129.069 361.5,139.5C 358.375,138.521 355.042,138.187 351.5,138.5C 351.737,137.209 351.404,136.209 350.5,135.5C 350.5,132.167 350.5,128.833 350.5,125.5C 327.164,125.667 303.831,125.5 280.5,125C 277.538,121.512 278.205,118.845 282.5,117C 305.164,116.5 327.831,116.333 350.5,116.5C 350.5,112.5 350.5,108.5 350.5,104.5 Z"/></g>
<g><path style="opacity:0.94" fill="#daa4dc" d="M 423.5,154.5 C 420.5,154.5 417.5,154.5 414.5,154.5C 414.787,150.277 415.454,146.11 416.5,142C 415.606,136.939 412.606,134.106 407.5,133.5C 403.363,134.734 399.696,136.734 396.5,139.5C 392.167,138.833 387.833,138.167 383.5,137.5C 390.328,131.085 398.328,126.751 407.5,124.5C 418.261,125.428 424.261,131.261 425.5,142C 424.6,146.133 423.933,150.3 423.5,154.5 Z"/></g>
<g><path style="opacity:0.931" fill="#dda6db" d="M 70.5,107.5 C 71.9425,117.821 73.2758,128.154 74.5,138.5C 71.6146,138.194 68.9479,138.527 66.5,139.5C 64.314,129.38 62.6473,119.047 61.5,108.5C 64.2869,107.523 67.2869,107.19 70.5,107.5 Z"/></g>
<g><path style="opacity:0.945" fill="#daa4dc" d="M 129.5,138.5 C 124.637,138.181 119.97,138.514 115.5,139.5C 111.756,137.114 107.756,135.114 103.5,133.5C 98.3941,134.106 95.3941,136.939 94.5,142C 95.5462,146.11 96.2128,150.277 96.5,154.5C 93.3019,153.964 90.6353,154.631 88.5,156.5C 86.1728,149.684 85.6728,142.684 87,135.5C 92.1766,125.883 100.01,122.717 110.5,126C 117.241,129.693 123.574,133.86 129.5,138.5 Z"/></g>
<g><path style="opacity:0.909" fill="#d69fdd" d="M 350.5,135.5 C 351.404,136.209 351.737,137.209 351.5,138.5C 355.042,138.187 358.375,138.521 361.5,139.5C 360.883,139.611 360.383,139.944 360,140.5C 359.175,144.211 359.341,147.878 360.5,151.5C 368.056,146.56 375.722,141.893 383.5,137.5C 387.833,138.167 392.167,138.833 396.5,139.5C 388.167,144.833 379.833,150.167 371.5,155.5C 364.6,154.801 357.6,154.134 350.5,153.5C 327.164,153.667 303.831,153.5 280.5,153C 277.647,149.904 277.98,147.237 281.5,145C 304.498,144.5 327.498,144.333 350.5,144.5C 350.5,141.5 350.5,138.5 350.5,135.5 Z"/></g>
<g><path style="opacity:0.912" fill="#d69edd" d="M 129.5,138.5 C 136.612,142.561 143.612,146.894 150.5,151.5C 151.659,147.878 151.825,144.211 151,140.5C 150.617,139.944 150.117,139.611 149.5,139.5C 153.305,137.992 156.972,138.325 160.5,140.5C 160.5,141.833 160.5,143.167 160.5,144.5C 183.502,144.333 206.502,144.5 229.5,145C 233.02,147.237 233.353,149.904 230.5,153C 207.169,153.5 183.836,153.667 160.5,153.5C 160.5,154.833 160.5,156.167 160.5,157.5C 159.596,156.791 159.263,155.791 159.5,154.5C 152.646,154.176 145.979,154.509 139.5,155.5C 131.205,150.526 123.205,145.192 115.5,139.5C 119.97,138.514 124.637,138.181 129.5,138.5 Z"/></g>
<g><path style="opacity:0.929" fill="#d8a1dd" d="M 438.5,124.5 C 441.287,125.477 444.287,125.81 447.5,125.5C 445.595,135.945 443.595,146.278 441.5,156.5C 439.365,154.631 436.698,153.964 433.5,154.5C 434.755,144.301 436.422,134.301 438.5,124.5 Z"/></g>
<g><path style="opacity:0.942" fill="#d39bdf" d="M 74.5,138.5 C 76.6867,147.949 78.3534,157.616 79.5,167.5C 72.9779,167.177 66.6446,167.51 60.5,168.5C 57.0437,166.217 53.7104,163.717 50.5,161C 46.7261,159.817 43.5594,160.651 41,163.5C 40.5304,164.577 40.6971,165.577 41.5,166.5C 38.0381,167.482 34.3714,167.815 30.5,167.5C 33.2892,153.431 41.6226,148.598 55.5,153C 60,156.833 64.5,160.667 69,164.5C 68.5943,156.152 67.761,147.819 66.5,139.5C 68.9479,138.527 71.6146,138.194 74.5,138.5 Z"/></g>
<g><path style="opacity:0.936" fill="#d19adf" d="M 475.5,175.5 C 470.167,174.833 464.833,174.167 459.5,173.5C 462.476,170.698 465.642,168.031 469,165.5C 468.853,160.704 466.353,158.87 461.5,160C 458.29,162.717 454.956,165.217 451.5,167.5C 444.833,167.5 438.167,167.5 431.5,167.5C 431.631,163.048 432.298,158.714 433.5,154.5C 436.698,153.964 439.365,154.631 441.5,156.5C 441.422,159.252 441.255,161.918 441,164.5C 446.563,159.637 452.396,155.137 458.5,151C 472.014,149.186 478.514,155.019 478,168.5C 477.61,171.104 476.776,173.438 475.5,175.5 Z"/></g>
<g><path style="opacity:0.925" fill="#ca91e3" d="M 459.5,173.5 C 464.833,174.167 470.167,174.833 475.5,175.5C 473.106,186.68 470.106,197.68 466.5,208.5C 463.5,207.833 460.5,207.167 457.5,206.5C 460.46,198.325 462.627,189.992 464,181.5C 460.478,184.266 457.145,187.266 454,190.5C 453.79,192.058 453.29,193.391 452.5,194.5C 446.833,194.5 441.167,194.5 435.5,194.5C 443.085,187.039 451.085,180.039 459.5,173.5 Z"/></g>
<g><path style="opacity:0.927" fill="#cd95e3" d="M 41.5,166.5 C 51.4868,174.489 61.1535,182.822 70.5,191.5C 65.9677,191.182 61.6344,191.515 57.5,192.5C 53.8848,189.061 50.0514,185.727 46,182.5C 46.3594,185.112 46.8594,187.779 47.5,190.5C 44.7131,191.477 41.7131,191.81 38.5,191.5C 35.6373,183.579 32.9706,175.579 30.5,167.5C 34.3714,167.815 38.0381,167.482 41.5,166.5 Z"/></g>
<g><path style="opacity:0.942" fill="#cd94e1" d="M 96.5,154.5 C 99.0352,166.712 101.035,179.046 102.5,191.5C 97.8333,191.5 93.1667,191.5 88.5,191.5C 78.5602,184.559 69.2269,176.892 60.5,168.5C 66.6446,167.51 72.9779,167.177 79.5,167.5C 79.9954,169.482 80.4954,171.482 81,173.5C 83.884,176.685 87.0507,179.518 90.5,182C 91.3317,182.688 91.9984,182.521 92.5,181.5C 90.6263,173.258 89.293,164.925 88.5,156.5C 90.6353,154.631 93.3019,153.964 96.5,154.5 Z"/></g>
<g><path style="opacity:0.919" fill="#cd94e1" d="M 139.5,155.5 C 145.979,154.509 152.646,154.176 159.5,154.5C 159.263,155.791 159.596,156.791 160.5,157.5C 160.5,162.5 160.5,167.5 160.5,172.5C 183.836,172.333 207.169,172.5 230.5,173C 233.353,176.096 233.02,178.763 229.5,181C 206.502,181.5 183.502,181.667 160.5,181.5C 160.5,185.5 160.5,189.5 160.5,193.5C 157.855,191.758 154.855,191.091 151.5,191.5C 151.832,181.81 151.498,172.144 150.5,162.5C 146.974,159.906 143.308,157.573 139.5,155.5 Z"/></g>
<g><path style="opacity:0.926" fill="#cd94e1" d="M 350.5,153.5 C 357.6,154.134 364.6,154.801 371.5,155.5C 367.692,157.573 364.026,159.906 360.5,162.5C 359.502,172.144 359.168,181.81 359.5,191.5C 356.391,191.736 353.391,191.403 350.5,190.5C 350.5,187.5 350.5,184.5 350.5,181.5C 327.498,181.667 304.498,181.5 281.5,181C 277.98,178.763 277.647,176.096 280.5,173C 303.831,172.5 327.164,172.333 350.5,172.5C 350.5,166.167 350.5,159.833 350.5,153.5 Z"/></g>
<g><path style="opacity:0.94" fill="#cd94e2" d="M 414.5,154.5 C 417.5,154.5 420.5,154.5 423.5,154.5C 421.285,163.435 420.285,172.435 420.5,181.5C 423.52,178.645 426.687,175.979 430,173.5C 430.191,171.292 430.691,169.292 431.5,167.5C 438.167,167.5 444.833,167.5 451.5,167.5C 442.057,175.728 432.391,183.728 422.5,191.5C 417.833,191.5 413.167,191.5 408.5,191.5C 409.965,179.044 411.965,166.711 414.5,154.5 Z"/></g>
<g><path style="opacity:0.946" fill="#c48ae5" d="M 350.5,190.5 C 353.391,191.403 356.391,191.736 359.5,191.5C 359.5,198.833 359.5,206.167 359.5,213.5C 356.833,213.5 354.167,213.5 351.5,213.5C 351.768,211.901 351.434,210.568 350.5,209.5C 327.498,209.667 304.498,209.5 281.5,209C 277.98,206.763 277.647,204.096 280.5,201C 303.831,200.5 327.164,200.333 350.5,200.5C 350.5,197.167 350.5,193.833 350.5,190.5 Z"/></g>
<g><path style="opacity:0.934" fill="#c48be6" d="M 70.5,191.5 C 82.4638,200.796 94.1305,210.463 105.5,220.5C 101.298,220.183 97.2984,220.517 93.5,221.5C 85.8747,215.714 78.3747,209.714 71,203.5C 72.366,209.115 73.866,214.781 75.5,220.5C 72.5,220.5 69.5,220.5 66.5,220.5C 63.1295,211.385 60.1295,202.052 57.5,192.5C 61.6344,191.515 65.9677,191.182 70.5,191.5 Z"/></g>
<g><path style="opacity:0.92" fill="#c68de5" d="M 88.5,191.5 C 93.1667,191.5 97.8333,191.5 102.5,191.5C 109.192,197.196 115.858,202.863 122.5,208.5C 117.702,207.256 113.035,207.256 108.5,208.5C 101.793,202.823 95.1265,197.157 88.5,191.5 Z"/></g>
<g><path style="opacity:0.956" fill="#c38ae5" d="M 151.5,191.5 C 154.855,191.091 157.855,191.758 160.5,193.5C 160.5,195.833 160.5,198.167 160.5,200.5C 183.836,200.333 207.169,200.5 230.5,201C 233.353,204.096 233.02,206.763 229.5,209C 206.502,209.5 183.502,209.667 160.5,209.5C 160.5,213.167 160.5,216.833 160.5,220.5C 148.322,220.172 136.322,220.505 124.5,221.5C 119.142,217.137 113.809,212.803 108.5,208.5C 113.035,207.256 117.702,207.256 122.5,208.5C 126.895,212.23 131.562,215.564 136.5,218.5C 141.487,217.369 146.487,216.369 151.5,215.5C 151.5,207.5 151.5,199.5 151.5,191.5 Z"/></g>
<g><path style="opacity:0.93" fill="#c68de5" d="M 408.5,191.5 C 413.167,191.5 417.833,191.5 422.5,191.5C 416.127,197.206 409.461,202.54 402.5,207.5C 398.298,207.817 394.298,207.483 390.5,206.5C 396.46,201.51 402.46,196.51 408.5,191.5 Z"/></g>
<g><path style="opacity:0.934" fill="#c48ae5" d="M 435.5,194.5 C 441.167,194.5 446.833,194.5 452.5,194.5C 451.964,198.314 450.964,201.981 449.5,205.5C 446.654,207.634 443.654,207.967 440.5,206.5C 440.421,205.07 440.754,203.736 441.5,202.5C 440.998,201.479 440.332,201.312 439.5,202C 432.174,208.983 424.507,215.483 416.5,221.5C 412.939,220.77 409.273,220.103 405.5,219.5C 414.91,210.42 424.91,202.087 435.5,194.5 Z"/></g>
<g><path style="opacity:0.913" fill="#c288e6" d="M 47.5,190.5 C 51.8707,201.943 55.8707,213.61 59.5,225.5C 56.3962,224.225 53.3962,224.225 50.5,225.5C 46.3247,214.312 42.3247,202.979 38.5,191.5C 41.7131,191.81 44.7131,191.477 47.5,190.5 Z"/></g>
<g><path style="opacity:0.941" fill="#c086e7" d="M 457.5,206.5 C 460.5,207.167 463.5,207.833 466.5,208.5C 464.767,216.78 462.434,224.78 459.5,232.5C 456.5,232.5 453.5,232.5 450.5,232.5C 453.145,223.92 455.478,215.253 457.5,206.5 Z"/></g>
<g><path style="opacity:0.958" fill="#be84e8" d="M 449.5,205.5 C 447.323,214.542 444.989,223.542 442.5,232.5C 439.5,232.5 436.5,232.5 433.5,232.5C 435.231,223.567 437.565,214.9 440.5,206.5C 443.654,207.967 446.654,207.634 449.5,205.5 Z"/></g>
<g><path style="opacity:0.941" fill="#be84e7" d="M 390.5,206.5 C 394.298,207.483 398.298,207.817 402.5,207.5C 393.109,216.557 383.109,224.89 372.5,232.5C 368.298,232.817 364.298,232.483 360.5,231.5C 362.237,229.45 364.237,227.617 366.5,226C 364.26,225.023 361.927,224.523 359.5,224.5C 359.5,225.5 359.5,226.5 359.5,227.5C 358.596,226.791 358.263,225.791 358.5,224.5C 355.467,224.868 352.8,224.202 350.5,222.5C 350.5,218.167 350.5,213.833 350.5,209.5C 351.434,210.568 351.768,211.901 351.5,213.5C 354.167,213.5 356.833,213.5 359.5,213.5C 360.589,215.117 362.256,215.95 364.5,216C 368.797,217.092 373.131,217.425 377.5,217C 381.708,213.287 386.041,209.787 390.5,206.5 Z"/></g>
<g><path style="opacity:0.932" fill="#ba80e9" d="M 105.5,220.5 C 114.833,228.167 124.167,235.833 133.5,243.5C 129.5,244.167 125.5,244.833 121.5,245.5C 111.847,237.845 102.514,229.845 93.5,221.5C 97.2984,220.517 101.298,220.183 105.5,220.5 Z"/></g>
<g><path style="opacity:0.973" fill="#bb80e9" d="M 160.5,220.5 C 160.5,223.167 160.5,225.833 160.5,228.5C 183.836,228.333 207.169,228.5 230.5,229C 233.167,231.333 233.167,233.667 230.5,236C 207.169,236.5 183.836,236.667 160.5,236.5C 160.961,239.303 162.295,241.637 164.5,243.5C 160.939,244.23 157.273,244.897 153.5,245.5C 143.809,237.47 134.142,229.47 124.5,221.5C 136.322,220.505 148.322,220.172 160.5,220.5 Z M 149.5,224.5 C 150.725,225.152 151.392,226.319 151.5,228C 151.333,229.167 151.167,230.333 151,231.5C 148.555,230.023 146.388,228.19 144.5,226C 146.382,225.802 148.048,225.302 149.5,224.5 Z"/></g>
<g><path style="opacity:0.973" fill="#ba80e9" d="M 350.5,222.5 C 352.8,224.202 355.467,224.868 358.5,224.5C 358.263,225.791 358.596,226.791 359.5,227.5C 359.232,229.099 359.566,230.432 360.5,231.5C 364.298,232.483 368.298,232.817 372.5,232.5C 367.752,237.584 362.419,241.917 356.5,245.5C 352.833,244.833 349.167,244.167 345.5,243.5C 348.331,242.002 349.998,239.669 350.5,236.5C 327.164,236.667 303.831,236.5 280.5,236C 277.833,233.667 277.833,231.333 280.5,229C 303.831,228.5 327.164,228.333 350.5,228.5C 350.5,226.5 350.5,224.5 350.5,222.5 Z"/></g>
<g><path style="opacity:0.939" fill="#ba7fe9" d="M 59.5,225.5 C 61.696,231.421 63.696,237.421 65.5,243.5C 62.6085,244.403 59.6085,244.736 56.5,244.5C 54.1016,238.304 52.1016,231.971 50.5,225.5C 53.3962,224.225 56.3962,224.225 59.5,225.5 Z"/></g>
<g><path style="opacity:0.929" fill="#ba7fe9" d="M 66.5,220.5 C 69.5,220.5 72.5,220.5 75.5,220.5C 79.0294,230.421 82.3627,240.421 85.5,250.5C 82.5,250.5 79.5,250.5 76.5,250.5C 72.5946,240.784 69.2613,230.784 66.5,220.5 Z"/></g>
<g><path style="opacity:0.929" fill="#bb7fe9" d="M 405.5,219.5 C 409.273,220.103 412.939,220.77 416.5,221.5C 407.819,229.512 398.819,237.179 389.5,244.5C 384.968,244.818 380.634,244.485 376.5,243.5C 386.167,235.5 395.833,227.5 405.5,219.5 Z"/></g>
<g><path style="opacity:0.936" fill="#b67aeb" d="M 433.5,232.5 C 436.5,232.5 439.5,232.5 442.5,232.5C 439.833,242.167 437.167,251.833 434.5,261.5C 431.5,261.5 428.5,261.5 425.5,261.5C 427.409,251.521 430.076,241.854 433.5,232.5 Z"/></g>
<g><path style="opacity:0.935" fill="#b478ec" d="M 450.5,232.5 C 453.5,232.5 456.5,232.5 459.5,232.5C 458.332,237.158 457.499,241.824 457,246.5C 468.4,253.732 477.566,263.065 484.5,274.5C 480.857,274.357 477.523,274.357 474.5,274.5C 468.491,267.326 461.658,260.993 454,255.5C 452.704,258.571 451.538,261.571 450.5,264.5C 447.391,264.264 444.391,264.597 441.5,265.5C 444.344,254.457 447.344,243.457 450.5,232.5 Z"/></g>
<g><path style="opacity:0.956" fill="#b578ec" d="M 65.5,243.5 C 68.0294,250.421 70.3627,257.421 72.5,264.5C 69.3915,264.264 66.3915,264.597 63.5,265.5C 62.3973,261.503 60.7306,257.836 58.5,254.5C 54.4714,257.177 50.4714,259.844 46.5,262.5C 42.8812,262.119 39.5479,261.119 36.5,259.5C 42.601,253.731 49.2676,248.731 56.5,244.5C 59.6085,244.736 62.6085,244.403 65.5,243.5 Z"/></g>
<g><path style="opacity:0.938" fill="#b578ec" d="M 133.5,243.5 C 141.394,249.941 149.061,256.607 156.5,263.5C 152.939,264.23 149.273,264.897 145.5,265.5C 137.183,259.18 129.183,252.514 121.5,245.5C 125.5,244.833 129.5,244.167 133.5,243.5 Z"/></g>
<g><path style="opacity:0.99" fill="#b377ec" d="M 164.5,243.5 C 169.89,246.71 174.89,250.544 179.5,255C 230.167,255.667 280.833,255.667 331.5,255C 336.04,250.954 340.707,247.121 345.5,243.5C 349.167,244.167 352.833,244.833 356.5,245.5C 349.13,252.204 341.464,258.537 333.5,264.5C 329.167,264.5 324.833,264.5 320.5,264.5C 277.167,263.167 233.833,263.167 190.5,264.5C 186.167,264.5 181.833,264.5 177.5,264.5C 169.127,258.646 161.127,252.312 153.5,245.5C 157.273,244.897 160.939,244.23 164.5,243.5 Z"/></g>
<g><path style="opacity:0.95" fill="#b578ec" d="M 376.5,243.5 C 380.634,244.485 384.968,244.818 389.5,244.5C 382.858,250.137 376.192,255.804 369.5,261.5C 364.833,261.5 360.167,261.5 355.5,261.5C 362.475,255.529 369.475,249.529 376.5,243.5 Z"/></g>
<g><path style="opacity:0.95" fill="#af73ee" d="M 156.5,263.5 C 163.814,268.818 170.814,274.484 177.5,280.5C 173.5,281.167 169.5,281.833 165.5,282.5C 158.808,276.804 152.142,271.137 145.5,265.5C 149.273,264.897 152.939,264.23 156.5,263.5 Z"/></g>
<g><path style="opacity:0.95" fill="#b172ee" d="M 36.5,259.5 C 39.5479,261.119 42.8812,262.119 46.5,262.5C 43.8712,265.631 41.0379,268.631 38,271.5C 35.5603,274.728 33.3936,278.061 31.5,281.5C 28.5,281.5 25.5,281.5 22.5,281.5C 25.1585,272.851 29.8252,265.518 36.5,259.5 Z"/></g>
<g><path style="opacity:0.937" fill="#b174ee" d="M 76.5,250.5 C 79.5,250.5 82.5,250.5 85.5,250.5C 88.985,260.769 92.3183,271.103 95.5,281.5C 92.5,281.5 89.5,281.5 86.5,281.5C 82.4114,271.504 79.0781,261.17 76.5,250.5 Z"/></g>
<g><path style="opacity:0.924" fill="#af72ee" d="M 177.5,264.5 C 181.833,264.5 186.167,264.5 190.5,264.5C 197.814,269.818 204.814,275.484 211.5,281.5C 206.968,281.182 202.634,281.515 198.5,282.5C 190.901,277.2 183.901,271.2 177.5,264.5 Z"/></g>
<g><path style="opacity:0.932" fill="#b072ee" d="M 355.5,261.5 C 360.167,261.5 364.833,261.5 369.5,261.5C 361.817,268.514 353.817,275.18 345.5,281.5C 341.167,281.5 336.833,281.5 332.5,281.5C 339.565,274.135 347.232,267.469 355.5,261.5 Z"/></g>
<g><path style="opacity:0.959" fill="#ac70ef" d="M 72.5,264.5 C 76.696,276.421 80.696,288.421 84.5,300.5C 81.5,300.5 78.5,300.5 75.5,300.5C 72.5946,293.784 70.2613,286.784 68.5,279.5C 59.6169,283.578 54.9502,290.578 54.5,300.5C 51.5,300.5 48.5,300.5 45.5,300.5C 46.3728,287.102 52.5395,276.769 64,269.5C 64.195,268.181 64.0283,266.847 63.5,265.5C 66.3915,264.597 69.3915,264.264 72.5,264.5 Z"/></g>
<g><path style="opacity:0.927" fill="#ab6df0" d="M 177.5,280.5 C 186.819,287.821 195.819,295.488 204.5,303.5C 200.298,303.183 196.298,303.517 192.5,304.5C 183.5,297.167 174.5,289.833 165.5,282.5C 169.5,281.833 173.5,281.167 177.5,280.5 Z"/></g>
<g><path style="opacity:0.933" fill="#ac6ff0" d="M 320.5,264.5 C 324.833,264.5 329.167,264.5 333.5,264.5C 319.392,276.728 305.058,288.728 290.5,300.5C 285.833,300.5 281.167,300.5 276.5,300.5C 290.851,288.152 305.518,276.152 320.5,264.5 Z"/></g>
<g><path style="opacity:0.936" fill="#ac6df0" d="M 332.5,281.5 C 336.833,281.5 341.167,281.5 345.5,281.5C 338.13,288.204 330.464,294.537 322.5,300.5C 318.167,300.5 313.833,300.5 309.5,300.5C 316.87,293.796 324.536,287.463 332.5,281.5 Z"/></g>
<g><path style="opacity:0.93" fill="#ac6fef" d="M 425.5,261.5 C 428.5,261.5 431.5,261.5 434.5,261.5C 430.985,274.561 427.319,287.561 423.5,300.5C 420.5,300.5 417.5,300.5 414.5,300.5C 417.722,287.268 421.388,274.268 425.5,261.5 Z"/></g>
<g><path style="opacity:0.92" fill="#ac6ef0" d="M 450.5,264.5 C 450.149,266.869 449.982,269.203 450,271.5C 459.019,277.873 464.186,286.539 465.5,297.5C 465.427,299.59 465.094,301.59 464.5,303.5C 461.5,303.5 458.5,303.5 455.5,303.5C 457.456,294.398 454.622,287.065 447,281.5C 444.181,288.798 441.681,296.131 439.5,303.5C 436.5,303.5 433.5,303.5 430.5,303.5C 433.859,290.727 437.526,278.06 441.5,265.5C 444.391,264.597 447.391,264.264 450.5,264.5 Z"/></g>
<g><path style="opacity:0.923" fill="#ab6ef0" d="M 484.5,274.5 C 486.64,276.7 488.14,279.367 489,282.5C 490.807,288.369 491.641,294.369 491.5,300.5C 488.5,300.5 485.5,300.5 482.5,300.5C 482.44,290.99 479.773,282.323 474.5,274.5C 477.523,274.357 480.857,274.357 484.5,274.5 Z"/></g>
<g><path style="opacity:0.942" fill="#a86af2" d="M 22.5,281.5 C 25.5,281.5 28.5,281.5 31.5,281.5C 26.8161,293.991 27.8161,305.991 34.5,317.5C 31.7131,318.477 28.7131,318.81 25.5,318.5C 18.8166,306.632 17.8166,294.299 22.5,281.5 Z"/></g>
<g><path style="opacity:0.948" fill="#a86af2" d="M 86.5,281.5 C 89.5,281.5 92.5,281.5 95.5,281.5C 99.8978,293.694 103.898,306.027 107.5,318.5C 104.5,318.5 101.5,318.5 98.5,318.5C 94.1294,306.386 90.1294,294.052 86.5,281.5 Z"/></g>
<g><path style="opacity:0.946" fill="#a76af2" d="M 211.5,281.5 C 221.336,289.833 231.336,297.999 241.5,306C 250.833,306.667 260.167,306.667 269.5,306C 271.864,304.158 274.197,302.325 276.5,300.5C 281.167,300.5 285.833,300.5 290.5,300.5C 285.722,304.729 280.722,308.729 275.5,312.5C 274.539,314.265 274.205,316.265 274.5,318.5C 271.833,318.5 269.167,318.5 266.5,318.5C 266.5,317.5 266.5,316.5 266.5,315.5C 259.167,315.5 251.833,315.5 244.5,315.5C 244.5,316.5 244.5,317.5 244.5,318.5C 241.833,318.5 239.167,318.5 236.5,318.5C 236.795,316.265 236.461,314.265 235.5,312.5C 222.944,302.729 210.611,292.729 198.5,282.5C 202.634,281.515 206.968,281.182 211.5,281.5 Z"/></g>
<g><path style="opacity:0.945" fill="#a163f5" d="M 45.5,300.5 C 48.5,300.5 51.5,300.5 54.5,300.5C 60.8698,311.189 69.8698,319.189 81.5,324.5C 81.8333,324 82.1667,323.5 82.5,323C 79.8571,315.573 77.5238,308.073 75.5,300.5C 78.5,300.5 81.5,300.5 84.5,300.5C 91.1574,320.138 97.8241,339.805 104.5,359.5C 107.106,361.275 109.772,361.941 112.5,361.5C 107.426,347.278 102.759,332.945 98.5,318.5C 101.5,318.5 104.5,318.5 107.5,318.5C 109.731,325.026 112.065,331.526 114.5,338C 145.808,347.695 177.808,353.862 210.5,356.5C 213.148,356.033 215.481,354.866 217.5,353C 222.309,348.101 227.309,343.435 232.5,339C 218.974,327.635 205.641,316.135 192.5,304.5C 196.298,303.517 200.298,303.183 204.5,303.5C 214.912,311.466 225.078,319.8 235,328.5C 235.499,323.177 235.666,317.844 235.5,312.5C 236.461,314.265 236.795,316.265 236.5,318.5C 239.167,318.5 241.833,318.5 244.5,318.5C 244.5,331.833 244.5,345.167 244.5,358.5C 251.833,358.5 259.167,358.5 266.5,358.5C 266.5,345.167 266.5,331.833 266.5,318.5C 269.167,318.5 271.833,318.5 274.5,318.5C 274.205,316.265 274.539,314.265 275.5,312.5C 275.334,317.844 275.501,323.177 276,328.5C 287.105,319.04 298.272,309.706 309.5,300.5C 313.833,300.5 318.167,300.5 322.5,300.5C 308.026,313.468 293.36,326.302 278.5,339C 284.833,344.667 291.167,350.333 297.5,356C 333.7,354.077 369.034,347.41 403.5,336C 407.654,324.367 411.321,312.534 414.5,300.5C 417.5,300.5 420.5,300.5 423.5,300.5C 418.398,320.075 413.065,339.575 407.5,359C 410.112,358.641 412.779,358.141 415.5,357.5C 418.192,346.729 421.192,336.062 424.5,325.5C 431.5,325.5 438.5,325.5 445.5,325.5C 441.238,328.974 436.571,331.974 431.5,334.5C 429.059,340.432 427.726,346.432 427.5,352.5C 444.337,345.815 459.17,336.149 472,323.5C 477.659,316.848 481.159,309.181 482.5,300.5C 485.5,300.5 488.5,300.5 491.5,300.5C 489.318,315.696 482.318,328.196 470.5,338C 456.644,348.682 441.477,357.182 425,363.5C 430.949,404.867 437.449,446.2 444.5,487.5C 442.842,500.823 435.508,505.99 422.5,503C 420.833,502 419.167,501 417.5,500C 386,471.833 354.5,443.667 323,415.5C 330.065,449.064 316.565,467.064 282.5,469.5C 286.666,491.659 277.666,501.659 255.5,499.5C 233.334,501.659 224.334,491.659 228.5,469.5C 194.435,467.064 180.935,449.064 188,415.5C 155.5,444.667 123,473.833 90.5,503C 73.5502,507.379 65.7168,500.879 67,483.5C 76.4219,444.979 85.9219,406.479 95.5,368C 78.0432,360.938 61.3765,352.271 45.5,342C 36.7832,335.793 30.1165,327.96 25.5,318.5C 28.7131,318.81 31.7131,318.477 34.5,317.5C 43.8724,329.695 55.5391,339.195 69.5,346C 77.2895,349.646 85.1228,353.146 93,356.5C 91.7058,350.443 89.8725,344.443 87.5,338.5C 76.9979,333.085 66.9979,326.919 57.5,320C 51.3332,314.833 47.3332,308.333 45.5,300.5 Z M 266.5,318.5 C 266.5,331.833 266.5,345.167 266.5,358.5C 259.167,358.5 251.833,358.5 244.5,358.5C 244.5,345.167 244.5,331.833 244.5,318.5C 244.5,317.5 244.5,316.5 244.5,315.5C 251.833,315.5 259.167,315.5 266.5,315.5C 266.5,316.5 266.5,317.5 266.5,318.5 Z M 399.5,346.5 C 400.376,346.369 401.043,346.702 401.5,347.5C 399.85,352.769 398.516,358.102 397.5,363.5C 373.639,369.639 349.472,374.305 325,377.5C 322.456,377.616 320.289,376.783 318.5,375C 315.133,371.297 311.466,367.964 307.5,365C 338.985,362.203 369.651,356.037 399.5,346.5 Z M 118.5,349.5 C 146.42,356.82 174.753,361.987 203.5,365C 198.866,368.632 194.533,372.632 190.5,377C 167.789,375.548 145.456,371.715 123.5,365.5C 121.427,360.281 119.76,354.948 118.5,349.5 Z M 234.5,349.5 C 235.643,352.976 235.81,356.642 235,360.5C 227.649,367.352 220.149,374.019 212.5,380.5C 208.889,379.738 205.222,379.238 201.5,379C 212.694,369.301 223.694,359.468 234.5,349.5 Z M 275.5,349.5 C 286.961,359.124 298.295,368.957 309.5,379C 305.778,379.238 302.111,379.738 298.5,380.5C 290.851,374.019 283.351,367.352 276,360.5C 275.501,356.848 275.335,353.182 275.5,349.5 Z M 242.5,366.5 C 251.173,366.334 259.84,366.5 268.5,367C 273.675,371.343 278.675,375.843 283.5,380.5C 264.833,381.833 246.167,381.833 227.5,380.5C 232.52,375.812 237.52,371.145 242.5,366.5 Z M 414.5,366.5 C 422.07,406.749 429.07,447.249 435.5,488C 432.409,496.209 427.742,497.209 421.5,491C 383.5,457 345.5,423 307.5,389C 311.428,387.675 315.428,387.342 319.5,388C 351.13,415.295 382.464,442.961 413.5,471C 417.975,473.722 420.975,472.722 422.5,468C 417.113,436.176 411.779,404.343 406.5,372.5C 406.833,371.5 407.167,370.5 407.5,369.5C 410.016,368.67 412.35,367.67 414.5,366.5 Z M 104.5,369.5 C 107.042,370.624 109.708,371.458 112.5,372C 113.059,372.725 113.392,373.558 113.5,374.5C 105.961,405.53 98.2939,436.53 90.5,467.5C 92.3395,471.778 95.3395,472.611 99.5,470C 130.167,442.667 160.833,415.333 191.5,388C 195.572,387.342 199.572,387.675 203.5,389C 164.167,424.333 124.833,459.667 85.5,495C 77.6667,496.5 74.5,493.333 76,485.5C 85.5046,446.815 95.0046,408.148 104.5,369.5 Z M 410.5,455.5 C 384.335,432.17 358.001,409.003 331.5,386C 353.508,383.098 375.175,378.598 396.5,372.5C 401.922,400.032 406.589,427.699 410.5,455.5 Z M 122.5,374.5 C 141.198,379.618 160.198,383.451 179.5,386C 154.333,408.5 129.167,431 104,453.5C 109.993,427.191 116.16,400.857 122.5,374.5 Z M 216.5,389.5 C 242.504,390.666 268.504,390.833 294.5,390C 299.675,394.343 304.675,398.843 309.5,403.5C 303.614,406.723 297.281,408.556 290.5,409C 264.468,409.934 238.468,409.6 212.5,408C 208.448,407.373 204.782,405.873 201.5,403.5C 206.546,398.784 211.546,394.117 216.5,389.5 Z M 197.5,412.5 C 204.743,415.917 212.409,417.75 220.5,418C 246.859,418.914 273.193,418.581 299.5,417C 304.01,415.997 308.343,414.497 312.5,412.5C 314.33,422.43 314.83,432.43 314,442.5C 312.311,447.525 309.144,451.359 304.5,454C 299.184,456.994 293.518,458.994 287.5,460C 264.458,460.947 241.458,460.614 218.5,459C 209.859,457.106 203.026,452.606 198,445.5C 196.936,441.252 196.436,436.919 196.5,432.5C 196.834,425.829 197.167,419.163 197.5,412.5 Z M 237.5,469.5 C 249.5,469.5 261.5,469.5 273.5,469.5C 273.91,475.621 273.41,481.621 272,487.5C 271.097,488.701 269.931,489.535 268.5,490C 259.833,490.667 251.167,490.667 242.5,490C 241.069,489.535 239.903,488.701 239,487.5C 237.59,481.621 237.09,475.621 237.5,469.5 Z"/></g>
<g><path style="opacity:0.941" fill="#a566f3" d="M 430.5,303.5 C 433.5,303.5 436.5,303.5 439.5,303.5C 438.561,308.755 437.228,313.921 435.5,319C 435.833,319.5 436.167,320 436.5,320.5C 444.349,316.428 450.682,310.761 455.5,303.5C 458.5,303.5 461.5,303.5 464.5,303.5C 461.034,313.3 454.7,320.634 445.5,325.5C 438.5,325.5 431.5,325.5 424.5,325.5C 426.297,318.11 428.297,310.777 430.5,303.5 Z"/></g>
</svg>
