<?xml version="1.0" encoding="UTF-8"?>
<!DOCTYPE svg PUBLIC "-//W3C//DTD SVG 1.1//EN" "http://www.w3.org/Graphics/SVG/1.1/DTD/svg11.dtd">
<svg xmlns="http://www.w3.org/2000/svg" version="1.1" width="512px" height="512px" style="shape-rendering:geometricPrecision; text-rendering:geometricPrecision; image-rendering:optimizeQuality; fill-rule:evenodd; clip-rule:evenodd" xmlns:xlink="http://www.w3.org/1999/xlink">
<g><path style="opacity:0.994" fill="#000000" d="M 72.5,-0.5 C 131.5,-0.5 190.5,-0.5 249.5,-0.5C 244.173,9.47261 241.34,20.1393 241,31.5C 240.333,74.5 240.333,117.5 241,160.5C 243.295,192.796 260.129,212.963 291.5,221C 294.833,221.333 298.167,221.667 301.5,222C 344.5,222.667 387.5,222.667 430.5,222C 441.527,221.713 451.86,218.88 461.5,213.5C 462.667,251.162 462.833,288.829 462,326.5C 458.833,339 451,346.833 438.5,350C 316.5,350.667 194.5,350.667 72.5,350C 60,346.833 52.1667,339 49,326.5C 48.3333,225.5 48.3333,124.5 49,23.5C 52.349,10.9853 60.1824,2.98533 72.5,-0.5 Z M 104.5,55.5 C 131.169,55.3334 157.835,55.5 184.5,56C 192.871,56.7048 197.705,61.2048 199,69.5C 199.667,107.833 199.667,146.167 199,184.5C 197.705,192.795 192.871,197.295 184.5,198C 157.833,198.667 131.167,198.667 104.5,198C 99.0534,197.539 94.8868,195.039 92,190.5C 90.3449,148.917 90.0115,107.251 91,65.5C 93.9825,60.0048 98.4825,56.6715 104.5,55.5 Z M 120.5,271.5 C 138.214,271.07 155.881,271.57 173.5,273C 183.059,278.407 185.226,285.907 180,295.5C 176.888,298.806 173.055,300.639 168.5,301C 150.789,301.93 133.122,301.596 115.5,300C 105.543,293.837 103.876,285.837 110.5,276C 113.564,273.63 116.897,272.13 120.5,271.5 Z M 352.5,271.5 C 364.886,271.106 377.22,271.606 389.5,273C 399.457,279.163 401.124,287.163 394.5,297C 391.624,299.437 388.29,300.77 384.5,301C 372.118,301.894 359.785,301.561 347.5,300C 337.941,294.593 335.774,287.093 341,277.5C 344.308,274.265 348.141,272.265 352.5,271.5 Z"/></g>
<g><path style="opacity:0.989" fill="#000000" d="M 294.5,-0.5 C 342.5,-0.5 390.5,-0.5 438.5,-0.5C 447.204,2.36314 454.037,7.69647 459,15.5C 460.197,18.0891 461.197,20.7558 462,23.5C 462.667,71.8333 462.667,120.167 462,168.5C 458.833,181 451,188.833 438.5,192C 390.5,192.667 342.5,192.667 294.5,192C 282,188.833 274.167,181 271,168.5C 270.333,120.167 270.333,71.8333 271,23.5C 274.349,10.9853 282.182,2.98533 294.5,-0.5 Z M 357.5,44.5 C 393.59,43.0954 413.924,60.2621 418.5,96C 413.951,131.883 393.617,148.883 357.5,147C 328.673,139.174 314.506,120.34 315,90.5C 319.357,65.9803 333.524,50.6469 357.5,44.5 Z"/></g>
<g><path style="opacity:0.948" fill="#000000" d="M 360.5,73.5 C 377.367,71.8792 387.034,79.3792 389.5,96C 387.12,113.537 377.12,120.87 359.5,118C 343.886,110.059 340.053,98.2252 348,82.5C 351.299,78.1179 355.466,75.1179 360.5,73.5 Z"/></g>
<g><path style="opacity:0.98" fill="#000000" d="M 119.5,85.5 C 136.5,85.5 153.5,85.5 170.5,85.5C 170.5,113.167 170.5,140.833 170.5,168.5C 153.5,168.5 136.5,168.5 119.5,168.5C 119.5,140.833 119.5,113.167 119.5,85.5 Z"/></g>
<g><path style="opacity:0.996" fill="#000000" d="M 283.5,511.5 C 264.833,511.5 246.167,511.5 227.5,511.5C 223.521,509.685 220.688,506.685 219,502.5C 218.5,494.507 218.334,486.507 218.5,478.5C 194.164,478.667 169.831,478.5 145.5,478C 141.333,476.5 138.5,473.667 137,469.5C 136.333,453.5 136.333,437.5 137,421.5C 138.5,417.333 141.333,414.5 145.5,413C 169.831,412.5 194.164,412.333 218.5,412.5C 218.5,401.833 218.5,391.167 218.5,380.5C 243.167,380.5 267.833,380.5 292.5,380.5C 292.5,391.167 292.5,401.833 292.5,412.5C 318.502,412.667 344.502,412.5 370.5,412C 378.167,407 385.833,402 393.5,397C 410.833,396.333 428.167,396.333 445.5,397C 449.667,398.5 452.5,401.333 454,405.5C 454.667,432.167 454.667,458.833 454,485.5C 452.5,489.667 449.667,492.5 445.5,494C 428.167,494.667 410.833,494.667 393.5,494C 385.833,489 378.167,484 370.5,479C 344.502,478.5 318.502,478.333 292.5,478.5C 292.666,486.507 292.5,494.507 292,502.5C 290.312,506.685 287.479,509.685 283.5,511.5 Z"/></g>
</svg>
