<?xml version="1.0" encoding="UTF-8"?>
<!DOCTYPE svg PUBLIC "-//W3C//DTD SVG 1.1//EN" "http://www.w3.org/Graphics/SVG/1.1/DTD/svg11.dtd">
<svg xmlns="http://www.w3.org/2000/svg" version="1.1" width="512px" height="512px" style="shape-rendering:geometricPrecision; text-rendering:geometricPrecision; image-rendering:optimizeQuality; fill-rule:evenodd; clip-rule:evenodd" xmlns:xlink="http://www.w3.org/1999/xlink">
<g><path style="opacity:0.966" fill="#000000" d="M 155.5,15.5 C 238.167,15.3333 320.834,15.5 403.5,16C 404.416,16.3742 405.25,16.8742 406,17.5C 407.656,63.4165 407.99,109.417 407,155.5C 406.5,157.333 405.333,158.5 403.5,159C 398.136,159.171 392.802,159.671 387.5,160.5C 392.075,171.594 391.242,182.261 385,192.5C 374.5,203 364,213.5 353.5,224C 376.255,228.765 385.422,242.598 381,265.5C 379.795,268.562 378.628,271.562 377.5,274.5C 390.95,279.311 397.95,288.977 398.5,303.5C 398.31,314.38 393.977,323.213 385.5,330C 404.232,338.49 410.399,352.657 404,372.5C 402.729,375.433 401.062,378.099 399,380.5C 387.5,392 376,403.5 364.5,415C 360.859,417.803 356.859,419.97 352.5,421.5C 350.708,444.954 338.374,459.121 315.5,464C 305.137,474.697 294.471,485.03 283.5,495C 224.084,495.992 164.751,495.659 105.5,494C 103.058,489.948 102.891,485.781 105,481.5C 120.667,465.833 136.333,450.167 152,434.5C 156.667,415.833 161.333,397.167 166,378.5C 164.308,358.982 162.141,339.482 159.5,320C 164.404,288.41 169.904,256.91 176,225.5C 181.424,210.954 191.757,205.287 207,208.5C 207.5,192.17 207.667,175.837 207.5,159.5C 190.163,159.667 172.83,159.5 155.5,159C 153.667,158.5 152.5,157.333 152,155.5C 151.333,110.167 151.333,64.8333 152,19.5C 152.69,17.6498 153.856,16.3164 155.5,15.5 Z M 167.5,31.5 C 242.167,31.5 316.833,31.5 391.5,31.5C 391.5,68.8333 391.5,106.167 391.5,143.5C 316.833,143.5 242.167,143.5 167.5,143.5C 167.5,106.167 167.5,68.8333 167.5,31.5 Z M 295.5,63.5 C 316.833,63.5 338.167,63.5 359.5,63.5C 359.5,79.5 359.5,95.5 359.5,111.5C 338.167,111.5 316.833,111.5 295.5,111.5C 295.5,95.5 295.5,79.5 295.5,63.5 Z M 216.5,64.5 C 230.981,62.3182 240.814,67.9849 246,81.5C 248.366,95.6057 242.866,105.106 229.5,110C 215.394,112.366 205.894,106.866 201,93.5C 198.85,79.7949 204.016,70.1282 216.5,64.5 Z M 223.5,159.5 C 260.833,159.5 298.167,159.5 335.5,159.5C 335.5,164.833 335.5,170.167 335.5,175.5C 298.167,175.5 260.833,175.5 223.5,175.5C 223.5,170.167 223.5,164.833 223.5,159.5 Z M 354.5,160.5 C 365.171,159.016 371.505,163.516 373.5,174C 373.274,177.012 372.441,179.845 371,182.5C 364.667,188.833 358.333,195.167 352,201.5C 351.333,188.5 351.333,175.5 352,162.5C 352.995,161.934 353.828,161.267 354.5,160.5 Z M 223.5,191.5 C 260.833,191.5 298.167,191.5 335.5,191.5C 335.832,204.184 335.499,216.851 334.5,229.5C 321.212,241.287 308.378,253.62 296,266.5C 285.361,281.999 286.195,296.833 298.5,311C 301.86,313.546 305.526,315.379 309.5,316.5C 307.92,320.739 306.42,325.072 305,329.5C 302.704,346.756 309.538,358.589 325.5,365C 310.432,379.319 308.599,395.152 320,412.5C 324.775,416.469 329.941,419.802 335.5,422.5C 334.575,434.254 328.575,442.088 317.5,446C 304.873,447.104 292.206,447.604 279.5,447.5C 266.794,447.604 254.127,447.104 241.5,446C 230.796,442.295 224.963,434.795 224,423.5C 223.5,346.167 223.333,268.834 223.5,191.5 Z M 196.5,224.5 C 202.326,223.489 205.826,225.822 207,231.5C 207.333,298.5 207.667,365.5 208,432.5C 212.167,448.667 222.333,458.833 238.5,463C 255.833,463.333 273.167,463.667 290.5,464C 285.5,469 280.5,474 275.5,479C 227.833,479.667 180.167,479.667 132.5,479C 143.667,467.833 154.833,456.667 166,445.5C 173.013,421.948 178.846,398.115 183.5,374C 181.614,357.799 179.448,341.632 177,325.5C 176.333,322.167 176.333,318.833 177,315.5C 182,287.833 187,260.167 192,232.5C 192.738,229.352 194.238,226.685 196.5,224.5 Z M 347.5,241.5 C 362.749,241.898 367.915,249.231 363,263.5C 351.167,275.333 339.333,287.167 327.5,299C 317.334,303.613 310.167,300.78 306,290.5C 305.262,286.598 305.928,282.932 308,279.5C 320.759,266.238 333.925,253.572 347.5,241.5 Z M 363.5,289.5 C 378.749,289.898 383.915,297.231 379,311.5C 367.167,323.333 355.333,335.167 343.5,347C 333.334,351.613 326.167,348.78 322,338.5C 321.262,334.598 321.928,330.932 324,327.5C 336.759,314.238 349.925,301.572 363.5,289.5 Z M 371.5,345.5 C 386.749,345.898 391.915,353.231 387,367.5C 375.167,379.333 363.333,391.167 351.5,403C 341.334,407.613 334.167,404.78 330,394.5C 329.262,390.598 329.928,386.932 332,383.5C 344.759,370.238 357.925,357.572 371.5,345.5 Z"/></g>
<g><path style="opacity:0.928" fill="#000000" d="M 214.5,47.5 C 237.329,44.5469 253.163,53.5469 262,74.5C 267.718,98.8973 259.218,116.064 236.5,126C 212.103,131.718 194.936,123.218 185,100.5C 179.424,73.977 189.257,56.3104 214.5,47.5 Z M 216.5,64.5 C 204.016,70.1282 198.85,79.7949 201,93.5C 205.894,106.866 215.394,112.366 229.5,110C 242.866,105.106 248.366,95.6057 246,81.5C 240.814,67.9849 230.981,62.3182 216.5,64.5 Z"/></g>
<g><path style="opacity:0.995" fill="#000000" d="M 283.5,47.5 C 313.588,47.0158 343.588,47.5158 373.5,49C 374.126,49.7504 374.626,50.5838 375,51.5C 375.167,63.5 375.333,75.5 375.5,87.5C 375.649,100.258 375.149,112.925 374,125.5C 373.25,126.126 372.416,126.626 371.5,127C 356.833,127.167 342.167,127.333 327.5,127.5C 312.077,127.652 296.744,127.152 281.5,126C 280.874,125.25 280.374,124.416 280,123.5C 279.333,99.5 279.333,75.5 280,51.5C 280.69,49.6498 281.856,48.3164 283.5,47.5 Z M 295.5,63.5 C 295.5,79.5 295.5,95.5 295.5,111.5C 316.833,111.5 338.167,111.5 359.5,111.5C 359.5,95.5 359.5,79.5 359.5,63.5C 338.167,63.5 316.833,63.5 295.5,63.5 Z"/></g>
<g><path style="opacity:1" fill="#000000" d="M 319.5,79.5 C 324.833,79.5 330.167,79.5 335.5,79.5C 335.5,84.8333 335.5,90.1667 335.5,95.5C 330.167,95.5 324.833,95.5 319.5,95.5C 319.5,90.1667 319.5,84.8333 319.5,79.5 Z"/></g>
<g><path style="opacity:1" fill="#000000" d="M 239.5,207.5 C 244.833,207.5 250.167,207.5 255.5,207.5C 255.5,212.833 255.5,218.167 255.5,223.5C 250.167,223.5 244.833,223.5 239.5,223.5C 239.5,218.167 239.5,212.833 239.5,207.5 Z"/></g>
<g><path style="opacity:1" fill="#000000" d="M 271.5,207.5 C 276.833,207.5 282.167,207.5 287.5,207.5C 287.5,212.833 287.5,218.167 287.5,223.5C 282.167,223.5 276.833,223.5 271.5,223.5C 271.5,218.167 271.5,212.833 271.5,207.5 Z"/></g>
<g><path style="opacity:1" fill="#000000" d="M 239.5,415.5 C 244.833,415.5 250.167,415.5 255.5,415.5C 255.5,420.833 255.5,426.167 255.5,431.5C 250.167,431.5 244.833,431.5 239.5,431.5C 239.5,426.167 239.5,420.833 239.5,415.5 Z"/></g>
</svg>
