<?xml version="1.0" encoding="UTF-8"?>
<!DOCTYPE svg PUBLIC "-//W3C//DTD SVG 1.1//EN" "http://www.w3.org/Graphics/SVG/1.1/DTD/svg11.dtd">
<svg xmlns="http://www.w3.org/2000/svg" version="1.1" width="512px" height="512px" style="shape-rendering:geometricPrecision; text-rendering:geometricPrecision; image-rendering:optimizeQuality; fill-rule:evenodd; clip-rule:evenodd" xmlns:xlink="http://www.w3.org/1999/xlink">
<g><path style="opacity:1" fill="#9a9b9f" d="M 254.5,15.5 C 252.855,23.0897 255.188,28.923 261.5,33C 267.491,33.4995 273.491,33.6662 279.5,33.5C 279.5,35.5 279.5,37.5 279.5,39.5C 275.833,39.5 272.167,39.5 268.5,39.5C 261.5,39.5 254.5,39.5 247.5,39.5C 247.5,31.5 247.5,23.5 247.5,15.5C 249.833,15.5 252.167,15.5 254.5,15.5 Z"/></g>
<g><path style="opacity:1" fill="#b3b4b8" d="M 254.5,15.5 C 262.833,15.5 271.167,15.5 279.5,15.5C 279.5,21.5 279.5,27.5 279.5,33.5C 273.491,33.6662 267.491,33.4995 261.5,33C 255.188,28.923 252.855,23.0897 254.5,15.5 Z"/></g>
<g><path style="opacity:0.998" fill="#434444" d="M 439.5,174.5 C 434.167,174.5 428.833,174.5 423.5,174.5C 423.5,169.5 423.5,164.5 423.5,159.5C 418.167,159.5 412.833,159.5 407.5,159.5C 407.5,164.5 407.5,169.5 407.5,174.5C 384.461,174.936 361.461,174.436 338.5,173C 301.667,164.167 278.833,141.333 270,104.5C 268.581,82.8687 268.081,61.2021 268.5,39.5C 272.167,39.5 275.833,39.5 279.5,39.5C 284.978,39.8511 290.311,39.1844 295.5,37.5C 300.712,30.2441 306.045,23.0774 311.5,16C 332.833,15.3333 354.167,15.3333 375.5,16C 380.955,23.0774 386.288,30.2441 391.5,37.5C 399.379,39.1533 407.379,39.9867 415.5,40C 428,43.1667 435.833,51 439,63.5C 439.5,100.498 439.667,137.498 439.5,174.5 Z"/></g>
<g><path style="opacity:1" fill="#686868" d="M 343.5,22.5 C 353.839,22.3335 364.172,22.5002 374.5,23C 377.343,26.6187 377.01,29.952 373.5,33C 363.833,33.6667 354.167,33.6667 344.5,33C 342.09,32.2421 341.09,30.5754 341.5,28C 341.395,25.8218 342.061,23.9885 343.5,22.5 Z"/></g>
<g><path style="opacity:0.999" fill="#424343" d="M 247.5,39.5 C 247.5,90.1667 247.5,140.833 247.5,191.5C 228.833,191.5 210.167,191.5 191.5,191.5C 191.5,180.833 191.5,170.167 191.5,159.5C 191.5,143.5 191.5,127.5 191.5,111.5C 191.333,94.1635 191.5,76.8301 192,59.5C 195.167,49.6667 201.667,43.1667 211.5,40C 223.495,39.5001 235.495,39.3335 247.5,39.5 Z"/></g>
<g><path style="opacity:0.999" fill="#393a3a" d="M 247.5,39.5 C 254.5,39.5 261.5,39.5 268.5,39.5C 268.081,61.2021 268.581,82.8687 270,104.5C 278.833,141.333 301.667,164.167 338.5,173C 361.461,174.436 384.461,174.936 407.5,174.5C 412.833,175.833 418.167,175.833 423.5,174.5C 428.833,174.5 434.167,174.5 439.5,174.5C 440.127,182.415 436.794,187.915 429.5,191C 368.834,191.5 308.168,191.667 247.5,191.5C 247.5,140.833 247.5,90.1667 247.5,39.5 Z"/></g>
<g><path style="opacity:1" fill="#686868" d="M 397.5,43.5 C 413.996,45.3273 426.496,53.3273 435,67.5C 435.896,70.025 435.396,72.1917 433.5,74C 416.418,73.274 403.585,65.4406 395,50.5C 394.333,49.1667 394.333,47.8333 395,46.5C 396.045,45.6266 396.878,44.6266 397.5,43.5 Z"/></g>
<g><path style="opacity:1" fill="#999a9e" d="M 334.5,55.5 C 368.89,53.7553 390.39,69.422 399,102.5C 400.998,137.817 384.832,159.317 350.5,167C 321.121,168.926 301.121,156.259 290.5,129C 282.78,90.9217 297.447,66.4217 334.5,55.5 Z"/></g>
<g><path style="opacity:1" fill="#212221" d="M 207.5,63.5 C 215.5,63.5 223.5,63.5 231.5,63.5C 231.5,68.8333 231.5,74.1667 231.5,79.5C 223.5,79.5 215.5,79.5 207.5,79.5C 207.5,74.1667 207.5,68.8333 207.5,63.5 Z"/></g>
<g><path style="opacity:1" fill="#666666" d="M 399.5,67.5 C 405.289,67.811 410.122,70.1443 414,74.5C 416.645,78.9356 415.478,80.769 410.5,80C 405.091,78.0896 401.091,74.5896 398.5,69.5C 398.863,68.8165 399.196,68.1499 399.5,67.5 Z"/></g>
<g><path style="opacity:1" fill="#97f9fd" d="M 369.5,129.5 C 352.059,139.486 336.559,137.152 323,122.5C 316.835,111.852 316.001,100.852 320.5,89.5C 330.733,79.2523 342.733,76.7523 356.5,82C 373.577,91.5502 379.077,105.717 373,124.5C 372.003,126.323 370.836,127.99 369.5,129.5 Z"/></g>
<g><path style="opacity:1" fill="#d4fcfe" d="M 336.5,82.5 C 352.137,84.7314 364.304,92.398 373,105.5C 373.814,107.902 373.647,110.235 372.5,112.5C 369.227,113.585 365.894,113.752 362.5,113C 350.243,108.959 340.743,101.459 334,90.5C 332.837,87.0289 333.67,84.3623 336.5,82.5 Z"/></g>
<g><path style="opacity:1" fill="#393a3a" d="M 79.5,87.5 C 79.0475,107.887 79.5475,128.221 81,148.5C 86.5731,162.044 96.7397,168.711 111.5,168.5C 111.5,173.5 111.5,178.5 111.5,183.5C 95.5,183.5 79.5,183.5 63.5,183.5C 63.5,151.5 63.5,119.5 63.5,87.5C 68.8333,87.5 74.1667,87.5 79.5,87.5 Z"/></g>
<g><path style="opacity:1" fill="#424343" d="M 79.5,87.5 C 90.1667,87.5 100.833,87.5 111.5,87.5C 111.5,95.5 111.5,103.5 111.5,111.5C 111.5,123.833 111.5,136.167 111.5,148.5C 111.5,152.167 111.5,155.833 111.5,159.5C 111.5,162.5 111.5,165.5 111.5,168.5C 96.7397,168.711 86.5731,162.044 81,148.5C 79.5475,128.221 79.0475,107.887 79.5,87.5 Z"/></g>
<g><path style="opacity:1" fill="#3f4040" d="M 167.5,111.5 C 156.833,111.5 146.167,111.5 135.5,111.5C 135.5,103.5 135.5,95.5 135.5,87.5C 146.167,87.5 156.833,87.5 167.5,87.5C 167.5,95.5 167.5,103.5 167.5,111.5 Z"/></g>
<g><path style="opacity:1" fill="#5ec5e3" d="M 320.5,89.5 C 316.001,100.852 316.835,111.852 323,122.5C 336.559,137.152 352.059,139.486 369.5,129.5C 365.001,136.43 358.667,140.93 350.5,143C 327.444,144.819 314.444,134.319 311.5,111.5C 311.398,102.785 314.398,95.4515 320.5,89.5 Z"/></g>
<g><path style="opacity:1" fill="#b3b4b8" d="M 111.5,111.5 C 119.5,111.5 127.5,111.5 135.5,111.5C 146.167,111.5 156.833,111.5 167.5,111.5C 168.833,111.5 170.167,111.5 171.5,111.5C 171.666,118.175 171.5,124.842 171,131.5C 169.691,140.14 164.858,145.64 156.5,148C 141.504,148.5 126.504,148.667 111.5,148.5C 111.5,136.167 111.5,123.833 111.5,111.5 Z"/></g>
<g><path style="opacity:1" fill="#9a9b9f" d="M 171.5,111.5 C 178.167,111.5 184.833,111.5 191.5,111.5C 191.5,127.5 191.5,143.5 191.5,159.5C 183.5,159.5 175.5,159.5 167.5,159.5C 156.833,159.5 146.167,159.5 135.5,159.5C 127.5,159.5 119.5,159.5 111.5,159.5C 111.5,155.833 111.5,152.167 111.5,148.5C 126.504,148.667 141.504,148.5 156.5,148C 164.858,145.64 169.691,140.14 171,131.5C 171.5,124.842 171.666,118.175 171.5,111.5 Z"/></g>
<g><path style="opacity:0.996" fill="#383939" d="M 135.5,159.5 C 146.167,159.5 156.833,159.5 167.5,159.5C 167.17,178.341 167.503,197.007 168.5,215.5C 166.734,227.154 171.4,234.654 182.5,238C 239.833,238.667 297.167,238.667 354.5,238C 359.573,236.594 363.073,233.428 365,228.5C 365.499,224.179 365.666,219.846 365.5,215.5C 368.833,215.5 372.167,215.5 375.5,215.5C 375.5,226.167 375.5,236.833 375.5,247.5C 359.5,247.5 343.5,247.5 327.5,247.5C 306.167,247.5 284.833,247.5 263.5,247.5C 228.832,247.667 194.165,247.5 159.5,247C 147,243.833 139.167,236 136,223.5C 135.5,202.169 135.333,180.836 135.5,159.5 Z"/></g>
<g><path style="opacity:1" fill="#212221" d="M 423.5,174.5 C 418.167,175.833 412.833,175.833 407.5,174.5C 407.5,169.5 407.5,164.5 407.5,159.5C 412.833,159.5 418.167,159.5 423.5,159.5C 423.5,164.5 423.5,169.5 423.5,174.5 Z"/></g>
<g><path style="opacity:1" fill="#424343" d="M 168.5,215.5 C 234.167,215.5 299.833,215.5 365.5,215.5C 365.666,219.846 365.499,224.179 365,228.5C 363.073,233.428 359.573,236.594 354.5,238C 297.167,238.667 239.833,238.667 182.5,238C 171.4,234.654 166.734,227.154 168.5,215.5 Z"/></g>
<g><path style="opacity:1" fill="#9a9b9f" d="M 375.5,215.5 C 388.833,215.5 402.167,215.5 415.5,215.5C 415.5,218.833 415.5,222.167 415.5,225.5C 401.277,223.853 391.444,229.52 386,242.5C 385.5,252.161 385.334,261.828 385.5,271.5C 382.167,271.5 378.833,271.5 375.5,271.5C 375.5,263.5 375.5,255.5 375.5,247.5C 375.5,236.833 375.5,226.167 375.5,215.5 Z"/></g>
<g><path style="opacity:1" fill="#393a3a" d="M 415.5,215.5 C 418.5,215.5 421.5,215.5 424.5,215.5C 421.856,233.522 429.522,241.189 447.5,238.5C 447.5,241.5 447.5,244.5 447.5,247.5C 436.833,247.5 426.167,247.5 415.5,247.5C 415.5,240.167 415.5,232.833 415.5,225.5C 415.5,222.167 415.5,218.833 415.5,215.5 Z"/></g>
<g><path style="opacity:1" fill="#424343" d="M 424.5,215.5 C 432.167,215.5 439.833,215.5 447.5,215.5C 447.5,223.167 447.5,230.833 447.5,238.5C 429.522,241.189 421.856,233.522 424.5,215.5 Z"/></g>
<g><path style="opacity:1" fill="#b3b4b8" d="M 415.5,225.5 C 415.5,232.833 415.5,240.167 415.5,247.5C 415.5,255.5 415.5,263.5 415.5,271.5C 405.5,271.5 395.5,271.5 385.5,271.5C 385.334,261.828 385.5,252.161 386,242.5C 391.444,229.52 401.277,223.853 415.5,225.5 Z"/></g>
<g><path style="opacity:1" fill="#d5d6d8" d="M 263.5,247.5 C 284.833,247.5 306.167,247.5 327.5,247.5C 327.5,251.167 327.5,254.833 327.5,258.5C 314.496,258.333 301.496,258.5 288.5,259C 279.477,262.878 275.477,269.712 276.5,279.5C 272.167,279.5 267.833,279.5 263.5,279.5C 263.5,268.833 263.5,258.167 263.5,247.5 Z"/></g>
<g><path style="opacity:1" fill="#f0f0f2" d="M 327.5,258.5 C 327.5,265.5 327.5,272.5 327.5,279.5C 310.5,279.5 293.5,279.5 276.5,279.5C 275.477,269.712 279.477,262.878 288.5,259C 301.496,258.5 314.496,258.333 327.5,258.5 Z"/></g>
<g><path style="opacity:0.994" fill="#953528" d="M 258.5,279.5 C 257.885,288.016 258.718,296.349 261,304.5C 263.167,309.333 266.667,312.833 271.5,315C 295.607,316.137 319.607,316.97 343.5,317.5C 343.846,320.602 343.179,323.435 341.5,326C 336.964,327.379 332.297,327.879 327.5,327.5C 306.167,327.5 284.833,327.5 263.5,327.5C 259.486,327.666 255.486,327.499 251.5,327C 249.667,326.5 248.5,325.333 248,323.5C 247.333,310.167 247.333,296.833 248,283.5C 248.5,281.667 249.667,280.5 251.5,280C 253.81,279.503 256.143,279.337 258.5,279.5 Z"/></g>
<g><path style="opacity:0.993" fill="#c54635" d="M 258.5,279.5 C 260.167,279.5 261.833,279.5 263.5,279.5C 267.833,279.5 272.167,279.5 276.5,279.5C 293.5,279.5 310.5,279.5 327.5,279.5C 331.846,279.334 336.179,279.501 340.5,280C 342.049,281.214 343.215,282.714 344,284.5C 344.826,295.674 344.659,306.674 343.5,317.5C 319.607,316.97 295.607,316.137 271.5,315C 266.667,312.833 263.167,309.333 261,304.5C 258.718,296.349 257.885,288.016 258.5,279.5 Z"/></g>
<g><path style="opacity:1" fill="#dc8e84" d="M 319.5,282.5 C 331.637,282.559 339.304,288.392 342.5,300C 342.833,302.667 341.833,304.667 339.5,306C 326.601,306.939 318.601,301.106 315.5,288.5C 315.67,285.674 317.003,283.674 319.5,282.5 Z"/></g>
<g><path style="opacity:1" fill="#393a3a" d="M 263.5,327.5 C 284.833,327.5 306.167,327.5 327.5,327.5C 327.5,331.833 327.5,336.167 327.5,340.5C 317.161,340.334 306.828,340.5 296.5,341C 294.509,341.374 292.842,342.207 291.5,343.5C 282.167,343.5 272.833,343.5 263.5,343.5C 263.5,338.167 263.5,332.833 263.5,327.5 Z"/></g>
<g><path style="opacity:0.996" fill="#414242" d="M 327.5,340.5 C 328.833,378.167 328.833,415.833 327.5,453.5C 316.769,453.903 306.102,453.403 295.5,452C 286.358,448.027 280.692,441.194 278.5,431.5C 289.5,431.5 300.5,431.5 311.5,431.5C 311.5,426.167 311.5,420.833 311.5,415.5C 295.5,415.5 279.5,415.5 263.5,415.5C 263.5,412.833 263.5,410.167 263.5,407.5C 279.5,407.5 295.5,407.5 311.5,407.5C 311.5,402.167 311.5,396.833 311.5,391.5C 295.5,391.5 279.5,391.5 263.5,391.5C 263.5,388.833 263.5,386.167 263.5,383.5C 279.5,383.5 295.5,383.5 311.5,383.5C 311.5,378.167 311.5,372.833 311.5,367.5C 295.5,367.5 279.5,367.5 263.5,367.5C 263.5,364.833 263.5,362.167 263.5,359.5C 279.5,359.5 295.5,359.5 311.5,359.5C 311.5,354.167 311.5,348.833 311.5,343.5C 304.833,343.5 298.167,343.5 291.5,343.5C 292.842,342.207 294.509,341.374 296.5,341C 306.828,340.5 317.161,340.334 327.5,340.5 Z"/></g>
<g><path style="opacity:1" fill="#212221" d="M 263.5,343.5 C 272.833,343.5 282.167,343.5 291.5,343.5C 298.167,343.5 304.833,343.5 311.5,343.5C 311.5,348.833 311.5,354.167 311.5,359.5C 295.5,359.5 279.5,359.5 263.5,359.5C 263.5,354.167 263.5,348.833 263.5,343.5 Z"/></g>
<g><path style="opacity:1" fill="#686868" d="M 320.5,347.5 C 322.833,347.5 325.167,347.5 327.5,347.5C 327.5,377.5 327.5,407.5 327.5,437.5C 322.186,438.26 318.353,436.26 316,431.5C 315.333,405.5 315.333,379.5 316,353.5C 317.332,351.34 318.832,349.34 320.5,347.5 Z"/></g>
<g><path style="opacity:1" fill="#212221" d="M 263.5,367.5 C 279.5,367.5 295.5,367.5 311.5,367.5C 311.5,372.833 311.5,378.167 311.5,383.5C 295.5,383.5 279.5,383.5 263.5,383.5C 263.5,378.167 263.5,372.833 263.5,367.5 Z"/></g>
<g><path style="opacity:1" fill="#212221" d="M 263.5,391.5 C 279.5,391.5 295.5,391.5 311.5,391.5C 311.5,396.833 311.5,402.167 311.5,407.5C 295.5,407.5 279.5,407.5 263.5,407.5C 263.5,402.167 263.5,396.833 263.5,391.5 Z"/></g>
<g><path style="opacity:1" fill="#212221" d="M 263.5,415.5 C 279.5,415.5 295.5,415.5 311.5,415.5C 311.5,420.833 311.5,426.167 311.5,431.5C 300.5,431.5 289.5,431.5 278.5,431.5C 273.5,431.5 268.5,431.5 263.5,431.5C 263.5,426.167 263.5,420.833 263.5,415.5 Z"/></g>
<g><path style="opacity:1" fill="#393a3a" d="M 263.5,431.5 C 268.5,431.5 273.5,431.5 278.5,431.5C 280.692,441.194 286.358,448.027 295.5,452C 306.102,453.403 316.769,453.903 327.5,453.5C 327.5,456.833 327.5,460.167 327.5,463.5C 306.167,463.5 284.833,463.5 263.5,463.5C 263.5,452.833 263.5,442.167 263.5,431.5 Z"/></g>
<g><path style="opacity:0.993" fill="#953528" d="M 256.5,463.5 C 257.506,474.341 263.173,481.508 273.5,485C 296.831,485.5 320.164,485.667 343.5,485.5C 344.296,489.684 342.963,492.85 339.5,495C 310.167,495.667 280.833,495.667 251.5,495C 249.667,494.5 248.5,493.333 248,491.5C 247.333,483.5 247.333,475.5 248,467.5C 249.812,464.179 252.645,462.845 256.5,463.5 Z"/></g>
<g><path style="opacity:1" fill="#c54534" d="M 256.5,463.5 C 258.833,463.5 261.167,463.5 263.5,463.5C 284.833,463.5 306.167,463.5 327.5,463.5C 331.514,463.334 335.514,463.501 339.5,464C 340.416,464.374 341.25,464.874 342,465.5C 343.42,472.05 343.92,478.716 343.5,485.5C 320.164,485.667 296.831,485.5 273.5,485C 263.173,481.508 257.506,474.341 256.5,463.5 Z"/></g>
</svg>
