


<svg version="1.1" id="레이어_1" xmlns="http://www.w3.org/2000/svg" xmlns:xlink="http://www.w3.org/1999/xlink" x="0px" y="0px" width="1000px" height="1000px" viewBox="0 0 1000 1000" enable-background="new 0 0 1000 1000" xml:space="preserve">
<g>
	<path fill-rule="evenodd" clip-rule="evenodd" fill="#3B468F" d="M1000,775c0,124.264-100.736,225-225,225H225
		C100.736,1000,0,899.264,0,775V225C0,100.736,100.736,0,225,0h550c124.264,0,225,100.736,225,225V775z"></path>
	<g>
		<g>
			<path fill-rule="evenodd" clip-rule="evenodd" fill="#FEFEFE" d="M791.923,562.479c1.566-13.27-4.299-23-14.961-30.02
				c-5.9-3.885-12.215-7.226-18.584-10.31c-27.678-13.412-55.566-26.403-83.139-40.026c-17.135-8.464-33.765-8.147-50.613,0.317
				c-10.032,5.037-19.218,11.312-27.891,18.388c-28.833,23.523-57.667,47.052-86.516,70.556c-2.806,2.285-5.727,4.428-8.631,6.67
				c-2.8-2.718-1.627-5.567-1.631-8.047c-0.088-44.663,0.081-89.326-0.225-133.984c-0.046-6.461,1.903-10.635,6.907-14.514
				c9.087-7.039,17.993-14.373,26.428-22.178c31.225-28.893,67.492-34.86,107.581-24.445c12.813,3.329,25.055,8.148,37.004,13.771
				c68.197,32.105,136.354,64.293,204.641,96.205c6.893,3.225,9.324,4.711,1.766,10.627c-30.092,23.562-59.734,47.7-89.543,71.624
				C790.78,567.178,791.007,565.02,791.923,562.479z"></path>
			<path fill-rule="evenodd" clip-rule="evenodd" fill="#FEFEFE" d="M595.245,716.555c-4.893,0.285-9.817,0.321-14.675,0.904
				c-18.295,2.194-35.76-0.996-52.565-8.087c-9.962-4.202-19.518-9.444-29.641-13.175c-7.76-2.861-9.387-7.452-9.304-15.246
				c1.429-129.979,2.437-259.966,3.949-389.945c0.103-8.875-2.673-12.949-10.576-16.556c-43.989-20.083-87.693-40.794-131.504-61.27
				c-2.935-1.371-5.945-2.577-9.917-4.292c17.976,60.344,6.644,120.771,8.497,180.781c-4.412-6.389-7.377-13.092-11.001-19.412
				c-6.667-11.631-15.133-21.445-27.739-27.278c-36.83-17.042-73.527-34.366-110.312-51.51c-10.782-5.023-21.962-8.777-33.911-9.96
				c-19.107-1.889-33.726,5.785-42.657,22.854c-6.548,12.512-9.647,26.108-10.145,40.039c-2.017,56.502-3.397,113.07-1.666,169.558
				c1.685,54.984,22.513,101.543,72.356,129.368c43.682,24.381,90.195,43.33,135.556,64.473c8.47,3.948,15.913,1.567,21.451-5.98
				c3.075-4.194,5.86-8.599,9.614-14.146c3.898,11.111,4.906,21.194,6.447,31.111c0.802,5.162,2.808,8.317,7.768,10.623
				c42.94,19.932,85.812,40.02,128.529,60.424c5.389,2.571,8.512,0.964,12.502-2.143c24.571-19.127,49.286-38.067,73.942-57.079
				c5.232-4.036,10.423-8.123,15.633-12.187C595.666,717.801,595.455,717.178,595.245,716.555z M349.046,531.817
				c0.014,4.722-2.841,7.345-5.468,10.365c-20.587,23.698-35.846,49.979-39.014,81.912c-0.567,5.718-2.971,4.781-6.488,3.103
				c-7.014-3.345-13.883-7.095-21.135-9.816c-18.162-6.826-24.807-20.477-24.678-38.881c0.191-27.056,1.644-133.253,1.663-159.295
				c0.003-3.381-0.056-6.781,0.272-10.139c1.465-14.944,7.178-18.325,20.883-12.043c18.121,8.305,36.047,17.041,54.189,25.301
				c13.168,5.992,19.756,16.359,19.908,30.354C349.469,479.053,348.971,505.437,349.046,531.817z"></path>
		</g>
	</g>
</g>
</svg>
