<?xml version="1.0" encoding="UTF-8"?>
<!DOCTYPE svg PUBLIC "-//W3C//DTD SVG 1.1//EN" "http://www.w3.org/Graphics/SVG/1.1/DTD/svg11.dtd">
<svg xmlns="http://www.w3.org/2000/svg" version="1.1" width="512px" height="512px" style="shape-rendering:geometricPrecision; text-rendering:geometricPrecision; image-rendering:optimizeQuality; fill-rule:evenodd; clip-rule:evenodd" xmlns:xlink="http://www.w3.org/1999/xlink">
<g><path style="opacity:0.99" fill="#1976d2" d="M 51.5,-0.5 C 59.5,-0.5 67.5,-0.5 75.5,-0.5C 113.253,10.6261 130.42,35.9594 127,75.5C 118.69,108.568 97.5232,125.901 63.5,127.5C 29.3557,125.78 8.02233,108.446 -0.5,75.5C -0.5,67.5 -0.5,59.5 -0.5,51.5C 6.5,23.8333 23.8333,6.5 51.5,-0.5 Z"/></g>
<g><path style="opacity:0.99" fill="#1976d2" d="M 243.5,-0.5 C 251.5,-0.5 259.5,-0.5 267.5,-0.5C 305.253,10.6261 322.42,35.9594 319,75.5C 310.69,108.568 289.523,125.901 255.5,127.5C 221.438,125.889 200.271,108.555 192,75.5C 188.58,35.9594 205.747,10.6261 243.5,-0.5 Z"/></g>
<g><path style="opacity:0.99" fill="#1976d2" d="M 435.5,-0.5 C 443.5,-0.5 451.5,-0.5 459.5,-0.5C 487.14,6.47339 504.473,23.8067 511.5,51.5C 511.5,59.5 511.5,67.5 511.5,75.5C 500.661,112.942 475.661,130.109 436.5,127C 402.716,119.258 385.05,98.0909 383.5,63.5C 385.205,29.4033 402.539,8.07001 435.5,-0.5 Z"/></g>
<g><path style="opacity:1" fill="#41a4f4" d="M 55.5,25.5 C 87.3296,24.4957 102.496,39.829 101,71.5C 94.0184,93.7513 78.8517,103.585 55.5,101C 33.259,94.0442 23.4256,78.8775 26,55.5C 30.0151,39.6524 39.8485,29.6524 55.5,25.5 Z"/></g>
<g><path style="opacity:1" fill="#8fc9f8" d="M 247.5,25.5 C 279.308,24.4747 294.475,39.8081 293,71.5C 285.981,93.7663 270.814,103.6 247.5,101C 225.249,94.0184 215.415,78.8517 218,55.5C 222.015,39.6524 231.848,29.6524 247.5,25.5 Z"/></g>
<g><path style="opacity:1" fill="#41a4f4" d="M 439.5,25.5 C 470.842,24.3425 486.009,39.3425 485,70.5C 478.593,93.4688 463.427,103.636 439.5,101C 417.259,94.0442 407.426,78.8775 410,55.5C 414.015,39.6524 423.848,29.6524 439.5,25.5 Z"/></g>
<g><path style="opacity:0.99" fill="#1976d2" d="M -0.5,267.5 C -0.5,259.5 -0.5,251.5 -0.5,243.5C 10.6261,205.747 35.9594,188.58 75.5,192C 108.57,200.319 125.904,221.485 127.5,255.5C 125.95,290.091 108.284,311.258 74.5,319C 35.3013,322.095 10.3013,304.928 -0.5,267.5 Z"/></g>
<g><path style="opacity:0.99" fill="#1976d2" d="M 243.5,191.5 C 277.466,188.224 301.632,201.891 316,232.5C 325.302,262.811 317.802,287.977 293.5,308C 274.476,320.158 254.142,322.824 232.5,316C 201.72,301.617 188.22,277.45 192,243.5C 198.681,215.653 215.848,198.319 243.5,191.5 Z"/></g>
<g><path style="opacity:0.99" fill="#1976d2" d="M 511.5,243.5 C 511.5,251.5 511.5,259.5 511.5,267.5C 500.661,304.942 475.661,322.109 436.5,319C 402.704,311.218 385.038,290.051 383.5,255.5C 385.096,221.485 402.43,200.319 435.5,192C 475.041,188.58 500.374,205.747 511.5,243.5 Z"/></g>
<g><path style="opacity:1" fill="#8fc9f8" d="M 55.5,217.5 C 87.3085,216.475 102.475,231.808 101,263.5C 93.981,285.766 78.8143,295.6 55.5,293C 33.2487,286.018 23.4153,270.852 26,247.5C 30.0151,231.652 39.8485,221.652 55.5,217.5 Z"/></g>
<g><path style="opacity:1" fill="#41a4f4" d="M 247.5,217.5 C 279.33,216.496 294.496,231.829 293,263.5C 286.018,285.751 270.852,295.585 247.5,293C 225.259,286.044 215.426,270.877 218,247.5C 222.015,231.652 231.848,221.652 247.5,217.5 Z"/></g>
<g><path style="opacity:1" fill="#8fc9f8" d="M 439.5,217.5 C 471.308,216.475 486.475,231.808 485,263.5C 477.981,285.766 462.814,295.6 439.5,293C 417.249,286.018 407.415,270.852 410,247.5C 414.015,231.652 423.848,221.652 439.5,217.5 Z"/></g>
<g><path style="opacity:0.99" fill="#1976d2" d="M 74.5,511.5 C 67.1667,511.5 59.8333,511.5 52.5,511.5C 24.2553,504.922 6.58864,487.588 -0.5,459.5C -0.5,451.5 -0.5,443.5 -0.5,435.5C 8.07001,402.539 29.4033,385.205 63.5,383.5C 97.5146,385.096 118.681,402.43 127,435.5C 130.473,475.61 112.973,500.943 74.5,511.5 Z"/></g>
<g><path style="opacity:0.99" fill="#1976d2" d="M 266.5,511.5 C 259.167,511.5 251.833,511.5 244.5,511.5C 206.013,500.905 188.513,475.572 192,435.5C 200.319,402.43 221.485,385.096 255.5,383.5C 289.515,385.096 310.681,402.43 319,435.5C 322.473,475.61 304.973,500.943 266.5,511.5 Z"/></g>
<g><path style="opacity:0.99" fill="#1976d2" d="M 511.5,435.5 C 511.5,443.5 511.5,451.5 511.5,459.5C 504.385,487.615 486.718,504.949 458.5,511.5C 451.167,511.5 443.833,511.5 436.5,511.5C 398.013,500.905 380.513,475.572 384,435.5C 392.319,402.43 413.485,385.096 447.5,383.5C 481.597,385.205 502.93,402.539 511.5,435.5 Z"/></g>
<g><path style="opacity:1" fill="#41a4f4" d="M 55.5,409.5 C 87.3296,408.496 102.496,423.829 101,455.5C 94.0184,477.751 78.8517,487.585 55.5,485C 33.259,478.044 23.4256,462.877 26,439.5C 30.0151,423.652 39.8485,413.652 55.5,409.5 Z"/></g>
<g><path style="opacity:1" fill="#8fc9f8" d="M 247.5,409.5 C 279.308,408.475 294.475,423.808 293,455.5C 285.981,477.766 270.814,487.6 247.5,485C 225.249,478.018 215.415,462.852 218,439.5C 222.015,423.652 231.848,413.652 247.5,409.5 Z"/></g>
<g><path style="opacity:1" fill="#41a4f4" d="M 439.5,409.5 C 471.33,408.496 486.496,423.829 485,455.5C 478.018,477.751 462.852,487.585 439.5,485C 417.259,478.044 407.426,462.877 410,439.5C 414.015,423.652 423.848,413.652 439.5,409.5 Z"/></g>
</svg>
