<?xml version="1.0" encoding="UTF-8"?>
<!DOCTYPE svg PUBLIC "-//W3C//DTD SVG 1.1//EN" "http://www.w3.org/Graphics/SVG/1.1/DTD/svg11.dtd">
<svg xmlns="http://www.w3.org/2000/svg" version="1.1" width="512px" height="512px" style="shape-rendering:geometricPrecision; text-rendering:geometricPrecision; image-rendering:optimizeQuality; fill-rule:evenodd; clip-rule:evenodd" xmlns:xlink="http://www.w3.org/1999/xlink">
<g><path style="opacity:0.981" fill="#000100" d="M 4.5,-0.5 C 13.1667,-0.5 21.8333,-0.5 30.5,-0.5C 34.5949,1.75889 37.9282,4.92556 40.5,9C 57.8333,9.33333 75.1667,9.66667 92.5,10C 96.5181,10.8635 98.5181,13.3635 98.5,17.5C 97.9815,21.0241 95.9815,23.3575 92.5,24.5C 75.1667,24.5 57.8333,24.5 40.5,24.5C 40.1832,28.7016 40.5166,32.7016 41.5,36.5C 184.167,36.5 326.833,36.5 469.5,36.5C 470.483,32.7016 470.817,28.7016 470.5,24.5C 354.833,24.5 239.167,24.5 123.5,24.5C 120.018,23.3575 118.018,21.0241 117.5,17.5C 117.482,13.3635 119.482,10.8635 123.5,10C 239.167,9.66667 354.833,9.33333 470.5,9C 473.072,4.92556 476.405,1.75889 480.5,-0.5C 489.167,-0.5 497.833,-0.5 506.5,-0.5C 507.833,1.5 509.5,3.16667 511.5,4.5C 511.5,21.8333 511.5,39.1667 511.5,56.5C 509.954,59.1999 507.621,61.0332 504.5,62C 498.175,62.4995 491.842,62.6662 485.5,62.5C 485.667,108.168 485.5,153.835 485,199.5C 483.809,202.534 481.642,204.201 478.5,204.5C 475.215,204.731 472.715,203.397 471,200.5C 470.833,150.665 470.333,100.998 469.5,51.5C 326.668,50.5004 183.668,50.1671 40.5,50.5C 40.1674,131.002 40.5007,211.335 41.5,291.5C 184.5,291.5 327.5,291.5 470.5,291.5C 470.5,270.833 470.5,250.167 470.5,229.5C 472.01,226.067 474.676,224.067 478.5,223.5C 481.27,224.31 483.437,225.977 485,228.5C 485.5,245.83 485.667,263.163 485.5,280.5C 492.175,280.334 498.842,280.5 505.5,281C 508.023,282.36 510.023,284.193 511.5,286.5C 511.5,303.5 511.5,320.5 511.5,337.5C 509.931,340.228 507.598,342.062 504.5,343C 495.756,343.91 487.089,343.576 478.5,342C 474.777,339.943 472.11,336.943 470.5,333C 406.168,332.5 341.834,332.333 277.5,332.5C 277.5,347.5 277.5,362.5 277.5,377.5C 280.85,377.335 284.183,377.502 287.5,378C 290.381,379.251 292.214,381.417 293,384.5C 293.667,393.5 293.667,402.5 293,411.5C 292.5,413 292,414.5 291.5,416C 306.984,442.823 322.484,469.657 338,496.5C 339.746,502.658 338.246,507.658 333.5,511.5C 321.167,511.5 308.833,511.5 296.5,511.5C 289.592,502.03 283.426,492.03 278,481.5C 277.667,489.5 277.333,497.5 277,505.5C 275.64,508.023 273.807,510.023 271.5,511.5C 260.833,511.5 250.167,511.5 239.5,511.5C 237.193,510.023 235.36,508.023 234,505.5C 233.667,497.5 233.333,489.5 233,481.5C 227.574,492.03 221.408,502.03 214.5,511.5C 202.167,511.5 189.833,511.5 177.5,511.5C 172.754,507.658 171.254,502.658 173,496.5C 177.125,489.081 181.625,481.914 186.5,475C 189.146,474.503 191.813,474.336 194.5,474.5C 196.739,476.477 198.073,478.977 198.5,482C 196.637,486.874 194.303,491.541 191.5,496C 196.5,496.667 201.5,496.667 206.5,496C 215.207,480.751 224.04,465.585 233,450.5C 233.667,441.833 233.667,433.167 233,424.5C 226.748,434.67 220.748,445.003 215,455.5C 211.921,458.485 208.421,459.152 204.5,457.5C 200.693,454.565 199.859,450.899 202,446.5C 208.219,436.562 214.053,426.395 219.5,416C 219,414.5 218.5,413 218,411.5C 217.333,402.5 217.333,393.5 218,384.5C 218.786,381.417 220.619,379.251 223.5,378C 226.817,377.502 230.15,377.335 233.5,377.5C 233.5,362.5 233.5,347.5 233.5,332.5C 169.166,332.333 104.832,332.5 40.5,333C 35.7609,342.04 28.2609,345.54 18,343.5C 13.0835,343.577 8.25016,343.077 3.5,342C 1.92975,340.603 0.596413,339.103 -0.5,337.5C -0.5,320.5 -0.5,303.5 -0.5,286.5C 0.977392,284.193 2.97739,282.36 5.5,281C 12.1583,280.5 18.825,280.334 25.5,280.5C 25.5,207.833 25.5,135.167 25.5,62.5C 19.1579,62.6662 12.8246,62.4995 6.5,62C 3.37935,61.0332 1.04602,59.1999 -0.5,56.5C -0.5,39.1667 -0.5,21.8333 -0.5,4.5C 1.5,3.16667 3.16667,1.5 4.5,-0.5 Z"/></g>
<g><path style="opacity:1" fill="#607780" d="M 14.5,14.5 C 18.1667,14.5 21.8333,14.5 25.5,14.5C 25.5,25.1667 25.5,35.8333 25.5,46.5C 21.8333,46.5 18.1667,46.5 14.5,46.5C 14.5,35.8333 14.5,25.1667 14.5,14.5 Z"/></g>
<g><path style="opacity:1" fill="#607780" d="M 485.5,14.5 C 489.167,14.5 492.833,14.5 496.5,14.5C 496.5,25.1667 496.5,35.8333 496.5,46.5C 492.833,46.5 489.167,46.5 485.5,46.5C 485.5,35.8333 485.5,25.1667 485.5,14.5 Z"/></g>
<g><path style="opacity:0.999" fill="#9eeebc" d="M 98.5,17.5 C 104.833,17.5 111.167,17.5 117.5,17.5C 118.018,21.0241 120.018,23.3575 123.5,24.5C 238.665,25.4995 353.999,25.8328 469.5,25.5C 469.5,29.1667 469.5,32.8333 469.5,36.5C 326.833,36.5 184.167,36.5 41.5,36.5C 41.5,32.8333 41.5,29.1667 41.5,25.5C 58.6749,25.8299 75.6749,25.4966 92.5,24.5C 95.9815,23.3575 97.9815,21.0241 98.5,17.5 Z"/></g>
<g><path style="opacity:1" fill="#3a5744" d="M 92.5,24.5 C 75.6749,25.4966 58.6749,25.8299 41.5,25.5C 41.5,29.1667 41.5,32.8333 41.5,36.5C 40.5166,32.7016 40.1832,28.7016 40.5,24.5C 57.8333,24.5 75.1667,24.5 92.5,24.5 Z"/></g>
<g><path style="opacity:1" fill="#365240" d="M 123.5,24.5 C 239.167,24.5 354.833,24.5 470.5,24.5C 470.817,28.7016 470.483,32.7016 469.5,36.5C 469.5,32.8333 469.5,29.1667 469.5,25.5C 353.999,25.8328 238.665,25.4995 123.5,24.5 Z"/></g>
<g><path style="opacity:1" fill="#376345" d="M 469.5,51.5 C 458.833,51.5 448.167,51.5 437.5,51.5C 305.5,51.5 173.5,51.5 41.5,51.5C 41.5,127.167 41.5,202.833 41.5,278.5C 41.5,282.5 41.5,286.5 41.5,290.5C 41.5,290.833 41.5,291.167 41.5,291.5C 40.5007,211.335 40.1674,131.002 40.5,50.5C 183.668,50.1671 326.668,50.5004 469.5,51.5 Z"/></g>
<g><path style="opacity:1" fill="#85f0a6" d="M 437.5,51.5 C 437.667,108.168 437.5,164.834 437,221.5C 431.068,252.099 412.902,270.932 382.5,278C 268.834,278.5 155.167,278.667 41.5,278.5C 41.5,202.833 41.5,127.167 41.5,51.5C 173.5,51.5 305.5,51.5 437.5,51.5 Z"/></g>
<g><path style="opacity:1" fill="#7fe09c" d="M 437.5,51.5 C 448.167,51.5 458.833,51.5 469.5,51.5C 470.333,100.998 470.833,150.665 471,200.5C 472.715,203.397 475.215,204.731 478.5,204.5C 478.5,210.833 478.5,217.167 478.5,223.5C 474.676,224.067 472.01,226.067 470.5,229.5C 469.503,249.66 469.17,269.993 469.5,290.5C 326.833,290.5 184.167,290.5 41.5,290.5C 41.5,286.5 41.5,282.5 41.5,278.5C 155.167,278.667 268.834,278.5 382.5,278C 412.902,270.932 431.068,252.099 437,221.5C 437.5,164.834 437.667,108.168 437.5,51.5 Z"/></g>
<g><path style="opacity:1" fill="#61ad78" d="M 470.5,229.5 C 470.5,250.167 470.5,270.833 470.5,291.5C 327.5,291.5 184.5,291.5 41.5,291.5C 41.5,291.167 41.5,290.833 41.5,290.5C 184.167,290.5 326.833,290.5 469.5,290.5C 469.17,269.993 469.503,249.66 470.5,229.5 Z"/></g>
<g><path style="opacity:1" fill="#5f757e" d="M 14.5,295.5 C 18.1667,295.5 21.8333,295.5 25.5,295.5C 25.5,306.5 25.5,317.5 25.5,328.5C 21.8333,328.5 18.1667,328.5 14.5,328.5C 14.5,317.5 14.5,306.5 14.5,295.5 Z"/></g>
<g><path style="opacity:1" fill="#5f757e" d="M 485.5,295.5 C 489.167,295.5 492.833,295.5 496.5,295.5C 496.5,306.5 496.5,317.5 496.5,328.5C 492.833,328.5 489.167,328.5 485.5,328.5C 485.5,317.5 485.5,306.5 485.5,295.5 Z"/></g>
<g><path style="opacity:1" fill="#93deaf" d="M 41.5,306.5 C 41.5,309.833 41.5,313.167 41.5,316.5C 184.167,316.5 326.833,316.5 469.5,316.5C 469.5,313.167 469.5,309.833 469.5,306.5C 470.482,309.962 470.815,313.629 470.5,317.5C 327.167,317.5 183.833,317.5 40.5,317.5C 40.185,313.629 40.5184,309.962 41.5,306.5 Z"/></g>
<g><path style="opacity:1" fill="#a1f4c0" d="M 41.5,306.5 C 184.167,306.5 326.833,306.5 469.5,306.5C 469.5,309.833 469.5,313.167 469.5,316.5C 326.833,316.5 184.167,316.5 41.5,316.5C 41.5,313.167 41.5,309.833 41.5,306.5 Z"/></g>
<g><path style="opacity:1" fill="#91adb5" d="M 248.5,332.5 C 253.167,332.5 257.833,332.5 262.5,332.5C 262.5,347.5 262.5,362.5 262.5,377.5C 257.833,377.5 253.167,377.5 248.5,377.5C 248.5,362.5 248.5,347.5 248.5,332.5 Z"/></g>
<g><path style="opacity:1" fill="#6f8791" d="M 233.5,392.5 C 248.167,392.5 262.833,392.5 277.5,392.5C 277.5,396.5 277.5,400.5 277.5,404.5C 262.833,404.5 248.167,404.5 233.5,404.5C 233.5,400.5 233.5,396.5 233.5,392.5 Z"/></g>
<g><path style="opacity:1" fill="#5b7079" d="M 248.5,419.5 C 253.167,419.5 257.833,419.5 262.5,419.5C 262.5,445.167 262.5,470.833 262.5,496.5C 257.833,496.5 253.167,496.5 248.5,496.5C 248.5,470.833 248.5,445.167 248.5,419.5 Z"/></g>
<g><path style="opacity:0.993" fill="#465757" d="M 194.5,474.5 C 197.833,468.833 201.167,463.167 204.5,457.5C 208.421,459.152 211.921,458.485 215,455.5C 220.748,445.003 226.748,434.67 233,424.5C 233.667,433.167 233.667,441.833 233,450.5C 224.04,465.585 215.207,480.751 206.5,496C 201.5,496.667 196.5,496.667 191.5,496C 194.303,491.541 196.637,486.874 198.5,482C 198.073,478.977 196.739,476.477 194.5,474.5 Z"/></g>
<g><path style="opacity:1" fill="#455757" d="M 277.5,424.5 C 291.852,448.024 305.852,471.857 319.5,496C 314.5,496.667 309.5,496.667 304.5,496C 295.793,480.751 286.96,465.585 278,450.5C 277.5,441.84 277.334,433.173 277.5,424.5 Z"/></g>
</svg>
